Foldit-revisedUC-ExtraBold-Expanded.ufo
<glyph name="exclam.color1" format="2">
  <advance width="600"/>
  <unicode hex="0021"/>
  <outline>
    <contour>
      <point x="35" y="0" type="line"/>
      <point x="267" y="0" type="line"/>
      <point x="267" y="204" type="line"/>
      <point x="35" y="204" type="line"/>
    </contour>
  </outline>
</glyph>
<glyph name="ampersand.color1" format="2">
  <advance width="600"/>
  <unicode hex="0026"/>
  <outline>
    <contour>
      <point x="218" y="466" type="line"/>
      <point x="372" y="466" type="line"/>
      <point x="372" y="730" type="line"/>
      <point x="371" y="730" type="line"/>
      <point x="218" y="603" type="line"/>
    </contour>
  </outline>
</glyph>
<glyph name="ampersand.color2" format="2">
  <advance width="600"/>
  <unicode hex="0026"/>
  <outline>
    <contour>
      <point x="797" y="0" type="line"/>
      <point x="802" y="0" type="line"/>
      <point x="1073" y="0" type="line"/>
      <point x="1073" y="1" type="line"/>
      <point x="737" y="406" type="line"/>
      <point x="465" y="406" type="line"/>
      <point x="465" y="405" type="line"/>
    </contour>
  </outline>
</glyph>
<glyph name="ampersand.color7" format="2">
  <advance width="600"/>
  <unicode hex="0026"/>
  <outline>
    <contour>
      <point x="634" y="262" type="line"/>
      <point x="635" y="262" type="line"/>
      <point x="788" y="466" type="line"/>
      <point x="788" y="603" type="line"/>
      <point x="636" y="730" type="line"/>
      <point x="635" y="730" type="line"/>
    </contour>
  </outline>
</glyph>
<glyph name="zero.color0" format="2">
  <advance width="600"/>
  <unicode hex="0030"/>
  <outline>
    <contour>
      <point x="419" y="204" type="line"/>
      <point x="652" y="204" type="line"/>
      <point x="652" y="205" type="line"/>
      <point x="380" y="526" type="line"/>
      <point x="147" y="526" type="line"/>
    </contour>
  </outline>
</glyph>
<glyph name="zero.color1" format="2">
  <advance width="600"/>
  <unicode hex="0030"/>
  <outline>
    <contour>
      <point x="237" y="0" type="line"/>
      <point x="551" y="0" type="line"/>
      <point x="551" y="204" type="line"/>
      <point x="35" y="204" type="line"/>
      <point x="35" y="203" type="line"/>
    </contour>
  </outline>
</glyph>
<glyph name="zero.color4" format="2">
  <advance width="600"/>
  <unicode hex="0030"/>
  <outline>
    <contour>
      <point x="249" y="526" type="line"/>
      <point x="765" y="526" type="line"/>
      <point x="765" y="527" type="line"/>
      <point x="563" y="730" type="line"/>
      <point x="249" y="730" type="line"/>
    </contour>
  </outline>
</glyph>
<glyph name="one.color1" format="2">
  <advance width="600"/>
  <unicode hex="0031"/>
  <outline>
    <contour>
      <point x="35" y="1" type="line"/>
      <point x="318" y="0" type="line"/>
      <point x="318" y="204" type="line"/>
      <point x="35" y="204" type="line"/>
    </contour>
  </outline>
</glyph>
<glyph name="one" format="2">
  <advance width="800"/>
  <unicode hex="0031"/>
  <outline>
    <contour>
      <point x="318" y="0" type="line"/>
      <point x="371" y="0" type="line"/>
      <point x="533" y="204" type="line"/>
      <point x="533" y="730" type="line"/>
      <point x="481" y="730" type="line"/>
      <point x="319" y="526" type="line"/>
    </contour>
    <contour>
      <point x="35" y="1" type="line"/>
      <point x="318" y="0" type="line"/>
      <point x="318" y="204" type="line"/>
      <point x="35" y="204" type="line"/>
    </contour>
    <contour>
      <point x="371" y="0" type="line"/>
      <point x="765" y="0" type="line"/>
      <point x="765" y="204" type="line"/>
      <point x="533" y="204" type="line"/>
    </contour>
    <contour>
      <point x="125" y="526" type="line"/>
      <point x="319" y="526" type="line"/>
      <point x="481" y="730" type="line"/>
      <point x="125" y="730" type="line"/>
    </contour>
  </outline>
</glyph>
<glyph name="three" format="2">
  <advance width="800"/>
  <unicode hex="0033"/>
  <outline>
    <contour>
      <point x="15" y="526" type="line"/>
      <point x="551" y="526" type="line"/>
      <point x="551" y="730" type="line"/>
      <point x="217" y="730" type="line"/>
      <point x="15" y="527" type="line"/>
    </contour>
    <contour>
      <point x="217" y="0" type="line"/>
      <point x="551" y="0" type="line"/>
      <point x="551" y="204" type="line"/>
      <point x="15" y="204" type="line"/>
      <point x="15" y="203" type="line"/>
    </contour>
    <contour>
      <point x="116" y="282" type="line"/>
      <point x="551" y="282" type="line"/>
      <point x="551" y="446" type="line"/>
      <point x="116" y="446" type="line"/>
    </contour>
    <contour>
      <point x="551" y="366" type="line"/>
      <point x="765" y="366" type="line"/>
      <point x="765" y="523" type="line"/>
      <point x="552" y="730" type="line"/>
      <point x="551" y="730" type="line"/>
    </contour>
    <contour>
      <point x="551" y="0" type="line"/>
      <point x="552" y="0" type="line"/>
      <point x="765" y="193" type="line"/>
      <point x="765" y="269" type="line"/>
      <point x="552" y="446" type="line"/>
      <point x="551" y="446" type="line"/>
    </contour>
  </outline>
</glyph>
<glyph name="four.color1" format="2">
  <advance width="600"/>
  <unicode hex="0034"/>
  <outline>
    <contour>
      <point x="130" y="173" type="line"/>
      <point x="662" y="729" type="line"/>
      <point x="662" y="730" type="line"/>
      <point x="392" y="730" type="line"/>
      <point x="20" y="368" type="line"/>
    </contour>
  </outline>
</glyph>
<glyph name="four.color2" format="2">
  <advance width="600"/>
  <unicode hex="0034"/>
  <outline>
    <contour>
      <point x="556" y="0" type="line"/>
      <point x="770" y="0" type="line"/>
      <point x="770" y="210" type="line"/>
      <point x="557" y="377" type="line"/>
      <point x="556" y="377" type="line"/>
    </contour>
  </outline>
</glyph>
<glyph name="six.color0" format="2">
  <advance width="600"/>
  <unicode hex="0036"/>
  <outline>
    <contour>
      <point x="237" y="0" type="line"/>
      <point x="571" y="0" type="line"/>
      <point x="571" y="204" type="line"/>
      <point x="35" y="204" type="line"/>
      <point x="35" y="203" type="line"/>
    </contour>
  </outline>
</glyph>
<glyph name="eight.color1" format="2">
  <advance width="600"/>
  <unicode hex="0038"/>
  <outline>
    <contour>
      <point x="239" y="0" type="line"/>
      <point x="561" y="0" type="line"/>
      <point x="561" y="204" type="line"/>
      <point x="239" y="204" type="line"/>
    </contour>
  </outline>
</glyph>
<glyph name="nine.color3" format="2">
  <advance width="600"/>
  <unicode hex="0039"/>
  <outline>
    <contour>
      <point x="218" y="263" type="line"/>
      <point x="219" y="263" type="line"/>
      <point x="219" y="730" type="line"/>
      <point x="218" y="730" type="line"/>
      <point x="5" y="533" type="line"/>
      <point x="5" y="427" type="line"/>
    </contour>
  </outline>
</glyph>
<glyph name="greater.color0" format="2">
  <advance width="600"/>
  <unicode hex="003E"/>
  <outline>
    <contour>
      <point x="43" y="67" type="line"/>
      <point x="330" y="67" type="line"/>
      <point x="672" y="335" type="line"/>
      <point x="672" y="336" type="line"/>
      <point x="384" y="336" type="line"/>
      <point x="43" y="68" type="line"/>
    </contour>
  </outline>
</glyph>
<glyph name="at.color7" format="2">
  <advance width="600"/>
  <unicode hex="0040"/>
  <outline>
    <contour>
      <point x="53" y="606" type="line"/>
      <point x="966" y="606" type="line"/>
      <point x="966" y="630" type="line"/>
      <point x="76" y="630" type="line"/>
      <point x="53" y="607" type="line"/>
    </contour>
  </outline>
</glyph>
<glyph name="at" format="2">
  <advance width="1043"/>
  <unicode hex="0040"/>
  <outline>
    <contour>
      <point x="349" y="326" type="line"/>
      <point x="892" y="326" type="line"/>
      <point x="892" y="327" type="line"/>
      <point x="785" y="530" type="line"/>
      <point x="349" y="530" type="line"/>
    </contour>
    <contour>
      <point x="76" y="-100" type="line"/>
      <point x="77" y="-100" type="line"/>
      <point x="77" y="606" type="line"/>
      <point x="53" y="606" type="line"/>
      <point x="53" y="-77" type="line"/>
    </contour>
    <contour>
      <point x="77" y="-100" type="line"/>
      <point x="967" y="-100" type="line"/>
      <point x="967" y="-76" type="line"/>
      <point x="77" y="-76" type="line"/>
    </contour>
    <contour>
      <point x="242" y="0" type="line"/>
      <point x="678" y="0" type="line"/>
      <point x="678" y="204" type="line"/>
      <point x="135" y="204" type="line"/>
      <point x="135" y="203" type="line"/>
    </contour>
    <contour>
      <point x="135" y="204" type="line"/>
      <point x="349" y="204" type="line"/>
      <point x="349" y="530" type="line"/>
      <point x="348" y="530" type="line"/>
      <point x="135" y="423" type="line"/>
    </contour>
    <contour>
      <point x="892" y="0" type="line"/>
      <point x="892" y="326" type="line"/>
      <point x="678" y="326" type="line"/>
      <point x="678" y="204" type="line"/>
    </contour>
    <contour>
      <point x="892" y="0" type="line"/>
      <point x="967" y="0" type="line"/>
      <point x="990" y="23" type="line"/>
      <point x="990" y="24" type="line"/>
      <point x="892" y="24" type="line"/>
    </contour>
    <contour>
      <point x="53" y="606" type="line"/>
      <point x="966" y="606" type="line"/>
      <point x="966" y="630" type="line"/>
      <point x="76" y="630" type="line"/>
      <point x="53" y="607" type="line"/>
    </contour>
    <contour>
      <point x="966" y="24" type="line"/>
      <point x="990" y="24" type="line"/>
      <point x="990" y="607" type="line"/>
      <point x="967" y="630" type="line"/>
      <point x="966" y="630" type="line"/>
    </contour>
  </outline>
</glyph>
<glyph name="C" format="2">
  <advance width="822"/>
  <unicode hex="0043"/>
  <anchor x="482" y="0" name="bottom"/>
  <anchor x="436" y="730" name="top"/>
  <outline>
    <contour>
      <point x="227" y="0" type="line"/>
      <point x="620" y="0" type="line"/>
      <point x="822" y="203" type="line"/>
      <point x="822" y="204" type="line"/>
      <point x="25" y="204" type="line"/>
      <point x="25" y="203" type="line"/>
    </contour>
    <contour>
      <point x="25" y="204" type="line"/>
      <point x="239" y="204" type="line"/>
      <point x="239" y="730" type="line"/>
      <point x="238" y="730" type="line"/>
      <point x="25" y="523" type="line"/>
    </contour>
    <contour>
      <point x="239" y="526" type="line"/>
      <point x="822" y="526" type="line"/>
      <point x="822" y="527" type="line"/>
      <point x="620" y="730" type="line"/>
      <point x="239" y="730" type="line"/>
    </contour>
  </outline>
</glyph>
<glyph name="F" format="2">
  <advance width="787"/>
  <unicode hex="0046"/>
  <outline>
    <contour>
      <point x="249" y="526" type="line"/>
      <point x="590" y="526" type="line"/>
      <point x="792" y="729" type="line"/>
      <point x="792" y="730" type="line"/>
      <point x="249" y="730" type="line"/>
    </contour>
    <contour>
      <point x="35" y="0" type="line"/>
      <point x="249" y="0" type="line"/>
      <point x="249" y="193" type="line"/>
      <point x="35" y="396" type="line"/>
    </contour>
    <contour>
      <point x="249" y="193" type="line"/>
      <point x="638" y="193" type="line"/>
      <point x="638" y="397" type="line"/>
      <point x="35" y="397" type="line"/>
      <point x="35" y="396" type="line"/>
    </contour>
    <contour>
      <point x="35" y="397" type="line"/>
      <point x="249" y="397" type="line"/>
      <point x="249" y="730" type="line"/>
      <point x="35" y="730" type="line"/>
    </contour>
  </outline>
</glyph>
<glyph name="G.color3" format="2">
  <advance width="600"/>
  <unicode hex="0047"/>
  <outline>
    <contour>
      <point x="298" y="263" type="line"/>
      <point x="688" y="263" type="line"/>
      <point x="688" y="467" type="line"/>
      <point x="298" y="467" type="line"/>
    </contour>
  </outline>
</glyph>
<glyph name="H" format="2">
  <advance width="847"/>
  <unicode hex="0048"/>
  <anchor x="426" y="730" name="top"/>
  <outline>
    <contour>
      <point x="598" y="0" type="line"/>
      <point x="812" y="0" type="line"/>
      <point x="812" y="730" type="line"/>
      <point x="598" y="730" type="line"/>
    </contour>
    <contour>
      <point x="35" y="0" type="line"/>
      <point x="249" y="0" type="line"/>
      <point x="249" y="730" type="line"/>
      <point x="35" y="730" type="line"/>
    </contour>
    <contour>
      <point x="249" y="263" type="line"/>
      <point x="598" y="263" type="line"/>
      <point x="598" y="467" type="line"/>
      <point x="249" y="467" type="line"/>
    </contour>
  </outline>
</glyph>
<glyph name="I" format="2">
  <advance width="657"/>
  <unicode hex="0049"/>
  <anchor x="340" y="0" name="bottom"/>
  <anchor x="341" y="730" name="top"/>
  <outline>
    <contour>
      <point x="246" y="0" type="line"/>
      <point x="298" y="0" type="line"/>
      <point x="460" y="204" type="line"/>
      <point x="460" y="730" type="line"/>
      <point x="408" y="730" type="line"/>
      <point x="246" y="526" type="line"/>
    </contour>
    <contour>
      <point x="25" y="1" type="line"/>
      <point x="245" y="0" type="line"/>
      <point x="246" y="204" type="line"/>
      <point x="25" y="204" type="line"/>
    </contour>
    <contour>
      <point x="298" y="0" type="line"/>
      <point x="632" y="0" type="line"/>
      <point x="632" y="204" type="line"/>
      <point x="460" y="204" type="line"/>
    </contour>
    <contour>
      <point x="25" y="526" type="line"/>
      <point x="246" y="526" type="line"/>
      <point x="408" y="730" type="line"/>
      <point x="25" y="730" type="line"/>
    </contour>
    <contour>
      <point x="460" y="526" type="line"/>
      <point x="631" y="526" type="line"/>
      <point x="631" y="730" type="line"/>
      <point x="460" y="730" type="line"/>
    </contour>
  </outline>
</glyph>
<glyph name="K.color0" format="2">
  <advance width="600"/>
  <unicode hex="004B"/>
  <outline>
    <contour>
      <point x="600" y="0" type="line"/>
      <point x="871" y="0" type="line"/>
      <point x="871" y="1" type="line"/>
      <point x="598" y="373" type="line"/>
      <point x="424" y="250" type="line"/>
    </contour>
  </outline>
</glyph>
<glyph name="P.color3" format="2">
  <advance width="600"/>
  <unicode hex="0050"/>
  <outline>
    <contour>
      <point x="249" y="526" type="line"/>
      <point x="812" y="526" type="line"/>
      <point x="812" y="527" type="line"/>
      <point x="610" y="730" type="line"/>
      <point x="249" y="730" type="line"/>
    </contour>
  </outline>
</glyph>
<glyph name="Q.color0" format="2">
  <advance width="600"/>
  <unicode hex="0051"/>
  <outline>
    <contour>
      <point x="740" y="103" type="line"/>
      <point x="802" y="193" type="line"/>
      <point x="802" y="526" type="line"/>
      <point x="588" y="526" type="line"/>
      <point x="588" y="204" type="line"/>
      <point x="659" y="204" type="line"/>
    </contour>
  </outline>
</glyph>
<glyph name="S.color1" format="2">
  <advance width="600"/>
  <unicode hex="0053"/>
  <outline>
    <contour>
      <point x="227" y="0" type="line"/>
      <point x="578" y="0" type="line"/>
      <point x="578" y="204" type="line"/>
      <point x="25" y="204" type="line"/>
      <point x="25" y="203" type="line"/>
    </contour>
  </outline>
</glyph>
<glyph name="X.color0" format="2">
  <advance width="600"/>
  <unicode hex="0058"/>
  <outline>
    <contour>
      <point x="278" y="365" type="line"/>
      <point x="279" y="365" type="line"/>
      <point x="407" y="543" type="line"/>
      <point x="264" y="730" type="line"/>
      <point x="20" y="730" type="line"/>
      <point x="20" y="729" type="line"/>
    </contour>
  </outline>
</glyph>
<glyph name="Y.color2" format="2">
  <advance width="600"/>
  <unicode hex="0059"/>
  <outline>
    <contour>
      <point x="294" y="285" type="line"/>
      <point x="507" y="285" type="line"/>
      <point x="780" y="729" type="line"/>
      <point x="780" y="730" type="line"/>
      <point x="546" y="730" type="line"/>
    </contour>
  </outline>
</glyph>
<glyph name="Y" format="2">
  <advance width="780"/>
  <unicode hex="0059"/>
  <anchor x="397" y="0" name="bottom"/>
  <anchor x="400" y="730" name="top"/>
  <outline>
    <contour>
      <point x="293" y="285" type="line"/>
      <point x="294" y="285" type="line"/>
      <point x="396" y="467" type="line"/>
      <point x="234" y="730" type="line"/>
      <point x="0" y="730" type="line"/>
      <point x="0" y="729" type="line"/>
    </contour>
    <contour>
      <point x="293" y="0" type="line"/>
      <point x="507" y="0" type="line"/>
      <point x="507" y="285" type="line"/>
      <point x="293" y="285" type="line"/>
    </contour>
    <contour>
      <point x="294" y="285" type="line"/>
      <point x="507" y="285" type="line"/>
      <point x="780" y="729" type="line"/>
      <point x="780" y="730" type="line"/>
      <point x="546" y="730" type="line"/>
    </contour>
  </outline>
</glyph>
<glyph name="Z.color2" format="2">
  <advance width="600"/>
  <unicode hex="005A"/>
  <outline>
    <contour>
      <point x="41" y="0" type="line"/>
      <point x="750" y="0" type="line"/>
      <point x="750" y="204" type="line"/>
      <point x="41" y="204" type="line"/>
    </contour>
  </outline>
</glyph>
<glyph name="bracketright.color1" format="2">
  <advance width="600"/>
  <unicode hex="005D"/>
  <outline>
    <contour>
      <point x="35" y="-100" type="line"/>
      <point x="296" y="-100" type="line"/>
      <point x="296" y="104" type="line"/>
      <point x="35" y="104" type="line"/>
    </contour>
  </outline>
</glyph>
<glyph name="bracketright.color2" format="2">
  <advance width="600"/>
  <unicode hex="005D"/>
  <outline>
    <contour>
      <point x="35" y="526" type="line"/>
      <point x="510" y="526" type="line"/>
      <point x="510" y="730" type="line"/>
      <point x="35" y="730" type="line"/>
    </contour>
  </outline>
</glyph>
<glyph name="b.color0" format="2">
  <advance width="600"/>
  <unicode hex="0062"/>
  <outline>
    <contour>
      <point x="35" y="204" type="line"/>
      <point x="249" y="204" type="line"/>
      <point x="248" y="794" type="line"/>
      <point x="35" y="794" type="line"/>
    </contour>
  </outline>
</glyph>
<glyph name="d.color2" format="2">
  <advance width="600"/>
  <unicode hex="0064"/>
  <outline>
    <contour>
      <point x="147" y="0" type="line"/>
      <point x="569" y="0" type="line"/>
      <point x="569" y="204" type="line"/>
      <point x="45" y="204" type="line"/>
      <point x="45" y="203" type="line"/>
    </contour>
  </outline>
</glyph>
<glyph name="f.color0" format="2">
  <advance width="600"/>
  <unicode hex="0066"/>
  <outline>
    <contour>
      <point x="249" y="173" type="line"/>
      <point x="583" y="173" type="line"/>
      <point x="583" y="377" type="line"/>
      <point x="36" y="377" type="line"/>
    </contour>
  </outline>
</glyph>
<glyph name="f.color1" format="2">
  <advance width="600"/>
  <unicode hex="0066"/>
  <outline>
    <contour>
      <point x="35" y="0" type="line"/>
      <point x="249" y="0" type="line"/>
      <point x="249" y="173" type="line"/>
      <point x="36" y="377" type="line"/>
      <point x="35" y="377" type="line"/>
    </contour>
  </outline>
</glyph>
<glyph name="f.color2" format="2">
  <advance width="600"/>
  <unicode hex="0066"/>
  <outline>
    <contour>
      <point x="35" y="377" type="line"/>
      <point x="249" y="377" type="line"/>
      <point x="249" y="703" type="line"/>
      <point x="248" y="703" type="line"/>
      <point x="35" y="596" type="line"/>
    </contour>
  </outline>
</glyph>
<glyph name="g.color0" format="2">
  <advance width="600"/>
  <unicode hex="0067"/>
  <outline>
    <contour>
      <point x="249" y="326" type="line"/>
      <point x="744" y="326" type="line"/>
      <point x="830" y="529" type="line"/>
      <point x="830" y="530" type="line"/>
      <point x="249" y="530" type="line"/>
    </contour>
  </outline>
</glyph>
<glyph name="h.color0" format="2">
  <advance width="600"/>
  <unicode hex="0068"/>
  <outline>
    <contour>
      <point x="35" y="0" type="line"/>
      <point x="249" y="0" type="line"/>
      <point x="249" y="794" type="line"/>
      <point x="35" y="794" type="line"/>
    </contour>
  </outline>
</glyph>
<glyph name="k.color2" format="2">
  <advance width="600"/>
  <unicode hex="006B"/>
  <outline>
    <contour>
      <point x="249" y="193" type="line"/>
      <point x="772" y="193" type="line"/>
      <point x="772" y="194" type="line"/>
      <point x="665" y="397" type="line"/>
      <point x="249" y="397" type="line"/>
    </contour>
  </outline>
</glyph>
<glyph name="o.color3" format="2">
  <advance width="600"/>
  <unicode hex="006F"/>
  <outline>
    <contour>
      <point x="598" y="0" type="line"/>
      <point x="599" y="0" type="line"/>
      <point x="812" y="107" type="line"/>
      <point x="812" y="326" type="line"/>
      <point x="598" y="326" type="line"/>
    </contour>
  </outline>
</glyph>
<glyph name="p.color1" format="2">
  <advance width="600"/>
  <unicode hex="0070"/>
  <outline>
    <contour>
      <point x="35" y="-200" type="line"/>
      <point x="249" y="-200" type="line"/>
      <point x="249" y="0" type="line"/>
      <point x="36" y="201" type="line"/>
      <point x="35" y="201" type="line"/>
    </contour>
  </outline>
</glyph>
<glyph name="q.color3" format="2">
  <advance width="600"/>
  <unicode hex="0071"/>
  <outline>
    <contour>
      <point x="249" y="326" type="line"/>
      <point x="773" y="326" type="line"/>
      <point x="773" y="327" type="line"/>
      <point x="671" y="530" type="line"/>
      <point x="249" y="530" type="line"/>
    </contour>
  </outline>
</glyph>
<glyph name="t.color3" format="2">
  <advance width="600"/>
  <unicode hex="0074"/>
  <outline>
    <contour>
      <point x="249" y="0" type="line"/>
      <point x="579" y="0" type="line"/>
      <point x="602" y="203" type="line"/>
      <point x="602" y="204" type="line"/>
      <point x="249" y="204" type="line"/>
    </contour>
  </outline>
</glyph>
<glyph name="w.color1" format="2">
  <advance width="600"/>
  <unicode hex="0077"/>
  <outline>
    <contour>
      <point x="142" y="1" type="line"/>
      <point x="498" y="1" type="line"/>
      <point x="498" y="205" type="line"/>
      <point x="35" y="205" type="line"/>
      <point x="35" y="204" type="line"/>
    </contour>
  </outline>
</glyph>
<glyph name="y" format="2">
  <advance width="779"/>
  <unicode hex="0079"/>
  <anchor x="402" y="-200" name="bottom"/>
  <anchor x="422" y="530" name="top"/>
  <outline>
    <contour>
      <point x="530" y="-206" type="line"/>
      <point x="531" y="-206" type="line"/>
      <point x="744" y="-104" type="line"/>
      <point x="744" y="530" type="line"/>
      <point x="530" y="530" type="line"/>
    </contour>
    <contour>
      <point x="137" y="-206" type="line"/>
      <point x="530" y="-206" type="line"/>
      <point x="530" y="-26" type="line"/>
      <point x="35" y="-26" type="line"/>
      <point x="35" y="-27" type="line"/>
    </contour>
    <contour>
      <point x="142" y="0" type="line"/>
      <point x="529" y="0" type="line"/>
      <point x="529" y="204" type="line"/>
      <point x="35" y="204" type="line"/>
      <point x="35" y="203" type="line"/>
    </contour>
    <contour>
      <point x="35" y="204" type="line"/>
      <point x="249" y="204" type="line"/>
      <point x="249" y="536" type="line"/>
      <point x="248" y="536" type="line"/>
      <point x="35" y="489" type="line"/>
    </contour>
  </outline>
</glyph>
<glyph name="braceleft.color1" format="2">
  <advance width="600"/>
  <unicode hex="007B"/>
  <outline>
    <contour>
      <point x="55" y="214" type="line"/>
      <point x="207" y="214" type="line"/>
      <point x="207" y="418" type="line"/>
      <point x="55" y="418" type="line"/>
    </contour>
  </outline>
</glyph>
<glyph name="braceright.color2" format="2">
  <advance width="600"/>
  <unicode hex="007D"/>
  <outline>
    <contour>
      <point x="55" y="526" type="line"/>
      <point x="266" y="526" type="line"/>
      <point x="266" y="730" type="line"/>
      <point x="55" y="730" type="line"/>
    </contour>
  </outline>
</glyph>
<glyph name="cent.color1" format="2">
  <advance width="600"/>
  <unicode hex="00A2"/>
  <outline>
    <contour>
      <point x="335" y="-56" type="line"/>
      <point x="337" y="-56" type="line"/>
      <point x="548" y="-33" type="line"/>
      <point x="548" y="34" type="line"/>
      <point x="337" y="34" type="line"/>
      <point x="335" y="34" type="line"/>
    </contour>
  </outline>
</glyph>
<glyph name="cent.color2" format="2">
  <advance width="600"/>
  <unicode hex="00A2"/>
  <outline>
    <contour>
      <point x="142" y="0" type="line"/>
      <point x="635" y="0" type="line"/>
      <point x="742" y="203" type="line"/>
      <point x="742" y="204" type="line"/>
      <point x="35" y="204" type="line"/>
      <point x="35" y="203" type="line"/>
    </contour>
  </outline>
</glyph>
<glyph name="cent.color4" format="2">
  <advance width="600"/>
  <unicode hex="00A2"/>
  <outline>
    <contour>
      <point x="249" y="326" type="line"/>
      <point x="742" y="326" type="line"/>
      <point x="742" y="327" type="line"/>
      <point x="635" y="530" type="line"/>
      <point x="249" y="530" type="line"/>
    </contour>
  </outline>
</glyph>
<glyph name="cent" format="2">
  <advance width="767"/>
  <unicode hex="00A2"/>
  <anchor x="405" y="0" name="bottom"/>
  <anchor x="422" y="530" name="top"/>
  <outline>
    <contour>
      <point x="335" y="477" type="line"/>
      <point x="547" y="477" type="line"/>
      <point x="548" y="477" type="line"/>
      <point x="547" y="586" type="line"/>
      <point x="545" y="586" type="line"/>
      <point x="334" y="563" type="line"/>
    </contour>
    <contour>
      <point x="335" y="-56" type="line"/>
      <point x="337" y="-56" type="line"/>
      <point x="548" y="-33" type="line"/>
      <point x="548" y="34" type="line"/>
      <point x="337" y="34" type="line"/>
      <point x="335" y="34" type="line"/>
    </contour>
    <contour>
      <point x="142" y="0" type="line"/>
      <point x="635" y="0" type="line"/>
      <point x="742" y="203" type="line"/>
      <point x="742" y="204" type="line"/>
      <point x="35" y="204" type="line"/>
      <point x="35" y="203" type="line"/>
    </contour>
    <contour>
      <point x="35" y="204" type="line"/>
      <point x="249" y="204" type="line"/>
      <point x="249" y="530" type="line"/>
      <point x="248" y="530" type="line"/>
      <point x="35" y="423" type="line"/>
    </contour>
    <contour>
      <point x="249" y="326" type="line"/>
      <point x="742" y="326" type="line"/>
      <point x="742" y="327" type="line"/>
      <point x="635" y="530" type="line"/>
      <point x="249" y="530" type="line"/>
    </contour>
  </outline>
</glyph>
<glyph name="sterling.color3" format="2">
  <advance width="600"/>
  <unicode hex="00A3"/>
  <outline>
    <contour>
      <point x="349" y="526" type="line"/>
      <point x="942" y="526" type="line"/>
      <point x="942" y="527" type="line"/>
      <point x="740" y="730" type="line"/>
      <point x="349" y="730" type="line"/>
    </contour>
  </outline>
</glyph>
<glyph name="currency.color7" format="2">
  <advance width="600"/>
  <unicode hex="00A4"/>
  <outline>
    <contour>
      <point x="942" y="376" type="line"/>
      <point x="1082" y="461" type="line"/>
      <point x="955" y="665" type="line"/>
      <point x="815" y="580" type="line"/>
    </contour>
  </outline>
</glyph>
<glyph name="yen.color4" format="2">
  <advance width="600"/>
  <unicode hex="00A5"/>
  <outline>
    <contour>
      <point x="294" y="285" type="line"/>
      <point x="507" y="285" type="line"/>
      <point x="780" y="729" type="line"/>
      <point x="780" y="730" type="line"/>
      <point x="546" y="730" type="line"/>
    </contour>
  </outline>
</glyph>
<glyph name="section.color0" format="2">
  <advance width="600"/>
  <unicode hex="00A7"/>
  <outline>
    <contour>
      <point x="224" y="163" type="line"/>
      <point x="407" y="428" type="line"/>
      <point x="204" y="519" type="line"/>
      <point x="145" y="433" type="line"/>
    </contour>
  </outline>
</glyph>
<glyph name="section.color1" format="2">
  <advance width="600"/>
  <unicode hex="00A7"/>
  <outline>
    <contour>
      <point x="590" y="116" type="line"/>
      <point x="676" y="250" type="line"/>
      <point x="510" y="377" type="line"/>
      <point x="434" y="264" type="line"/>
    </contour>
  </outline>
</glyph>
<glyph name="section.color2" format="2">
  <advance width="600"/>
  <unicode hex="00A7"/>
  <outline>
    <contour>
      <point x="233" y="-56" type="line"/>
      <point x="635" y="-56" type="line"/>
      <point x="609" y="148" type="line"/>
      <point x="31" y="148" type="line"/>
      <point x="31" y="147" type="line"/>
    </contour>
  </outline>
</glyph>
<glyph name="plusminus.color0" format="2">
  <advance width="600"/>
  <unicode hex="00B1"/>
  <outline>
    <contour>
      <point x="25" y="18" type="line"/>
      <point x="668" y="19" type="line"/>
      <point x="668" y="222" type="line"/>
      <point x="25" y="222" type="line"/>
    </contour>
  </outline>
</glyph>
<glyph name="twosuperior.color2" format="2">
  <advance width="600"/>
  <unicode hex="00B2"/>
  <outline>
    <contour>
      <point x="31" y="474" type="line"/>
      <point x="415" y="474" type="line"/>
      <point x="415" y="608" type="line"/>
      <point x="31" y="608" type="line"/>
    </contour>
  </outline>
</glyph>
<glyph name="twosuperior" format="2">
  <advance width="440"/>
  <unicode hex="00B2"/>
  <outline>
    <contour>
      <point x="25" y="660" type="line"/>
      <point x="323" y="660" type="line"/>
      <point x="319" y="794" type="line"/>
      <point x="107" y="794" type="line"/>
      <point x="25" y="661" type="line"/>
    </contour>
    <contour>
      <point x="111" y="503" type="line"/>
      <point x="399" y="689" type="line"/>
      <point x="319" y="794" type="line"/>
      <point x="31" y="609" type="line"/>
      <point x="31" y="608" type="line"/>
    </contour>
    <contour>
      <point x="31" y="474" type="line"/>
      <point x="415" y="474" type="line"/>
      <point x="415" y="608" type="line"/>
      <point x="31" y="608" type="line"/>
    </contour>
  </outline>
</glyph>
<glyph name="micro.color2" format="2">
  <advance width="600"/>
  <unicode hex="00B5"/>
  <outline>
    <contour>
      <point x="605" y="0" type="line"/>
      <point x="802" y="0" type="line"/>
      <point x="802" y="204" type="line"/>
      <point x="478" y="203" type="line"/>
    </contour>
  </outline>
</glyph>
<glyph name="paragraph" format="2">
  <advance width="1043"/>
  <unicode hex="00B6"/>
  <outline>
    <contour>
      <point x="279" y="526" type="line"/>
      <point x="948" y="526" type="line"/>
      <point x="948" y="730" type="line"/>
      <point x="279" y="730" type="line"/>
    </contour>
    <contour>
      <point x="267" y="173" type="line"/>
      <point x="474" y="173" type="line"/>
      <point x="474" y="377" type="line"/>
      <point x="65" y="377" type="line"/>
      <point x="65" y="376" type="line"/>
    </contour>
    <contour>
      <point x="65" y="377" type="line"/>
      <point x="279" y="377" type="line"/>
      <point x="279" y="730" type="line"/>
      <point x="278" y="730" type="line"/>
      <point x="65" y="533" type="line"/>
    </contour>
    <contour>
      <point x="474" y="0" type="line"/>
      <point x="688" y="0" type="line"/>
      <point x="688" y="526" type="line"/>
      <point x="474" y="526" type="line"/>
    </contour>
    <contour>
      <point x="734" y="0" type="line"/>
      <point x="948" y="0" type="line"/>
      <point x="948" y="526" type="line"/>
      <point x="734" y="526" type="line"/>
    </contour>
  </outline>
</glyph>
<glyph name="periodcentered" format="2">
  <advance width="282"/>
  <unicode hex="00B7"/>
  <outline>
    <contour>
      <point x="35" y="173" type="line"/>
      <point x="267" y="173" type="line"/>
      <point x="267" y="377" type="line"/>
      <point x="35" y="377" type="line"/>
    </contour>
  </outline>
</glyph>
<glyph name="onequarter.color1" format="2">
  <advance width="600"/>
  <unicode hex="00BC"/>
  <outline>
    <contour>
      <point x="25" y="470" type="line"/>
      <point x="178" y="470" type="line"/>
      <point x="178" y="604" type="line"/>
      <point x="25" y="604" type="line"/>
    </contour>
  </outline>
</glyph>
<glyph name="onehalf.color0" format="2">
  <advance width="600"/>
  <unicode hex="00BD"/>
  <outline>
    <contour>
      <point x="178" y="470" type="line"/>
      <point x="231" y="470" type="line"/>
      <point x="333" y="604" type="line"/>
      <point x="333" y="794" type="line"/>
      <point x="281" y="794" type="line"/>
      <point x="179" y="660" type="line"/>
    </contour>
  </outline>
</glyph>
<glyph name="questiondown.color0" format="2">
  <advance width="600"/>
  <unicode hex="00BF"/>
  <outline>
    <contour>
      <point x="279" y="-30" type="line"/>
      <point x="660" y="-30" type="line"/>
      <point x="862" y="173" type="line"/>
      <point x="862" y="174" type="line"/>
      <point x="279" y="174" type="line"/>
    </contour>
  </outline>
</glyph>
<glyph name="questiondown" format="2">
  <advance width="907"/>
  <unicode hex="00BF"/>
  <outline>
    <contour>
      <point x="279" y="-30" type="line"/>
      <point x="660" y="-30" type="line"/>
      <point x="862" y="173" type="line"/>
      <point x="862" y="174" type="line"/>
      <point x="279" y="174" type="line"/>
    </contour>
    <contour>
      <point x="55" y="234" type="line"/>
      <point x="458" y="234" type="line"/>
      <point x="458" y="398" type="line"/>
      <point x="257" y="398" type="line"/>
      <point x="55" y="235" type="line"/>
    </contour>
    <contour>
      <point x="278" y="-30" type="line"/>
      <point x="279" y="-30" type="line"/>
      <point x="279" y="234" type="line"/>
      <point x="55" y="234" type="line"/>
      <point x="55" y="177" type="line"/>
    </contour>
    <contour>
      <point x="458" y="234" type="line"/>
      <point x="459" y="234" type="line"/>
      <point x="672" y="431" type="line"/>
      <point x="672" y="468" type="line"/>
      <point x="458" y="468" type="line"/>
    </contour>
    <contour>
      <point x="459" y="496" type="line"/>
      <point x="691" y="496" type="line"/>
      <point x="691" y="700" type="line"/>
      <point x="459" y="700" type="line"/>
    </contour>
  </outline>
</glyph>
<glyph name="Agrave" format="2">
  <advance width="847"/>
  <unicode hex="00C0"/>
  <anchor x="462" y="0" name="bottom"/>
  <anchor x="446" y="730" name="top"/>
  <outline>
    <contour>
      <point x="35" y="0" type="line"/>
      <point x="249" y="0" type="line"/>
      <point x="249" y="730" type="line"/>
      <point x="248" y="730" type="line"/>
      <point x="35" y="523" type="line"/>
    </contour>
    <contour>
      <point x="249" y="193" type="line"/>
      <point x="598" y="193" type="line"/>
      <point x="598" y="397" type="line"/>
      <point x="249" y="397" type="line"/>
    </contour>
    <contour>
      <point x="598" y="0" type="line"/>
      <point x="812" y="0" type="line"/>
      <point x="812" y="526" type="line"/>
      <point x="599" y="526" type="line"/>
      <point x="598" y="526" type="line"/>
    </contour>
    <contour>
      <point x="249" y="526" type="line"/>
      <point x="812" y="526" type="line"/>
      <point x="812" y="527" type="line"/>
      <point x="650" y="730" type="line"/>
      <point x="249" y="730" type="line"/>
    </contour>
    <contour>
      <point x="399" y="760" type="line"/>
      <point x="525" y="760" type="line"/>
      <point x="490" y="900" type="line"/>
      <point x="284" y="900" type="line"/>
      <point x="284" y="899" type="line"/>
    </contour>
  </outline>
</glyph>
<glyph name="Acircumflex.color4" format="2">
  <advance width="600"/>
  <unicode hex="00C2"/>
  <outline>
    <contour>
      <point x="529" y="760" type="line"/>
      <point x="686" y="760" type="line"/>
      <point x="686" y="761" type="line"/>
      <point x="528" y="900" type="line"/>
      <point x="395" y="867" type="line"/>
    </contour>
  </outline>
</glyph>
<glyph name="Aring.color4" format="2">
  <advance width="600"/>
  <unicode hex="00C5"/>
  <outline>
    <contour>
      <point x="508" y="730" type="line"/>
      <point x="508" y="730" type="line"/>
      <point x="604" y="786" type="line"/>
      <point x="604" y="864" type="line"/>
      <point x="508" y="864" type="line"/>
    </contour>
  </outline>
</glyph>
<glyph name="AE.color2" format="2">
  <advance width="600"/>
  <unicode hex="00C6"/>
  <outline>
    <contour>
      <point x="760" y="0" type="line"/>
      <point x="1245" y="0" type="line"/>
      <point x="1245" y="204" type="line"/>
      <point x="558" y="204" type="line"/>
      <point x="558" y="203" type="line"/>
    </contour>
  </outline>
</glyph>
<glyph name="Ccedilla.color0" format="2">
  <advance width="600"/>
  <unicode hex="00C7"/>
  <outline>
    <contour>
      <point x="227" y="0" type="line"/>
      <point x="620" y="0" type="line"/>
      <point x="822" y="203" type="line"/>
      <point x="822" y="204" type="line"/>
      <point x="25" y="204" type="line"/>
      <point x="25" y="203" type="line"/>
    </contour>
  </outline>
</glyph>
<glyph name="Ccedilla.color6" format="2">
  <advance width="600"/>
  <unicode hex="00C7"/>
  <outline>
    <contour>
      <point x="461" y="-126" type="line"/>
      <point x="611" y="-126" type="line"/>
      <point x="611" y="-125" type="line"/>
      <point x="541" y="-32" type="line"/>
      <point x="507" y="-32" type="line"/>
    </contour>
  </outline>
</glyph>
<glyph name="Egrave.color4" format="2">
  <advance width="600"/>
  <unicode hex="00C8"/>
  <outline>
    <contour>
      <point x="379" y="760" type="line"/>
      <point x="505" y="760" type="line"/>
      <point x="470" y="900" type="line"/>
      <point x="264" y="900" type="line"/>
      <point x="264" y="899" type="line"/>
    </contour>
  </outline>
</glyph>
<glyph name="Ecircumflex" format="2">
  <advance width="792"/>
  <unicode hex="00CA"/>
  <anchor x="462" y="0" name="bottom"/>
  <anchor x="426" y="730" name="top"/>
  <outline>
    <contour>
      <point x="237" y="0" type="line"/>
      <point x="761" y="0" type="line"/>
      <point x="761" y="204" type="line"/>
      <point x="35" y="204" type="line"/>
      <point x="35" y="203" type="line"/>
    </contour>
    <contour>
      <point x="35" y="204" type="line"/>
      <point x="249" y="204" type="line"/>
      <point x="249" y="730" type="line"/>
      <point x="35" y="730" type="line"/>
    </contour>
    <contour>
      <point x="249" y="283" type="line"/>
      <point x="658" y="283" type="line"/>
      <point x="658" y="447" type="line"/>
      <point x="249" y="447" type="line"/>
    </contour>
    <contour>
      <point x="249" y="526" type="line"/>
      <point x="610" y="526" type="line"/>
      <point x="812" y="729" type="line"/>
      <point x="812" y="730" type="line"/>
      <point x="249" y="730" type="line"/>
    </contour>
    <contour>
      <point x="509" y="760" type="line"/>
      <point x="666" y="760" type="line"/>
      <point x="666" y="761" type="line"/>
      <point x="508" y="900" type="line"/>
      <point x="375" y="867" type="line"/>
    </contour>
    <contour>
      <point x="200" y="760" type="line"/>
      <point x="354" y="760" type="line"/>
      <point x="508" y="900" type="line"/>
      <point x="354" y="900" type="line"/>
      <point x="200" y="761" type="line"/>
    </contour>
  </outline>
</glyph>
<glyph name="Icircumflex.color5" format="2">
  <advance width="600"/>
  <unicode hex="00CE"/>
  <outline>
    <contour>
      <point x="424" y="760" type="line"/>
      <point x="581" y="760" type="line"/>
      <point x="581" y="761" type="line"/>
      <point x="423" y="900" type="line"/>
      <point x="290" y="867" type="line"/>
    </contour>
  </outline>
</glyph>
<glyph name="Icircumflex.color6" format="2">
  <advance width="600"/>
  <unicode hex="00CE"/>
  <outline>
    <contour>
      <point x="115" y="760" type="line"/>
      <point x="269" y="760" type="line"/>
      <point x="423" y="900" type="line"/>
      <point x="269" y="900" type="line"/>
      <point x="115" y="761" type="line"/>
    </contour>
  </outline>
</glyph>
<glyph name="Icircumflex" format="2">
  <advance width="657"/>
  <unicode hex="00CE"/>
  <anchor x="340" y="0" name="bottom"/>
  <anchor x="341" y="730" name="top"/>
  <outline>
    <contour>
      <point x="246" y="0" type="line"/>
      <point x="298" y="0" type="line"/>
      <point x="460" y="204" type="line"/>
      <point x="460" y="730" type="line"/>
      <point x="408" y="730" type="line"/>
      <point x="246" y="526" type="line"/>
    </contour>
    <contour>
      <point x="25" y="1" type="line"/>
      <point x="245" y="0" type="line"/>
      <point x="246" y="204" type="line"/>
      <point x="25" y="204" type="line"/>
    </contour>
    <contour>
      <point x="298" y="0" type="line"/>
      <point x="632" y="0" type="line"/>
      <point x="632" y="204" type="line"/>
      <point x="460" y="204" type="line"/>
    </contour>
    <contour>
      <point x="25" y="526" type="line"/>
      <point x="246" y="526" type="line"/>
      <point x="408" y="730" type="line"/>
      <point x="25" y="730" type="line"/>
    </contour>
    <contour>
      <point x="460" y="526" type="line"/>
      <point x="631" y="526" type="line"/>
      <point x="631" y="730" type="line"/>
      <point x="460" y="730" type="line"/>
    </contour>
    <contour>
      <point x="424" y="760" type="line"/>
      <point x="581" y="760" type="line"/>
      <point x="581" y="761" type="line"/>
      <point x="423" y="900" type="line"/>
      <point x="290" y="867" type="line"/>
    </contour>
    <contour>
      <point x="115" y="760" type="line"/>
      <point x="269" y="760" type="line"/>
      <point x="423" y="900" type="line"/>
      <point x="269" y="900" type="line"/>
      <point x="115" y="761" type="line"/>
    </contour>
  </outline>
</glyph>
<glyph name="Eth.color2" format="2">
  <advance width="600"/>
  <unicode hex="00D0"/>
  <outline>
    <contour>
      <point x="81" y="-4" type="line"/>
      <point x="674" y="-4" type="line"/>
      <point x="674" y="200" type="line"/>
      <point x="81" y="200" type="line"/>
    </contour>
  </outline>
</glyph>
<glyph name="Eth.color4" format="2">
  <advance width="600"/>
  <unicode hex="00D0"/>
  <outline>
    <contour>
      <point x="674" y="-4" type="line"/>
      <point x="675" y="-4" type="line"/>
      <point x="888" y="193" type="line"/>
      <point x="888" y="526" type="line"/>
      <point x="674" y="526" type="line"/>
    </contour>
  </outline>
</glyph>
<glyph name="Ocircumflex.color5" format="2">
  <advance width="600"/>
  <unicode hex="00D4"/>
  <outline>
    <contour>
      <point x="210" y="760" type="line"/>
      <point x="364" y="760" type="line"/>
      <point x="518" y="900" type="line"/>
      <point x="364" y="900" type="line"/>
      <point x="210" y="761" type="line"/>
    </contour>
  </outline>
</glyph>
<glyph name="Odieresis.color1" format="2">
  <advance width="600"/>
  <unicode hex="00D6"/>
  <outline>
    <contour>
      <point x="227" y="0" type="line"/>
      <point x="588" y="0" type="line"/>
      <point x="588" y="204" type="line"/>
      <point x="25" y="204" type="line"/>
      <point x="25" y="203" type="line"/>
    </contour>
  </outline>
</glyph>
<glyph name="Odieresis.color4" format="2">
  <advance width="600"/>
  <unicode hex="00D6"/>
  <outline>
    <contour>
      <point x="488" y="788" type="line"/>
      <point x="634" y="788" type="line"/>
      <point x="634" y="900" type="line"/>
      <point x="488" y="900" type="line"/>
    </contour>
  </outline>
</glyph>
<glyph name="Oslash" format="2">
  <advance width="850"/>
  <unicode hex="00D8"/>
  <anchor x="478" y="730" name="top"/>
  <outline>
    <contour>
      <point x="42" y="0" type="line"/>
      <point x="155" y="0" type="line"/>
      <point x="825" y="729" type="line"/>
      <point x="825" y="730" type="line"/>
      <point x="712" y="730" type="line"/>
      <point x="42" y="2" type="line"/>
    </contour>
    <contour>
      <point x="227" y="0" type="line"/>
      <point x="588" y="0" type="line"/>
      <point x="588" y="204" type="line"/>
      <point x="25" y="204" type="line"/>
      <point x="25" y="203" type="line"/>
    </contour>
    <contour>
      <point x="25" y="204" type="line"/>
      <point x="239" y="204" type="line"/>
      <point x="239" y="730" type="line"/>
      <point x="238" y="730" type="line"/>
      <point x="25" y="523" type="line"/>
    </contour>
    <contour>
      <point x="588" y="0" type="line"/>
      <point x="589" y="0" type="line"/>
      <point x="802" y="197" type="line"/>
      <point x="802" y="526" type="line"/>
      <point x="588" y="526" type="line"/>
    </contour>
    <contour>
      <point x="239" y="526" type="line"/>
      <point x="802" y="526" type="line"/>
      <point x="802" y="527" type="line"/>
      <point x="640" y="730" type="line"/>
      <point x="239" y="730" type="line"/>
    </contour>
  </outline>
</glyph>
<glyph name="Ugrave.color3" format="2">
  <advance width="600"/>
  <unicode hex="00D9"/>
  <outline>
    <contour>
      <point x="389" y="760" type="line"/>
      <point x="515" y="760" type="line"/>
      <point x="480" y="900" type="line"/>
      <point x="274" y="900" type="line"/>
      <point x="274" y="899" type="line"/>
    </contour>
  </outline>
</glyph>
<glyph name="Ucircumflex" format="2">
  <advance width="837"/>
  <unicode hex="00DB"/>
  <anchor x="442" y="0" name="bottom"/>
  <anchor x="811" y="730" name="horn"/>
  <anchor x="436" y="730" name="top"/>
  <outline>
    <contour>
      <point x="588" y="0" type="line"/>
      <point x="589" y="0" type="line"/>
      <point x="802" y="207" type="line"/>
      <point x="802" y="730" type="line"/>
      <point x="588" y="730" type="line"/>
    </contour>
    <contour>
      <point x="237" y="0" type="line"/>
      <point x="588" y="0" type="line"/>
      <point x="588" y="204" type="line"/>
      <point x="35" y="204" type="line"/>
      <point x="35" y="203" type="line"/>
    </contour>
    <contour>
      <point x="35" y="204" type="line"/>
      <point x="249" y="204" type="line"/>
      <point x="249" y="730" type="line"/>
      <point x="35" y="730" type="line"/>
    </contour>
    <contour>
      <point x="519" y="760" type="line"/>
      <point x="676" y="760" type="line"/>
      <point x="676" y="761" type="line"/>
      <point x="518" y="900" type="line"/>
      <point x="385" y="867" type="line"/>
    </contour>
    <contour>
      <point x="210" y="760" type="line"/>
      <point x="364" y="760" type="line"/>
      <point x="518" y="900" type="line"/>
      <point x="364" y="900" type="line"/>
      <point x="210" y="761" type="line"/>
    </contour>
  </outline>
</glyph>
<glyph name="Thorn.color1" format="2">
  <advance width="600"/>
  <unicode hex="00DE"/>
  <outline>
    <contour>
      <point x="239" y="93" type="line"/>
      <point x="588" y="93" type="line"/>
      <point x="588" y="297" type="line"/>
      <point x="239" y="297" type="line"/>
    </contour>
  </outline>
</glyph>
<glyph name="Thorn.color3" format="2">
  <advance width="600"/>
  <unicode hex="00DE"/>
  <outline>
    <contour>
      <point x="239" y="446" type="line"/>
      <point x="802" y="446" type="line"/>
      <point x="802" y="447" type="line"/>
      <point x="640" y="650" type="line"/>
      <point x="239" y="650" type="line"/>
    </contour>
  </outline>
</glyph>
<glyph name="germandbls.color2" format="2">
  <advance width="600"/>
  <unicode hex="00DF"/>
  <outline>
    <contour>
      <point x="239" y="596" type="line"/>
      <point x="374" y="596" type="line"/>
      <point x="374" y="800" type="line"/>
      <point x="239" y="800" type="line"/>
    </contour>
  </outline>
</glyph>
<glyph name="germandbls.color5" format="2">
  <advance width="600"/>
  <unicode hex="00DF"/>
  <outline>
    <contour>
      <point x="588" y="0" type="line"/>
      <point x="589" y="0" type="line"/>
      <point x="802" y="193" type="line"/>
      <point x="802" y="314" type="line"/>
      <point x="589" y="507" type="line"/>
      <point x="588" y="507" type="line"/>
    </contour>
  </outline>
</glyph>
<glyph name="germandbls" format="2">
  <advance width="827"/>
  <unicode hex="00DF"/>
  <outline>
    <contour>
      <point x="25" y="-200" type="line"/>
      <point x="239" y="-200" type="line"/>
      <point x="239" y="800" type="line"/>
      <point x="238" y="800" type="line"/>
      <point x="25" y="693" type="line"/>
    </contour>
    <contour>
      <point x="293" y="0" type="line"/>
      <point x="588" y="0" type="line"/>
      <point x="588" y="204" type="line"/>
      <point x="375" y="204" type="line"/>
    </contour>
    <contour>
      <point x="239" y="596" type="line"/>
      <point x="374" y="596" type="line"/>
      <point x="374" y="800" type="line"/>
      <point x="239" y="800" type="line"/>
    </contour>
    <contour>
      <point x="588" y="416" type="line"/>
      <point x="588" y="603" type="line"/>
      <point x="375" y="800" type="line"/>
      <point x="374" y="800" type="line"/>
      <point x="374" y="507" type="line"/>
    </contour>
    <contour>
      <point x="487" y="273" type="line"/>
      <point x="588" y="273" type="line"/>
      <point x="588" y="507" type="line"/>
      <point x="374" y="507" type="line"/>
      <point x="374" y="506" type="line"/>
    </contour>
    <contour>
      <point x="588" y="0" type="line"/>
      <point x="589" y="0" type="line"/>
      <point x="802" y="193" type="line"/>
      <point x="802" y="314" type="line"/>
      <point x="589" y="507" type="line"/>
      <point x="588" y="507" type="line"/>
    </contour>
  </outline>
</glyph>
<glyph name="acircumflex.color4" format="2">
  <advance width="600"/>
  <unicode hex="00E2"/>
  <outline>
    <contour>
      <point x="495" y="592" type="line"/>
      <point x="652" y="592" type="line"/>
      <point x="652" y="593" type="line"/>
      <point x="514" y="770" type="line"/>
      <point x="391" y="739" type="line"/>
    </contour>
  </outline>
</glyph>
<glyph name="atilde.color4" format="2">
  <advance width="600"/>
  <unicode hex="00E3"/>
  <outline>
    <contour>
      <point x="244" y="611" type="line"/>
      <point x="364" y="611" type="line"/>
      <point x="364" y="713" type="line"/>
      <point x="244" y="732" type="line"/>
    </contour>
  </outline>
</glyph>
<glyph name="adieresis.color4" format="2">
  <advance width="600"/>
  <unicode hex="00E4"/>
  <outline>
    <contour>
      <point x="478" y="640" type="line"/>
      <point x="654" y="640" type="line"/>
      <point x="654" y="772" type="line"/>
      <point x="478" y="772" type="line"/>
    </contour>
  </outline>
</glyph>
<glyph name="adieresis" format="2">
  <advance width="827"/>
  <unicode hex="00E4"/>
  <anchor x="441" y="0" name="bottom"/>
  <anchor x="452" y="750" name="top"/>
  <outline>
    <contour>
      <point x="249" y="326" type="line"/>
      <point x="792" y="326" type="line"/>
      <point x="792" y="327" type="line"/>
      <point x="685" y="530" type="line"/>
      <point x="249" y="530" type="line"/>
    </contour>
    <contour>
      <point x="142" y="0" type="line"/>
      <point x="578" y="0" type="line"/>
      <point x="578" y="204" type="line"/>
      <point x="35" y="204" type="line"/>
      <point x="35" y="203" type="line"/>
    </contour>
    <contour>
      <point x="35" y="204" type="line"/>
      <point x="249" y="204" type="line"/>
      <point x="249" y="530" type="line"/>
      <point x="248" y="530" type="line"/>
      <point x="35" y="423" type="line"/>
    </contour>
    <contour>
      <point x="578" y="0" type="line"/>
      <point x="792" y="0" type="line"/>
      <point x="792" y="326" type="line"/>
      <point x="578" y="326" type="line"/>
    </contour>
    <contour>
      <point x="478" y="640" type="line"/>
      <point x="654" y="640" type="line"/>
      <point x="654" y="772" type="line"/>
      <point x="478" y="772" type="line"/>
    </contour>
    <contour>
      <point x="230" y="640" type="line"/>
      <point x="406" y="640" type="line"/>
      <point x="406" y="772" type="line"/>
      <point x="230" y="772" type="line"/>
    </contour>
  </outline>
</glyph>
<glyph name="aring.color6" format="2">
  <advance width="600"/>
  <unicode hex="00E5"/>
  <outline>
    <contour>
      <point x="284" y="684" type="line"/>
      <point x="380" y="684" type="line"/>
      <point x="380" y="820" type="line"/>
      <point x="379" y="820" type="line"/>
      <point x="284" y="758" type="line"/>
    </contour>
  </outline>
</glyph>
<glyph name="ae.color2" format="2">
  <advance width="600"/>
  <unicode hex="00E6"/>
  <outline>
    <contour>
      <point x="45" y="204" type="line"/>
      <point x="259" y="204" type="line"/>
      <point x="259" y="530" type="line"/>
      <point x="258" y="530" type="line"/>
      <point x="45" y="423" type="line"/>
    </contour>
  </outline>
</glyph>
<glyph name="ae.color6" format="2">
  <advance width="600"/>
  <unicode hex="00E6"/>
  <outline>
    <contour>
      <point x="802" y="220" type="line"/>
      <point x="1141" y="221" type="line"/>
      <point x="1141" y="331" type="line"/>
      <point x="802" y="331" type="line"/>
    </contour>
  </outline>
</glyph>
<glyph name="ccedilla.color3" format="2">
  <advance width="600"/>
  <unicode hex="00E7"/>
  <outline>
    <contour>
      <point x="273" y="-126" type="line"/>
      <point x="389" y="-126" type="line"/>
      <point x="455" y="-1" type="line"/>
      <point x="455" y="0" type="line"/>
      <point x="350" y="0" type="line"/>
      <point x="273" y="-125" type="line"/>
    </contour>
  </outline>
</glyph>
<glyph name="ccedilla.color6" format="2">
  <advance width="600"/>
  <unicode hex="00E7"/>
  <outline>
    <contour>
      <point x="389" y="-126" type="line"/>
      <point x="539" y="-126" type="line"/>
      <point x="539" y="-125" type="line"/>
      <point x="469" y="-32" type="line"/>
      <point x="435" y="-32" type="line"/>
    </contour>
  </outline>
</glyph>
<glyph name="egrave.color3" format="2">
  <advance width="600"/>
  <unicode hex="00E8"/>
  <outline>
    <contour>
      <point x="259" y="351" type="line"/>
      <point x="812" y="351" type="line"/>
      <point x="812" y="352" type="line"/>
      <point x="705" y="530" type="line"/>
      <point x="259" y="530" type="line"/>
    </contour>
  </outline>
</glyph>
<glyph name="edieresis.color6" format="2">
  <advance width="600"/>
  <unicode hex="00EB"/>
  <outline>
    <contour>
      <point x="220" y="640" type="line"/>
      <point x="396" y="640" type="line"/>
      <point x="396" y="772" type="line"/>
      <point x="220" y="772" type="line"/>
    </contour>
  </outline>
</glyph>
<glyph name="edieresis" format="2">
  <advance width="837"/>
  <unicode hex="00EB"/>
  <anchor x="431" y="0" name="bottom"/>
  <anchor x="442" y="750" name="top"/>
  <outline>
    <contour>
      <point x="152" y="0" type="line"/>
      <point x="705" y="0" type="line"/>
      <point x="812" y="199" type="line"/>
      <point x="812" y="200" type="line"/>
      <point x="45" y="200" type="line"/>
      <point x="45" y="199" type="line"/>
    </contour>
    <contour>
      <point x="45" y="200" type="line"/>
      <point x="259" y="200" type="line"/>
      <point x="259" y="530" type="line"/>
      <point x="258" y="530" type="line"/>
      <point x="45" y="423" type="line"/>
    </contour>
    <contour>
      <point x="259" y="220" type="line"/>
      <point x="598" y="221" type="line"/>
      <point x="598" y="331" type="line"/>
      <point x="259" y="331" type="line"/>
    </contour>
    <contour>
      <point x="259" y="351" type="line"/>
      <point x="812" y="351" type="line"/>
      <point x="812" y="352" type="line"/>
      <point x="705" y="530" type="line"/>
      <point x="259" y="530" type="line"/>
    </contour>
    <contour>
      <point x="598" y="221" type="line"/>
      <point x="599" y="221" type="line"/>
      <point x="812" y="328" type="line"/>
      <point x="812" y="351" type="line"/>
      <point x="598" y="351" type="line"/>
    </contour>
    <contour>
      <point x="468" y="640" type="line"/>
      <point x="644" y="640" type="line"/>
      <point x="644" y="772" type="line"/>
      <point x="468" y="772" type="line"/>
    </contour>
    <contour>
      <point x="220" y="640" type="line"/>
      <point x="396" y="640" type="line"/>
      <point x="396" y="772" type="line"/>
      <point x="220" y="772" type="line"/>
    </contour>
  </outline>
</glyph>
<glyph name="iacute.color1" format="2">
  <advance width="600"/>
  <unicode hex="00ED"/>
  <outline>
    <contour>
      <point x="86" y="590" type="line"/>
      <point x="192" y="590" type="line"/>
      <point x="297" y="819" type="line"/>
      <point x="297" y="820" type="line"/>
      <point x="121" y="820" type="line"/>
    </contour>
  </outline>
</glyph>
<glyph name="icircumflex.color2" format="2">
  <advance width="600"/>
  <unicode hex="00EE"/>
  <outline>
    <contour>
      <point x="-67" y="592" type="line"/>
      <point x="87" y="592" type="line"/>
      <point x="221" y="770" type="line"/>
      <point x="77" y="770" type="line"/>
      <point x="-67" y="593" type="line"/>
    </contour>
  </outline>
</glyph>
<glyph name="icircumflex" format="2">
  <advance width="304"/>
  <unicode hex="00EE"/>
  <anchor x="151" y="0" name="bottom"/>
  <anchor x="161" y="750" name="top"/>
  <outline>
    <contour>
      <point x="45" y="0" type="line"/>
      <point x="259" y="0" type="line"/>
      <point x="259" y="503" type="line"/>
      <point x="258" y="530" type="line"/>
      <point x="45" y="530" type="line"/>
    </contour>
    <contour>
      <point x="202" y="592" type="line"/>
      <point x="359" y="592" type="line"/>
      <point x="359" y="593" type="line"/>
      <point x="221" y="770" type="line"/>
      <point x="98" y="739" type="line"/>
    </contour>
    <contour>
      <point x="-67" y="592" type="line"/>
      <point x="87" y="592" type="line"/>
      <point x="221" y="770" type="line"/>
      <point x="77" y="770" type="line"/>
      <point x="-67" y="593" type="line"/>
    </contour>
  </outline>
</glyph>
<glyph name="idieresis.color1" format="2">
  <advance width="600"/>
  <unicode hex="00EF"/>
  <outline>
    <contour>
      <point x="56" y="0" type="line"/>
      <point x="270" y="0" type="line"/>
      <point x="270" y="503" type="line"/>
      <point x="269" y="530" type="line"/>
      <point x="56" y="530" type="line"/>
    </contour>
  </outline>
</glyph>
<glyph name="eth.color0" format="2">
  <advance width="600"/>
  <unicode hex="00F0"/>
  <outline>
    <contour>
      <point x="194" y="553" type="line"/>
      <point x="761" y="688" type="line"/>
      <point x="761" y="689" type="line"/>
      <point x="734" y="779" type="line"/>
      <point x="168" y="643" type="line"/>
      <point x="168" y="642" type="line"/>
    </contour>
  </outline>
</glyph>
<glyph name="eth.color1" format="2">
  <advance width="600"/>
  <unicode hex="00F0"/>
  <outline>
    <contour>
      <point x="782" y="329" type="line"/>
      <point x="783" y="329" type="line"/>
      <point x="533" y="794" type="line"/>
      <point x="299" y="794" type="line"/>
      <point x="299" y="793" type="line"/>
      <point x="439" y="530" type="line"/>
    </contour>
  </outline>
</glyph>
<glyph name="eth" format="2">
  <advance width="818"/>
  <unicode hex="00F0"/>
  <anchor x="462" y="530" name="top"/>
  <outline>
    <contour>
      <point x="194" y="553" type="line"/>
      <point x="761" y="688" type="line"/>
      <point x="761" y="689" type="line"/>
      <point x="734" y="779" type="line"/>
      <point x="168" y="643" type="line"/>
      <point x="168" y="642" type="line"/>
    </contour>
    <contour>
      <point x="782" y="329" type="line"/>
      <point x="783" y="329" type="line"/>
      <point x="533" y="794" type="line"/>
      <point x="299" y="794" type="line"/>
      <point x="299" y="793" type="line"/>
      <point x="439" y="530" type="line"/>
    </contour>
    <contour>
      <point x="147" y="0" type="line"/>
      <point x="569" y="0" type="line"/>
      <point x="569" y="204" type="line"/>
      <point x="45" y="204" type="line"/>
      <point x="45" y="203" type="line"/>
    </contour>
    <contour>
      <point x="45" y="204" type="line"/>
      <point x="259" y="204" type="line"/>
      <point x="259" y="530" type="line"/>
      <point x="258" y="530" type="line"/>
      <point x="45" y="423" type="line"/>
    </contour>
    <contour>
      <point x="569" y="0" type="line"/>
      <point x="570" y="0" type="line"/>
      <point x="783" y="107" type="line"/>
      <point x="783" y="326" type="line"/>
      <point x="569" y="326" type="line"/>
    </contour>
    <contour>
      <point x="259" y="326" type="line"/>
      <point x="783" y="326" type="line"/>
      <point x="783" y="327" type="line"/>
      <point x="621" y="530" type="line"/>
      <point x="259" y="530" type="line"/>
    </contour>
  </outline>
</glyph>
<glyph name="ntilde.color4" format="2">
  <advance width="600"/>
  <unicode hex="00F1"/>
  <outline>
    <contour>
      <point x="517" y="650" type="line"/>
      <point x="636" y="640" type="line"/>
      <point x="636" y="759" type="line"/>
      <point x="517" y="759" type="line"/>
    </contour>
  </outline>
</glyph>
<glyph name="ntilde.color5" format="2">
  <advance width="600"/>
  <unicode hex="00F1"/>
  <outline>
    <contour>
      <point x="507" y="600" type="line"/>
      <point x="508" y="600" type="line"/>
      <point x="636" y="639" type="line"/>
      <point x="636" y="640" type="line"/>
      <point x="368" y="772" type="line"/>
      <point x="367" y="772" type="line"/>
      <point x="238" y="733" type="line"/>
      <point x="238" y="732" type="line"/>
    </contour>
  </outline>
</glyph>
<glyph name="ocircumflex.color0" format="2">
  <advance width="600"/>
  <unicode hex="00F4"/>
  <outline>
    <contour>
      <point x="239" y="326" type="line"/>
      <point x="812" y="326" type="line"/>
      <point x="812" y="327" type="line"/>
      <point x="705" y="530" type="line"/>
      <point x="239" y="530" type="line"/>
    </contour>
  </outline>
</glyph>
<glyph name="otilde.color4" format="2">
  <advance width="600"/>
  <unicode hex="00F5"/>
  <outline>
    <contour>
      <point x="234" y="611" type="line"/>
      <point x="354" y="611" type="line"/>
      <point x="354" y="713" type="line"/>
      <point x="234" y="732" type="line"/>
    </contour>
  </outline>
</glyph>
<glyph name="otilde.color5" format="2">
  <advance width="600"/>
  <unicode hex="00F5"/>
  <outline>
    <contour>
      <point x="513" y="650" type="line"/>
      <point x="632" y="640" type="line"/>
      <point x="632" y="759" type="line"/>
      <point x="513" y="759" type="line"/>
    </contour>
  </outline>
</glyph>
<glyph name="uacute.color1" format="2">
  <advance width="600"/>
  <unicode hex="00FA"/>
  <outline>
    <contour>
      <point x="142" y="0" type="line"/>
      <point x="558" y="0" type="line"/>
      <point x="558" y="204" type="line"/>
      <point x="35" y="204" type="line"/>
      <point x="35" y="203" type="line"/>
    </contour>
  </outline>
</glyph>
<glyph name="thorn" format="2">
  <advance width="808"/>
  <unicode hex="00FE"/>
  <outline>
    <contour>
      <point x="35" y="204" type="line"/>
      <point x="249" y="204" type="line"/>
      <point x="248" y="800" type="line"/>
      <point x="247" y="800" type="line"/>
      <point x="35" y="693" type="line"/>
    </contour>
    <contour>
      <point x="35" y="-200" type="line"/>
      <point x="249" y="-200" type="line"/>
      <point x="249" y="0" type="line"/>
      <point x="36" y="201" type="line"/>
      <point x="35" y="201" type="line"/>
    </contour>
    <contour>
      <point x="249" y="0" type="line"/>
      <point x="559" y="0" type="line"/>
      <point x="559" y="204" type="line"/>
      <point x="35" y="204" type="line"/>
      <point x="35" y="203" type="line"/>
    </contour>
    <contour>
      <point x="559" y="0" type="line"/>
      <point x="560" y="0" type="line"/>
      <point x="773" y="107" type="line"/>
      <point x="773" y="326" type="line"/>
      <point x="559" y="326" type="line"/>
    </contour>
    <contour>
      <point x="249" y="326" type="line"/>
      <point x="773" y="326" type="line"/>
      <point x="773" y="327" type="line"/>
      <point x="671" y="530" type="line"/>
      <point x="249" y="530" type="line"/>
    </contour>
  </outline>
</glyph>
<glyph name="Amacron.color0" format="2">
  <advance width="600"/>
  <unicode hex="0100"/>
  <outline>
    <contour>
      <point x="35" y="0" type="line"/>
      <point x="249" y="0" type="line"/>
      <point x="249" y="730" type="line"/>
      <point x="248" y="730" type="line"/>
      <point x="35" y="523" type="line"/>
    </contour>
  </outline>
</glyph>
<glyph name="Amacron.color4" format="2">
  <advance width="600"/>
  <unicode hex="0100"/>
  <outline>
    <contour>
      <point x="248" y="798" type="line"/>
      <point x="644" y="798" type="line"/>
      <point x="644" y="900" type="line"/>
      <point x="248" y="900" type="line"/>
    </contour>
  </outline>
</glyph>
<glyph name="amacron.color4" format="2">
  <advance width="600"/>
  <unicode hex="0101"/>
  <outline>
    <contour>
      <point x="224" y="628" type="line"/>
      <point x="650" y="628" type="line"/>
      <point x="650" y="740" type="line"/>
      <point x="224" y="740" type="line"/>
    </contour>
  </outline>
</glyph>
<glyph name="Abreve.color6" format="2">
  <advance width="600"/>
  <unicode hex="0102"/>
  <outline>
    <contour>
      <point x="474" y="860" type="line"/>
      <point x="653" y="860" type="line"/>
      <point x="687" y="899" type="line"/>
      <point x="687" y="900" type="line"/>
      <point x="511" y="900" type="line"/>
    </contour>
  </outline>
</glyph>
<glyph name="abreve.color4" format="2">
  <advance width="600"/>
  <unicode hex="0103"/>
  <outline>
    <contour>
      <point x="490" y="720" type="line"/>
      <point x="626" y="720" type="line"/>
      <point x="663" y="779" type="line"/>
      <point x="663" y="780" type="line"/>
      <point x="527" y="780" type="line"/>
    </contour>
  </outline>
</glyph>
<glyph name="abreve.color6" format="2">
  <advance width="600"/>
  <unicode hex="0103"/>
  <outline>
    <contour>
      <point x="300" y="598" type="line"/>
      <point x="555" y="598" type="line"/>
      <point x="626" y="720" type="line"/>
      <point x="229" y="720" type="line"/>
    </contour>
  </outline>
</glyph>
<glyph name="Aogonek" format="2">
  <advance width="847"/>
  <unicode hex="0104"/>
  <anchor x="462" y="0" name="bottom"/>
  <anchor x="446" y="730" name="top"/>
  <outline>
    <contour>
      <point x="35" y="0" type="line"/>
      <point x="249" y="0" type="line"/>
      <point x="249" y="730" type="line"/>
      <point x="248" y="730" type="line"/>
      <point x="35" y="523" type="line"/>
    </contour>
    <contour>
      <point x="249" y="193" type="line"/>
      <point x="598" y="193" type="line"/>
      <point x="598" y="397" type="line"/>
      <point x="249" y="397" type="line"/>
    </contour>
    <contour>
      <point x="598" y="0" type="line"/>
      <point x="812" y="0" type="line"/>
      <point x="812" y="526" type="line"/>
      <point x="599" y="526" type="line"/>
      <point x="598" y="526" type="line"/>
    </contour>
    <contour>
      <point x="249" y="526" type="line"/>
      <point x="812" y="526" type="line"/>
      <point x="812" y="527" type="line"/>
      <point x="650" y="730" type="line"/>
      <point x="249" y="730" type="line"/>
    </contour>
    <contour>
      <point x="541" y="-86" type="line"/>
      <point x="669" y="-86" type="line"/>
      <point x="743" y="-1" type="line"/>
      <point x="743" y="0" type="line"/>
      <point x="618" y="0" type="line"/>
      <point x="541" y="-85" type="line"/>
    </contour>
    <contour>
      <point x="668" y="-230" type="line"/>
      <point x="669" y="-230" type="line"/>
      <point x="669" y="-86" type="line"/>
      <point x="541" y="-86" type="line"/>
      <point x="541" y="-174" type="line"/>
    </contour>
    <contour>
      <point x="669" y="-230" type="line"/>
      <point x="787" y="-230" type="line"/>
      <point x="847" y="-139" type="line"/>
      <point x="847" y="-138" type="line"/>
      <point x="669" y="-138" type="line"/>
    </contour>
  </outline>
</glyph>
<glyph name="aogonek.color5" format="2">
  <advance width="600"/>
  <unicode hex="0105"/>
  <outline>
    <contour>
      <point x="431" y="-230" type="line"/>
      <point x="432" y="-230" type="line"/>
      <point x="432" y="-86" type="line"/>
      <point x="304" y="-86" type="line"/>
      <point x="304" y="-174" type="line"/>
    </contour>
  </outline>
</glyph>
<glyph name="aogonek.color6" format="2">
  <advance width="600"/>
  <unicode hex="0105"/>
  <outline>
    <contour>
      <point x="432" y="-230" type="line"/>
      <point x="550" y="-230" type="line"/>
      <point x="610" y="-139" type="line"/>
      <point x="610" y="-138" type="line"/>
      <point x="432" y="-138" type="line"/>
    </contour>
  </outline>
</glyph>
<glyph name="cacute.color0" format="2">
  <advance width="600"/>
  <unicode hex="0107"/>
  <outline>
    <contour>
      <point x="147" y="0" type="line"/>
      <point x="640" y="0" type="line"/>
      <point x="747" y="203" type="line"/>
      <point x="747" y="204" type="line"/>
      <point x="40" y="204" type="line"/>
      <point x="40" y="203" type="line"/>
    </contour>
  </outline>
</glyph>
<glyph name="cacute" format="2">
  <advance width="757"/>
  <unicode hex="0107"/>
  <anchor x="410" y="0" name="bottom"/>
  <anchor x="427" y="530" name="top"/>
  <outline>
    <contour>
      <point x="147" y="0" type="line"/>
      <point x="640" y="0" type="line"/>
      <point x="747" y="203" type="line"/>
      <point x="747" y="204" type="line"/>
      <point x="40" y="204" type="line"/>
      <point x="40" y="203" type="line"/>
    </contour>
    <contour>
      <point x="40" y="204" type="line"/>
      <point x="254" y="204" type="line"/>
      <point x="254" y="530" type="line"/>
      <point x="253" y="530" type="line"/>
      <point x="40" y="423" type="line"/>
    </contour>
    <contour>
      <point x="254" y="326" type="line"/>
      <point x="747" y="326" type="line"/>
      <point x="747" y="327" type="line"/>
      <point x="640" y="530" type="line"/>
      <point x="254" y="530" type="line"/>
    </contour>
    <contour>
      <point x="354" y="590" type="line"/>
      <point x="460" y="590" type="line"/>
      <point x="565" y="819" type="line"/>
      <point x="565" y="820" type="line"/>
      <point x="389" y="820" type="line"/>
    </contour>
  </outline>
</glyph>
<glyph name="Ccircumflex.color0" format="2">
  <advance width="600"/>
  <unicode hex="0108"/>
  <outline>
    <contour>
      <point x="227" y="0" type="line"/>
      <point x="620" y="0" type="line"/>
      <point x="822" y="203" type="line"/>
      <point x="822" y="204" type="line"/>
      <point x="25" y="204" type="line"/>
      <point x="25" y="203" type="line"/>
    </contour>
  </outline>
</glyph>
<glyph name="ccircumflex.color2" format="2">
  <advance width="600"/>
  <unicode hex="0109"/>
  <outline>
    <contour>
      <point x="254" y="326" type="line"/>
      <point x="747" y="326" type="line"/>
      <point x="747" y="327" type="line"/>
      <point x="640" y="530" type="line"/>
      <point x="254" y="530" type="line"/>
    </contour>
  </outline>
</glyph>
<glyph name="ccircumflex" format="2">
  <advance width="757"/>
  <unicode hex="0109"/>
  <anchor x="410" y="0" name="bottom"/>
  <anchor x="429" y="750" name="top"/>
  <outline>
    <contour>
      <point x="147" y="0" type="line"/>
      <point x="640" y="0" type="line"/>
      <point x="747" y="203" type="line"/>
      <point x="747" y="204" type="line"/>
      <point x="40" y="204" type="line"/>
      <point x="40" y="203" type="line"/>
    </contour>
    <contour>
      <point x="40" y="204" type="line"/>
      <point x="254" y="204" type="line"/>
      <point x="254" y="530" type="line"/>
      <point x="253" y="530" type="line"/>
      <point x="40" y="423" type="line"/>
    </contour>
    <contour>
      <point x="254" y="326" type="line"/>
      <point x="747" y="326" type="line"/>
      <point x="747" y="327" type="line"/>
      <point x="640" y="530" type="line"/>
      <point x="254" y="530" type="line"/>
    </contour>
    <contour>
      <point x="470" y="592" type="line"/>
      <point x="627" y="592" type="line"/>
      <point x="627" y="593" type="line"/>
      <point x="489" y="770" type="line"/>
      <point x="366" y="739" type="line"/>
    </contour>
    <contour>
      <point x="201" y="592" type="line"/>
      <point x="355" y="592" type="line"/>
      <point x="489" y="770" type="line"/>
      <point x="345" y="770" type="line"/>
      <point x="201" y="593" type="line"/>
    </contour>
  </outline>
</glyph>
<glyph name="Ccaron" format="2">
  <advance width="822"/>
  <unicode hex="010C"/>
  <anchor x="482" y="0" name="bottom"/>
  <anchor x="436" y="730" name="top"/>
  <outline>
    <contour>
      <point x="227" y="0" type="line"/>
      <point x="620" y="0" type="line"/>
      <point x="822" y="203" type="line"/>
      <point x="822" y="204" type="line"/>
      <point x="25" y="204" type="line"/>
      <point x="25" y="203" type="line"/>
    </contour>
    <contour>
      <point x="25" y="204" type="line"/>
      <point x="239" y="204" type="line"/>
      <point x="239" y="730" type="line"/>
      <point x="238" y="730" type="line"/>
      <point x="25" y="523" type="line"/>
    </contour>
    <contour>
      <point x="239" y="526" type="line"/>
      <point x="822" y="526" type="line"/>
      <point x="822" y="527" type="line"/>
      <point x="620" y="730" type="line"/>
      <point x="239" y="730" type="line"/>
    </contour>
    <contour>
      <point x="362" y="760" type="line"/>
      <point x="495" y="793" type="line"/>
      <point x="361" y="900" type="line"/>
      <point x="204" y="900" type="line"/>
      <point x="204" y="899" type="line"/>
    </contour>
    <contour>
      <point x="362" y="760" type="line"/>
      <point x="516" y="760" type="line"/>
      <point x="670" y="899" type="line"/>
      <point x="670" y="900" type="line"/>
      <point x="516" y="900" type="line"/>
    </contour>
  </outline>
</glyph>
<glyph name="ccaron.color2" format="2">
  <advance width="600"/>
  <unicode hex="010D"/>
  <outline>
    <contour>
      <point x="254" y="326" type="line"/>
      <point x="747" y="326" type="line"/>
      <point x="747" y="327" type="line"/>
      <point x="640" y="530" type="line"/>
      <point x="254" y="530" type="line"/>
    </contour>
  </outline>
</glyph>
<glyph name="ccaron.color4" format="2">
  <advance width="600"/>
  <unicode hex="010D"/>
  <outline>
    <contour>
      <point x="336" y="582" type="line"/>
      <point x="480" y="582" type="line"/>
      <point x="624" y="749" type="line"/>
      <point x="624" y="750" type="line"/>
      <point x="470" y="750" type="line"/>
    </contour>
  </outline>
</glyph>
<glyph name="Dcaron.color2" format="2">
  <advance width="600"/>
  <unicode hex="010E"/>
  <outline>
    <contour>
      <point x="35" y="200" type="line"/>
      <point x="249" y="200" type="line"/>
      <point x="249" y="730" type="line"/>
      <point x="35" y="730" type="line"/>
    </contour>
  </outline>
</glyph>
<glyph name="Dcaron.color3" format="2">
  <advance width="600"/>
  <unicode hex="010E"/>
  <outline>
    <contour>
      <point x="628" y="-4" type="line"/>
      <point x="629" y="-4" type="line"/>
      <point x="842" y="193" type="line"/>
      <point x="842" y="526" type="line"/>
      <point x="628" y="526" type="line"/>
    </contour>
  </outline>
</glyph>
<glyph name="Dcaron.color5" format="2">
  <advance width="600"/>
  <unicode hex="010E"/>
  <outline>
    <contour>
      <point x="352" y="760" type="line"/>
      <point x="506" y="760" type="line"/>
      <point x="660" y="899" type="line"/>
      <point x="660" y="900" type="line"/>
      <point x="506" y="900" type="line"/>
    </contour>
  </outline>
</glyph>
<glyph name="Dcroat.color2" format="2">
  <advance width="600"/>
  <unicode hex="0110"/>
  <outline>
    <contour>
      <point x="81" y="-4" type="line"/>
      <point x="674" y="-4" type="line"/>
      <point x="674" y="200" type="line"/>
      <point x="81" y="200" type="line"/>
    </contour>
  </outline>
</glyph>
<glyph name="dcroat.color3" format="2">
  <advance width="600"/>
  <unicode hex="0111"/>
  <outline>
    <contour>
      <point x="147" y="0" type="line"/>
      <point x="569" y="0" type="line"/>
      <point x="569" y="204" type="line"/>
      <point x="45" y="204" type="line"/>
      <point x="45" y="203" type="line"/>
    </contour>
  </outline>
</glyph>
<glyph name="dcroat.color5" format="2">
  <advance width="600"/>
  <unicode hex="0111"/>
  <outline>
    <contour>
      <point x="569" y="0" type="line"/>
      <point x="570" y="0" type="line"/>
      <point x="783" y="107" type="line"/>
      <point x="783" y="326" type="line"/>
      <point x="569" y="326" type="line"/>
    </contour>
  </outline>
</glyph>
<glyph name="Ebreve" format="2">
  <advance width="792"/>
  <unicode hex="0114"/>
  <anchor x="462" y="0" name="bottom"/>
  <anchor x="426" y="730" name="top"/>
  <outline>
    <contour>
      <point x="237" y="0" type="line"/>
      <point x="761" y="0" type="line"/>
      <point x="761" y="204" type="line"/>
      <point x="35" y="204" type="line"/>
      <point x="35" y="203" type="line"/>
    </contour>
    <contour>
      <point x="35" y="204" type="line"/>
      <point x="249" y="204" type="line"/>
      <point x="249" y="730" type="line"/>
      <point x="35" y="730" type="line"/>
    </contour>
    <contour>
      <point x="249" y="283" type="line"/>
      <point x="658" y="283" type="line"/>
      <point x="658" y="447" type="line"/>
      <point x="249" y="447" type="line"/>
    </contour>
    <contour>
      <point x="249" y="526" type="line"/>
      <point x="610" y="526" type="line"/>
      <point x="812" y="729" type="line"/>
      <point x="812" y="730" type="line"/>
      <point x="249" y="730" type="line"/>
    </contour>
    <contour>
      <point x="294" y="760" type="line"/>
      <point x="539" y="760" type="line"/>
      <point x="633" y="860" type="line"/>
      <point x="200" y="860" type="line"/>
    </contour>
    <contour>
      <point x="200" y="860" type="line"/>
      <point x="379" y="860" type="line"/>
      <point x="342" y="900" type="line"/>
      <point x="166" y="900" type="line"/>
      <point x="166" y="898" type="line"/>
    </contour>
    <contour>
      <point x="454" y="860" type="line"/>
      <point x="633" y="860" type="line"/>
      <point x="667" y="899" type="line"/>
      <point x="667" y="900" type="line"/>
      <point x="491" y="900" type="line"/>
    </contour>
  </outline>
</glyph>
<glyph name="ebreve.color5" format="2">
  <advance width="600"/>
  <unicode hex="0115"/>
  <outline>
    <contour>
      <point x="480" y="720" type="line"/>
      <point x="616" y="720" type="line"/>
      <point x="653" y="779" type="line"/>
      <point x="653" y="780" type="line"/>
      <point x="517" y="780" type="line"/>
    </contour>
  </outline>
</glyph>
<glyph name="ebreve.color7" format="2">
  <advance width="600"/>
  <unicode hex="0115"/>
  <outline>
    <contour>
      <point x="290" y="598" type="line"/>
      <point x="545" y="598" type="line"/>
      <point x="616" y="720" type="line"/>
      <point x="219" y="720" type="line"/>
    </contour>
  </outline>
</glyph>
<glyph name="Edotaccent.color4" format="2">
  <advance width="600"/>
  <unicode hex="0116"/>
  <outline>
    <contour>
      <point x="338" y="768" type="line"/>
      <point x="514" y="768" type="line"/>
      <point x="514" y="900" type="line"/>
      <point x="338" y="900" type="line"/>
    </contour>
  </outline>
</glyph>
<glyph name="Eogonek.color4" format="2">
  <advance width="600"/>
  <unicode hex="0118"/>
  <outline>
    <contour>
      <point x="325" y="-86" type="line"/>
      <point x="453" y="-86" type="line"/>
      <point x="527" y="-1" type="line"/>
      <point x="527" y="0" type="line"/>
      <point x="402" y="0" type="line"/>
      <point x="325" y="-85" type="line"/>
    </contour>
  </outline>
</glyph>
<glyph name="Eogonek.color6" format="2">
  <advance width="600"/>
  <unicode hex="0118"/>
  <outline>
    <contour>
      <point x="453" y="-230" type="line"/>
      <point x="571" y="-230" type="line"/>
      <point x="631" y="-139" type="line"/>
      <point x="631" y="-138" type="line"/>
      <point x="453" y="-138" type="line"/>
    </contour>
  </outline>
</glyph>
<glyph name="Eogonek" format="2">
  <advance width="792"/>
  <unicode hex="0118"/>
  <anchor x="462" y="0" name="bottom"/>
  <anchor x="426" y="730" name="top"/>
  <outline>
    <contour>
      <point x="237" y="0" type="line"/>
      <point x="761" y="0" type="line"/>
      <point x="761" y="204" type="line"/>
      <point x="35" y="204" type="line"/>
      <point x="35" y="203" type="line"/>
    </contour>
    <contour>
      <point x="35" y="204" type="line"/>
      <point x="249" y="204" type="line"/>
      <point x="249" y="730" type="line"/>
      <point x="35" y="730" type="line"/>
    </contour>
    <contour>
      <point x="249" y="283" type="line"/>
      <point x="658" y="283" type="line"/>
      <point x="658" y="447" type="line"/>
      <point x="249" y="447" type="line"/>
    </contour>
    <contour>
      <point x="249" y="526" type="line"/>
      <point x="610" y="526" type="line"/>
      <point x="812" y="729" type="line"/>
      <point x="812" y="730" type="line"/>
      <point x="249" y="730" type="line"/>
    </contour>
    <contour>
      <point x="325" y="-86" type="line"/>
      <point x="453" y="-86" type="line"/>
      <point x="527" y="-1" type="line"/>
      <point x="527" y="0" type="line"/>
      <point x="402" y="0" type="line"/>
      <point x="325" y="-85" type="line"/>
    </contour>
    <contour>
      <point x="452" y="-230" type="line"/>
      <point x="453" y="-230" type="line"/>
      <point x="453" y="-86" type="line"/>
      <point x="325" y="-86" type="line"/>
      <point x="325" y="-174" type="line"/>
    </contour>
    <contour>
      <point x="453" y="-230" type="line"/>
      <point x="571" y="-230" type="line"/>
      <point x="631" y="-139" type="line"/>
      <point x="631" y="-138" type="line"/>
      <point x="453" y="-138" type="line"/>
    </contour>
  </outline>
</glyph>
<glyph name="eogonek.color5" format="2">
  <advance width="600"/>
  <unicode hex="0119"/>
  <outline>
    <contour>
      <point x="294" y="-86" type="line"/>
      <point x="422" y="-86" type="line"/>
      <point x="496" y="-1" type="line"/>
      <point x="496" y="0" type="line"/>
      <point x="371" y="0" type="line"/>
      <point x="294" y="-85" type="line"/>
    </contour>
  </outline>
</glyph>
<glyph name="eogonek.color7" format="2">
  <advance width="600"/>
  <unicode hex="0119"/>
  <outline>
    <contour>
      <point x="422" y="-230" type="line"/>
      <point x="540" y="-230" type="line"/>
      <point x="600" y="-139" type="line"/>
      <point x="600" y="-138" type="line"/>
      <point x="422" y="-138" type="line"/>
    </contour>
  </outline>
</glyph>
<glyph name="Ecaron.color2" format="2">
  <advance width="600"/>
  <unicode hex="011A"/>
  <outline>
    <contour>
      <point x="249" y="283" type="line"/>
      <point x="658" y="283" type="line"/>
      <point x="658" y="447" type="line"/>
      <point x="249" y="447" type="line"/>
    </contour>
  </outline>
</glyph>
<glyph name="ecaron.color5" format="2">
  <advance width="600"/>
  <unicode hex="011B"/>
  <outline>
    <contour>
      <point x="351" y="582" type="line"/>
      <point x="474" y="613" type="line"/>
      <point x="370" y="750" type="line"/>
      <point x="213" y="750" type="line"/>
      <point x="213" y="749" type="line"/>
    </contour>
  </outline>
</glyph>
<glyph name="ecaron" format="2">
  <advance width="837"/>
  <unicode hex="011B"/>
  <anchor x="431" y="0" name="bottom"/>
  <anchor x="442" y="530" name="top"/>
  <outline>
    <contour>
      <point x="152" y="0" type="line"/>
      <point x="705" y="0" type="line"/>
      <point x="812" y="199" type="line"/>
      <point x="812" y="200" type="line"/>
      <point x="45" y="200" type="line"/>
      <point x="45" y="199" type="line"/>
    </contour>
    <contour>
      <point x="45" y="200" type="line"/>
      <point x="259" y="200" type="line"/>
      <point x="259" y="530" type="line"/>
      <point x="258" y="530" type="line"/>
      <point x="45" y="423" type="line"/>
    </contour>
    <contour>
      <point x="259" y="220" type="line"/>
      <point x="598" y="221" type="line"/>
      <point x="598" y="331" type="line"/>
      <point x="259" y="331" type="line"/>
    </contour>
    <contour>
      <point x="259" y="351" type="line"/>
      <point x="812" y="351" type="line"/>
      <point x="812" y="352" type="line"/>
      <point x="705" y="530" type="line"/>
      <point x="259" y="530" type="line"/>
    </contour>
    <contour>
      <point x="598" y="221" type="line"/>
      <point x="599" y="221" type="line"/>
      <point x="812" y="328" type="line"/>
      <point x="812" y="351" type="line"/>
      <point x="598" y="351" type="line"/>
    </contour>
    <contour>
      <point x="351" y="582" type="line"/>
      <point x="474" y="613" type="line"/>
      <point x="370" y="750" type="line"/>
      <point x="213" y="750" type="line"/>
      <point x="213" y="749" type="line"/>
    </contour>
    <contour>
      <point x="351" y="582" type="line"/>
      <point x="495" y="582" type="line"/>
      <point x="639" y="749" type="line"/>
      <point x="639" y="750" type="line"/>
      <point x="485" y="750" type="line"/>
    </contour>
  </outline>
</glyph>
<glyph name="Gcircumflex.color5" format="2">
  <advance width="600"/>
  <unicode hex="011C"/>
  <outline>
    <contour>
      <point x="566" y="760" type="line"/>
      <point x="723" y="760" type="line"/>
      <point x="723" y="761" type="line"/>
      <point x="565" y="900" type="line"/>
      <point x="432" y="867" type="line"/>
    </contour>
  </outline>
</glyph>
<glyph name="gcircumflex.color5" format="2">
  <advance width="600"/>
  <unicode hex="011D"/>
  <outline>
    <contour>
      <point x="515" y="592" type="line"/>
      <point x="672" y="592" type="line"/>
      <point x="672" y="593" type="line"/>
      <point x="534" y="770" type="line"/>
      <point x="411" y="739" type="line"/>
    </contour>
  </outline>
</glyph>
<glyph name="gcircumflex.color6" format="2">
  <advance width="600"/>
  <unicode hex="011D"/>
  <outline>
    <contour>
      <point x="246" y="592" type="line"/>
      <point x="400" y="592" type="line"/>
      <point x="534" y="770" type="line"/>
      <point x="390" y="770" type="line"/>
      <point x="246" y="593" type="line"/>
    </contour>
  </outline>
</glyph>
<glyph name="Gbreve" format="2">
  <advance width="927"/>
  <unicode hex="011E"/>
  <anchor x="495" y="0" name="bottom"/>
  <anchor x="483" y="730" name="top"/>
  <outline>
    <contour>
      <point x="239" y="526" type="line"/>
      <point x="902" y="526" type="line"/>
      <point x="902" y="527" type="line"/>
      <point x="700" y="730" type="line"/>
      <point x="239" y="730" type="line"/>
    </contour>
    <contour>
      <point x="227" y="0" type="line"/>
      <point x="688" y="0" type="line"/>
      <point x="688" y="204" type="line"/>
      <point x="25" y="204" type="line"/>
      <point x="25" y="203" type="line"/>
    </contour>
    <contour>
      <point x="25" y="204" type="line"/>
      <point x="239" y="204" type="line"/>
      <point x="239" y="730" type="line"/>
      <point x="238" y="730" type="line"/>
      <point x="25" y="523" type="line"/>
    </contour>
    <contour>
      <point x="298" y="263" type="line"/>
      <point x="688" y="263" type="line"/>
      <point x="688" y="467" type="line"/>
      <point x="298" y="467" type="line"/>
    </contour>
    <contour>
      <point x="688" y="0" type="line"/>
      <point x="689" y="0" type="line"/>
      <point x="902" y="197" type="line"/>
      <point x="902" y="274" type="line"/>
      <point x="689" y="467" type="line"/>
      <point x="688" y="467" type="line"/>
    </contour>
    <contour>
      <point x="351" y="760" type="line"/>
      <point x="596" y="760" type="line"/>
      <point x="690" y="860" type="line"/>
      <point x="257" y="860" type="line"/>
    </contour>
    <contour>
      <point x="257" y="860" type="line"/>
      <point x="436" y="860" type="line"/>
      <point x="399" y="900" type="line"/>
      <point x="223" y="900" type="line"/>
      <point x="223" y="898" type="line"/>
    </contour>
    <contour>
      <point x="511" y="860" type="line"/>
      <point x="690" y="860" type="line"/>
      <point x="724" y="899" type="line"/>
      <point x="724" y="900" type="line"/>
      <point x="548" y="900" type="line"/>
    </contour>
  </outline>
</glyph>
<glyph name="gbreve.color0" format="2">
  <advance width="600"/>
  <unicode hex="011F"/>
  <outline>
    <contour>
      <point x="249" y="326" type="line"/>
      <point x="744" y="326" type="line"/>
      <point x="830" y="529" type="line"/>
      <point x="830" y="530" type="line"/>
      <point x="249" y="530" type="line"/>
    </contour>
  </outline>
</glyph>
<glyph name="gbreve.color4" format="2">
  <advance width="600"/>
  <unicode hex="011F"/>
  <outline>
    <contour>
      <point x="530" y="-206" type="line"/>
      <point x="531" y="-206" type="line"/>
      <point x="744" y="-104" type="line"/>
      <point x="744" y="326" type="line"/>
      <point x="530" y="326" type="line"/>
    </contour>
  </outline>
</glyph>
<glyph name="gbreve.color5" format="2">
  <advance width="600"/>
  <unicode hex="011F"/>
  <outline>
    <contour>
      <point x="510" y="720" type="line"/>
      <point x="646" y="720" type="line"/>
      <point x="683" y="779" type="line"/>
      <point x="683" y="780" type="line"/>
      <point x="547" y="780" type="line"/>
    </contour>
  </outline>
</glyph>
<glyph name="gbreve" format="2">
  <advance width="830"/>
  <unicode hex="011F"/>
  <anchor x="472" y="530" name="top"/>
  <outline>
    <contour>
      <point x="249" y="326" type="line"/>
      <point x="744" y="326" type="line"/>
      <point x="830" y="529" type="line"/>
      <point x="830" y="530" type="line"/>
      <point x="249" y="530" type="line"/>
    </contour>
    <contour>
      <point x="137" y="-206" type="line"/>
      <point x="530" y="-206" type="line"/>
      <point x="530" y="-26" type="line"/>
      <point x="35" y="-26" type="line"/>
      <point x="35" y="-27" type="line"/>
    </contour>
    <contour>
      <point x="137" y="0" type="line"/>
      <point x="530" y="0" type="line"/>
      <point x="530" y="204" type="line"/>
      <point x="35" y="204" type="line"/>
      <point x="35" y="203" type="line"/>
    </contour>
    <contour>
      <point x="35" y="204" type="line"/>
      <point x="249" y="204" type="line"/>
      <point x="249" y="530" type="line"/>
      <point x="248" y="530" type="line"/>
      <point x="35" y="423" type="line"/>
    </contour>
    <contour>
      <point x="530" y="-206" type="line"/>
      <point x="531" y="-206" type="line"/>
      <point x="744" y="-104" type="line"/>
      <point x="744" y="326" type="line"/>
      <point x="530" y="326" type="line"/>
    </contour>
    <contour>
      <point x="510" y="720" type="line"/>
      <point x="646" y="720" type="line"/>
      <point x="683" y="779" type="line"/>
      <point x="683" y="780" type="line"/>
      <point x="547" y="780" type="line"/>
    </contour>
    <contour>
      <point x="249" y="720" type="line"/>
      <point x="395" y="720" type="line"/>
      <point x="358" y="780" type="line"/>
      <point x="212" y="780" type="line"/>
      <point x="212" y="778" type="line"/>
    </contour>
    <contour>
      <point x="320" y="598" type="line"/>
      <point x="575" y="598" type="line"/>
      <point x="646" y="720" type="line"/>
      <point x="249" y="720" type="line"/>
    </contour>
  </outline>
</glyph>
<glyph name="Gcommaaccent.color1" format="2">
  <advance width="600"/>
  <unicode hex="0122"/>
  <outline>
    <contour>
      <point x="227" y="0" type="line"/>
      <point x="688" y="0" type="line"/>
      <point x="688" y="204" type="line"/>
      <point x="25" y="204" type="line"/>
      <point x="25" y="203" type="line"/>
    </contour>
  </outline>
</glyph>
<glyph name="Gcommaaccent.color3" format="2">
  <advance width="600"/>
  <unicode hex="0122"/>
  <outline>
    <contour>
      <point x="298" y="263" type="line"/>
      <point x="688" y="263" type="line"/>
      <point x="688" y="467" type="line"/>
      <point x="298" y="467" type="line"/>
    </contour>
  </outline>
</glyph>
<glyph name="Hcircumflex.color0" format="2">
  <advance width="600"/>
  <unicode hex="0124"/>
  <outline>
    <contour>
      <point x="598" y="0" type="line"/>
      <point x="812" y="0" type="line"/>
      <point x="812" y="730" type="line"/>
      <point x="598" y="730" type="line"/>
    </contour>
  </outline>
</glyph>
<glyph name="Hcircumflex.color1" format="2">
  <advance width="600"/>
  <unicode hex="0124"/>
  <outline>
    <contour>
      <point x="35" y="0" type="line"/>
      <point x="249" y="0" type="line"/>
      <point x="249" y="730" type="line"/>
      <point x="35" y="730" type="line"/>
    </contour>
  </outline>
</glyph>
<glyph name="Hbar.color3" format="2">
  <advance width="600"/>
  <unicode hex="0126"/>
  <outline>
    <contour>
      <point x="304" y="263" type="line"/>
      <point x="653" y="263" type="line"/>
      <point x="653" y="467" type="line"/>
      <point x="304" y="467" type="line"/>
    </contour>
  </outline>
</glyph>
<glyph name="hbar.color3" format="2">
  <advance width="600"/>
  <unicode hex="0127"/>
  <outline>
    <contour>
      <point x="249" y="326" type="line"/>
      <point x="772" y="326" type="line"/>
      <point x="772" y="327" type="line"/>
      <point x="665" y="530" type="line"/>
      <point x="249" y="530" type="line"/>
    </contour>
  </outline>
</glyph>
<glyph name="itilde.color2" format="2">
  <advance width="600"/>
  <unicode hex="0129"/>
  <outline>
    <contour>
      <point x="221" y="650" type="line"/>
      <point x="326" y="650" type="line"/>
      <point x="326" y="769" type="line"/>
      <point x="221" y="769" type="line"/>
    </contour>
  </outline>
</glyph>
<glyph name="itilde" format="2">
  <advance width="334"/>
  <unicode hex="0129"/>
  <anchor x="183" y="0" name="bottom"/>
  <anchor x="191" y="530" name="top"/>
  <outline>
    <contour>
      <point x="77" y="0" type="line"/>
      <point x="291" y="0" type="line"/>
      <point x="291" y="503" type="line"/>
      <point x="290" y="530" type="line"/>
      <point x="77" y="530" type="line"/>
    </contour>
    <contour>
      <point x="28" y="613" type="line"/>
      <point x="133" y="613" type="line"/>
      <point x="133" y="723" type="line"/>
      <point x="28" y="732" type="line"/>
    </contour>
    <contour>
      <point x="221" y="650" type="line"/>
      <point x="326" y="650" type="line"/>
      <point x="326" y="769" type="line"/>
      <point x="221" y="769" type="line"/>
    </contour>
    <contour>
      <point x="237" y="610" type="line"/>
      <point x="238" y="610" type="line"/>
      <point x="326" y="649" type="line"/>
      <point x="326" y="650" type="line"/>
      <point x="117" y="772" type="line"/>
      <point x="116" y="772" type="line"/>
      <point x="28" y="733" type="line"/>
      <point x="28" y="732" type="line"/>
    </contour>
  </outline>
</glyph>
<glyph name="Imacron" format="2">
  <advance width="657"/>
  <unicode hex="012A"/>
  <anchor x="340" y="0" name="bottom"/>
  <anchor x="341" y="730" name="top"/>
  <outline>
    <contour>
      <point x="246" y="0" type="line"/>
      <point x="298" y="0" type="line"/>
      <point x="460" y="204" type="line"/>
      <point x="460" y="730" type="line"/>
      <point x="408" y="730" type="line"/>
      <point x="246" y="526" type="line"/>
    </contour>
    <contour>
      <point x="25" y="1" type="line"/>
      <point x="245" y="0" type="line"/>
      <point x="246" y="204" type="line"/>
      <point x="25" y="204" type="line"/>
    </contour>
    <contour>
      <point x="298" y="0" type="line"/>
      <point x="632" y="0" type="line"/>
      <point x="632" y="204" type="line"/>
      <point x="460" y="204" type="line"/>
    </contour>
    <contour>
      <point x="25" y="526" type="line"/>
      <point x="246" y="526" type="line"/>
      <point x="408" y="730" type="line"/>
      <point x="25" y="730" type="line"/>
    </contour>
    <contour>
      <point x="460" y="526" type="line"/>
      <point x="631" y="526" type="line"/>
      <point x="631" y="730" type="line"/>
      <point x="460" y="730" type="line"/>
    </contour>
    <contour>
      <point x="143" y="798" type="line"/>
      <point x="539" y="798" type="line"/>
      <point x="539" y="900" type="line"/>
      <point x="143" y="900" type="line"/>
    </contour>
  </outline>
</glyph>
<glyph name="imacron" format="2">
  <advance width="316"/>
  <unicode hex="012B"/>
  <anchor x="157" y="0" name="bottom"/>
  <anchor x="165" y="530" name="top"/>
  <outline>
    <contour>
      <point x="-20" y="638" type="line"/>
      <point x="336" y="638" type="line"/>
      <point x="336" y="750" type="line"/>
      <point x="-20" y="750" type="line"/>
    </contour>
    <contour>
      <point x="51" y="0" type="line"/>
      <point x="265" y="0" type="line"/>
      <point x="265" y="503" type="line"/>
      <point x="264" y="530" type="line"/>
      <point x="51" y="530" type="line"/>
    </contour>
  </outline>
</glyph>
<glyph name="Ibreve.color6" format="2">
  <advance width="600"/>
  <unicode hex="012C"/>
  <outline>
    <contour>
      <point x="115" y="860" type="line"/>
      <point x="294" y="860" type="line"/>
      <point x="257" y="900" type="line"/>
      <point x="81" y="900" type="line"/>
      <point x="81" y="898" type="line"/>
    </contour>
  </outline>
</glyph>
<glyph name="Iogonek.color7" format="2">
  <advance width="600"/>
  <unicode hex="012E"/>
  <outline>
    <contour>
      <point x="331" y="-230" type="line"/>
      <point x="449" y="-230" type="line"/>
      <point x="509" y="-139" type="line"/>
      <point x="509" y="-138" type="line"/>
      <point x="331" y="-138" type="line"/>
    </contour>
  </outline>
</glyph>
<glyph name="iogonek.color2" format="2">
  <advance width="600"/>
  <unicode hex="012F"/>
  <outline>
    <contour>
      <point x="14" y="-86" type="line"/>
      <point x="142" y="-86" type="line"/>
      <point x="216" y="-1" type="line"/>
      <point x="216" y="0" type="line"/>
      <point x="91" y="0" type="line"/>
      <point x="14" y="-85" type="line"/>
    </contour>
  </outline>
</glyph>
<glyph name="iogonek.color3" format="2">
  <advance width="600"/>
  <unicode hex="012F"/>
  <outline>
    <contour>
      <point x="141" y="-230" type="line"/>
      <point x="142" y="-230" type="line"/>
      <point x="142" y="-86" type="line"/>
      <point x="14" y="-86" type="line"/>
      <point x="14" y="-174" type="line"/>
    </contour>
  </outline>
</glyph>
<glyph name="iogonek" format="2">
  <advance width="304"/>
  <unicode hex="012F"/>
  <anchor x="151" y="0" name="bottom"/>
  <anchor x="154" y="750" name="top"/>
  <outline>
    <contour>
      <point x="45" y="0" type="line"/>
      <point x="259" y="0" type="line"/>
      <point x="259" y="503" type="line"/>
      <point x="258" y="530" type="line"/>
      <point x="45" y="530" type="line"/>
    </contour>
    <contour>
      <point x="52" y="640" type="line"/>
      <point x="266" y="640" type="line"/>
      <point x="266" y="800" type="line"/>
      <point x="52" y="800" type="line"/>
    </contour>
    <contour>
      <point x="14" y="-86" type="line"/>
      <point x="142" y="-86" type="line"/>
      <point x="216" y="-1" type="line"/>
      <point x="216" y="0" type="line"/>
      <point x="91" y="0" type="line"/>
      <point x="14" y="-85" type="line"/>
    </contour>
    <contour>
      <point x="141" y="-230" type="line"/>
      <point x="142" y="-230" type="line"/>
      <point x="142" y="-86" type="line"/>
      <point x="14" y="-86" type="line"/>
      <point x="14" y="-174" type="line"/>
    </contour>
    <contour>
      <point x="142" y="-230" type="line"/>
      <point x="260" y="-230" type="line"/>
      <point x="320" y="-139" type="line"/>
      <point x="320" y="-138" type="line"/>
      <point x="142" y="-138" type="line"/>
    </contour>
  </outline>
</glyph>
<glyph name="Jcircumflex.color5" format="2">
  <advance width="600"/>
  <unicode hex="0134"/>
  <outline>
    <contour>
      <point x="130" y="760" type="line"/>
      <point x="284" y="760" type="line"/>
      <point x="438" y="900" type="line"/>
      <point x="284" y="900" type="line"/>
      <point x="130" y="761" type="line"/>
    </contour>
  </outline>
</glyph>
<glyph name="Jcircumflex" format="2">
  <advance width="657"/>
  <unicode hex="0134"/>
  <anchor x="356" y="730" name="top"/>
  <outline>
    <contour>
      <point x="306" y="200" type="line"/>
      <point x="520" y="200" type="line"/>
      <point x="520" y="730" type="line"/>
      <point x="468" y="730" type="line"/>
      <point x="306" y="526" type="line"/>
    </contour>
    <contour>
      <point x="47" y="-4" type="line"/>
      <point x="358" y="-4" type="line"/>
      <point x="520" y="199" type="line"/>
      <point x="520" y="200" type="line"/>
      <point x="47" y="200" type="line"/>
    </contour>
    <contour>
      <point x="25" y="526" type="line"/>
      <point x="306" y="526" type="line"/>
      <point x="468" y="730" type="line"/>
      <point x="25" y="730" type="line"/>
    </contour>
    <contour>
      <point x="520" y="526" type="line"/>
      <point x="631" y="526" type="line"/>
      <point x="631" y="730" type="line"/>
      <point x="520" y="730" type="line"/>
    </contour>
    <contour>
      <point x="439" y="760" type="line"/>
      <point x="596" y="760" type="line"/>
      <point x="596" y="761" type="line"/>
      <point x="438" y="900" type="line"/>
      <point x="305" y="867" type="line"/>
    </contour>
    <contour>
      <point x="130" y="760" type="line"/>
      <point x="284" y="760" type="line"/>
      <point x="438" y="900" type="line"/>
      <point x="284" y="900" type="line"/>
      <point x="130" y="761" type="line"/>
    </contour>
  </outline>
</glyph>
<glyph name="Kcommaaccent.color3" format="2">
  <advance width="600"/>
  <unicode hex="0136"/>
  <outline>
    <contour>
      <point x="548" y="243" type="line"/>
      <point x="549" y="243" type="line"/>
      <point x="762" y="420" type="line"/>
      <point x="762" y="730" type="line"/>
      <point x="548" y="730" type="line"/>
    </contour>
  </outline>
</glyph>
<glyph name="Kcommaaccent.color4" format="2">
  <advance width="600"/>
  <unicode hex="0136"/>
  <outline>
    <contour>
      <point x="480" y="-280" type="line"/>
      <point x="481" y="-280" type="line"/>
      <point x="481" y="-30" type="line"/>
      <point x="349" y="-30" type="line"/>
      <point x="349" y="-178" type="line"/>
    </contour>
  </outline>
</glyph>
<glyph name="Lacute" format="2">
  <advance width="753"/>
  <unicode hex="0139"/>
  <anchor x="405" y="0" name="bottom"/>
  <anchor x="173" y="730" name="top"/>
  <outline>
    <contour>
      <point x="237" y="0" type="line"/>
      <point x="728" y="0" type="line"/>
      <point x="728" y="204" type="line"/>
      <point x="35" y="204" type="line"/>
      <point x="35" y="203" type="line"/>
    </contour>
    <contour>
      <point x="35" y="204" type="line"/>
      <point x="249" y="204" type="line"/>
      <point x="249" y="730" type="line"/>
      <point x="35" y="730" type="line"/>
    </contour>
    <contour>
      <point x="89" y="760" type="line"/>
      <point x="215" y="760" type="line"/>
      <point x="330" y="899" type="line"/>
      <point x="330" y="900" type="line"/>
      <point x="124" y="900" type="line"/>
    </contour>
  </outline>
</glyph>
<glyph name="lacute.color2" format="2">
  <advance width="600"/>
  <unicode hex="013A"/>
  <outline>
    <contour>
      <point x="65" y="824" type="line"/>
      <point x="191" y="824" type="line"/>
      <point x="306" y="963" type="line"/>
      <point x="306" y="964" type="line"/>
      <point x="100" y="964" type="line"/>
    </contour>
  </outline>
</glyph>
<glyph name="Lcommaaccent" format="2">
  <advance width="753"/>
  <unicode hex="013B"/>
  <anchor x="405" y="0" name="bottom"/>
  <anchor x="173" y="730" name="top"/>
  <outline>
    <contour>
      <point x="237" y="0" type="line"/>
      <point x="728" y="0" type="line"/>
      <point x="728" y="204" type="line"/>
      <point x="35" y="204" type="line"/>
      <point x="35" y="203" type="line"/>
    </contour>
    <contour>
      <point x="35" y="204" type="line"/>
      <point x="249" y="204" type="line"/>
      <point x="249" y="730" type="line"/>
      <point x="35" y="730" type="line"/>
    </contour>
    <contour>
      <point x="470" y="-280" type="line"/>
      <point x="471" y="-280" type="line"/>
      <point x="471" y="-30" type="line"/>
      <point x="339" y="-30" type="line"/>
      <point x="339" y="-178" type="line"/>
    </contour>
  </outline>
</glyph>
<glyph name="Lcaron.color2" format="2">
  <advance width="600"/>
  <unicode hex="013D"/>
  <outline>
    <contour>
      <point x="345" y="564" type="line"/>
      <point x="441" y="564" type="line"/>
      <point x="556" y="793" type="line"/>
      <point x="556" y="794" type="line"/>
      <point x="380" y="794" type="line"/>
    </contour>
  </outline>
</glyph>
<glyph name="lcaron.color0" format="2">
  <advance width="600"/>
  <unicode hex="013E"/>
  <outline>
    <contour>
      <point x="248" y="0" type="line"/>
      <point x="249" y="0" type="line"/>
      <point x="249" y="794" type="line"/>
      <point x="35" y="794" type="line"/>
      <point x="35" y="107" type="line"/>
    </contour>
  </outline>
</glyph>
<glyph name="Lslash.color0" format="2">
  <advance width="600"/>
  <unicode hex="0141"/>
  <outline>
    <contour>
      <point x="75" y="273" type="line"/>
      <point x="572" y="548" type="line"/>
      <point x="572" y="549" type="line"/>
      <point x="496" y="689" type="line"/>
      <point x="0" y="413" type="line"/>
      <point x="0" y="412" type="line"/>
    </contour>
  </outline>
</glyph>
<glyph name="Lslash.color1" format="2">
  <advance width="600"/>
  <unicode hex="0141"/>
  <outline>
    <contour>
      <point x="342" y="0" type="line"/>
      <point x="833" y="0" type="line"/>
      <point x="833" y="204" type="line"/>
      <point x="140" y="204" type="line"/>
      <point x="140" y="203" type="line"/>
    </contour>
  </outline>
</glyph>
<glyph name="Nacute.color3" format="2">
  <advance width="600"/>
  <unicode hex="0143"/>
  <outline>
    <contour>
      <point x="332" y="760" type="line"/>
      <point x="458" y="760" type="line"/>
      <point x="573" y="899" type="line"/>
      <point x="573" y="900" type="line"/>
      <point x="367" y="900" type="line"/>
    </contour>
  </outline>
</glyph>
<glyph name="ncommaaccent" format="2">
  <advance width="807"/>
  <unicode hex="0146"/>
  <anchor x="415" y="0" name="bottom"/>
  <anchor x="446" y="530" name="top"/>
  <outline>
    <contour>
      <point x="35" y="0" type="line"/>
      <point x="249" y="0" type="line"/>
      <point x="249" y="530" type="line"/>
      <point x="248" y="530" type="line"/>
      <point x="35" y="423" type="line"/>
    </contour>
    <contour>
      <point x="558" y="-6" type="line"/>
      <point x="559" y="-6" type="line"/>
      <point x="772" y="41" type="line"/>
      <point x="772" y="326" type="line"/>
      <point x="558" y="326" type="line"/>
    </contour>
    <contour>
      <point x="249" y="326" type="line"/>
      <point x="772" y="326" type="line"/>
      <point x="772" y="327" type="line"/>
      <point x="665" y="530" type="line"/>
      <point x="249" y="530" type="line"/>
    </contour>
    <contour>
      <point x="480" y="-280" type="line"/>
      <point x="481" y="-280" type="line"/>
      <point x="481" y="-30" type="line"/>
      <point x="349" y="-30" type="line"/>
      <point x="349" y="-178" type="line"/>
    </contour>
  </outline>
</glyph>
<glyph name="ncaron.color4" format="2">
  <advance width="600"/>
  <unicode hex="0148"/>
  <outline>
    <contour>
      <point x="355" y="582" type="line"/>
      <point x="499" y="582" type="line"/>
      <point x="643" y="749" type="line"/>
      <point x="643" y="750" type="line"/>
      <point x="489" y="750" type="line"/>
    </contour>
  </outline>
</glyph>
<glyph name="Obreve.color4" format="2">
  <advance width="600"/>
  <unicode hex="014E"/>
  <outline>
    <contour>
      <point x="304" y="760" type="line"/>
      <point x="549" y="760" type="line"/>
      <point x="643" y="860" type="line"/>
      <point x="210" y="860" type="line"/>
    </contour>
  </outline>
</glyph>
<glyph name="Obreve.color6" format="2">
  <advance width="600"/>
  <unicode hex="014E"/>
  <outline>
    <contour>
      <point x="464" y="860" type="line"/>
      <point x="643" y="860" type="line"/>
      <point x="677" y="899" type="line"/>
      <point x="677" y="900" type="line"/>
      <point x="501" y="900" type="line"/>
    </contour>
  </outline>
</glyph>
<glyph name="obreve.color5" format="2">
  <advance width="600"/>
  <unicode hex="014F"/>
  <outline>
    <contour>
      <point x="219" y="720" type="line"/>
      <point x="365" y="720" type="line"/>
      <point x="328" y="780" type="line"/>
      <point x="182" y="780" type="line"/>
      <point x="182" y="778" type="line"/>
    </contour>
  </outline>
</glyph>
<glyph name="Ohungarumlaut.color4" format="2">
  <advance width="600"/>
  <unicode hex="0150"/>
  <outline>
    <contour>
      <point x="453" y="760" type="line"/>
      <point x="579" y="760" type="line"/>
      <point x="694" y="899" type="line"/>
      <point x="694" y="900" type="line"/>
      <point x="488" y="900" type="line"/>
    </contour>
  </outline>
</glyph>
<glyph name="ohungarumlaut.color4" format="2">
  <advance width="600"/>
  <unicode hex="0151"/>
  <outline>
    <contour>
      <point x="479" y="590" type="line"/>
      <point x="575" y="590" type="line"/>
      <point x="690" y="819" type="line"/>
      <point x="690" y="820" type="line"/>
      <point x="514" y="820" type="line"/>
    </contour>
  </outline>
</glyph>
<glyph name="OE.color2" format="2">
  <advance width="600"/>
  <unicode hex="0152"/>
  <outline>
    <contour>
      <point x="790" y="0" type="line"/>
      <point x="1275" y="0" type="line"/>
      <point x="1275" y="204" type="line"/>
      <point x="588" y="204" type="line"/>
      <point x="588" y="203" type="line"/>
    </contour>
  </outline>
</glyph>
<glyph name="OE.color3" format="2">
  <advance width="600"/>
  <unicode hex="0152"/>
  <outline>
    <contour>
      <point x="588" y="204" type="line"/>
      <point x="802" y="204" type="line"/>
      <point x="802" y="526" type="line"/>
      <point x="588" y="526" type="line"/>
    </contour>
  </outline>
</glyph>
<glyph name="OE.color6" format="2">
  <advance width="600"/>
  <unicode hex="0152"/>
  <outline>
    <contour>
      <point x="802" y="526" type="line"/>
      <point x="1124" y="526" type="line"/>
      <point x="1326" y="729" type="line"/>
      <point x="1326" y="730" type="line"/>
      <point x="640" y="730" type="line"/>
    </contour>
  </outline>
</glyph>
<glyph name="oe.color7" format="2">
  <advance width="600"/>
  <unicode hex="0153"/>
  <outline>
    <contour>
      <point x="1121" y="221" type="line"/>
      <point x="1122" y="221" type="line"/>
      <point x="1335" y="328" type="line"/>
      <point x="1335" y="351" type="line"/>
      <point x="1121" y="351" type="line"/>
    </contour>
  </outline>
</glyph>
<glyph name="racute.color2" format="2">
  <advance width="600"/>
  <unicode hex="0155"/>
  <outline>
    <contour>
      <point x="269" y="590" type="line"/>
      <point x="375" y="590" type="line"/>
      <point x="480" y="819" type="line"/>
      <point x="480" y="820" type="line"/>
      <point x="304" y="820" type="line"/>
    </contour>
  </outline>
</glyph>
<glyph name="rcaron.color0" format="2">
  <advance width="600"/>
  <unicode hex="0159"/>
  <outline>
    <contour>
      <point x="35" y="0" type="line"/>
      <point x="249" y="0" type="line"/>
      <point x="249" y="530" type="line"/>
      <point x="248" y="530" type="line"/>
      <point x="35" y="423" type="line"/>
    </contour>
  </outline>
</glyph>
<glyph name="rcaron.color3" format="2">
  <advance width="600"/>
  <unicode hex="0159"/>
  <outline>
    <contour>
      <point x="251" y="582" type="line"/>
      <point x="395" y="582" type="line"/>
      <point x="539" y="749" type="line"/>
      <point x="539" y="750" type="line"/>
      <point x="385" y="750" type="line"/>
    </contour>
  </outline>
</glyph>
<glyph name="sacute.color3" format="2">
  <advance width="600"/>
  <unicode hex="015B"/>
  <outline>
    <contour>
      <point x="271" y="590" type="line"/>
      <point x="377" y="590" type="line"/>
      <point x="482" y="819" type="line"/>
      <point x="482" y="820" type="line"/>
      <point x="306" y="820" type="line"/>
    </contour>
  </outline>
</glyph>
<glyph name="Scircumflex.color2" format="2">
  <advance width="600"/>
  <unicode hex="015C"/>
  <outline>
    <contour>
      <point x="227" y="262" type="line"/>
      <point x="578" y="262" type="line"/>
      <point x="578" y="466" type="line"/>
      <point x="25" y="466" type="line"/>
      <point x="25" y="465" type="line"/>
    </contour>
  </outline>
</glyph>
<glyph name="Scircumflex.color5" format="2">
  <advance width="600"/>
  <unicode hex="015C"/>
  <outline>
    <contour>
      <point x="499" y="760" type="line"/>
      <point x="656" y="760" type="line"/>
      <point x="656" y="761" type="line"/>
      <point x="498" y="900" type="line"/>
      <point x="365" y="867" type="line"/>
    </contour>
  </outline>
</glyph>
<glyph name="scircumflex.color0" format="2">
  <advance width="600"/>
  <unicode hex="015D"/>
  <outline>
    <contour>
      <point x="148" y="351" type="line"/>
      <point x="642" y="351" type="line"/>
      <point x="642" y="352" type="line"/>
      <point x="535" y="530" type="line"/>
      <point x="122" y="530" type="line"/>
    </contour>
  </outline>
</glyph>
<glyph name="scircumflex.color3" format="2">
  <advance width="600"/>
  <unicode hex="015D"/>
  <outline>
    <contour>
      <point x="387" y="592" type="line"/>
      <point x="544" y="592" type="line"/>
      <point x="544" y="593" type="line"/>
      <point x="406" y="770" type="line"/>
      <point x="283" y="739" type="line"/>
    </contour>
  </outline>
</glyph>
<glyph name="Scedilla.color8" format="2">
  <advance width="600"/>
  <unicode hex="015E"/>
  <outline>
    <contour>
      <point x="391" y="-126" type="line"/>
      <point x="541" y="-126" type="line"/>
      <point x="541" y="-125" type="line"/>
      <point x="471" y="-32" type="line"/>
      <point x="437" y="-32" type="line"/>
    </contour>
  </outline>
</glyph>
<glyph name="Scedilla" format="2">
  <advance width="817"/>
  <unicode hex="015E"/>
  <anchor x="412" y="0" name="bottom"/>
  <anchor x="416" y="730" name="top"/>
  <outline>
    <contour>
      <point x="239" y="526" type="line"/>
      <point x="792" y="526" type="line"/>
      <point x="792" y="527" type="line"/>
      <point x="590" y="730" type="line"/>
      <point x="239" y="730" type="line"/>
    </contour>
    <contour>
      <point x="227" y="0" type="line"/>
      <point x="578" y="0" type="line"/>
      <point x="578" y="204" type="line"/>
      <point x="25" y="204" type="line"/>
      <point x="25" y="203" type="line"/>
    </contour>
    <contour>
      <point x="227" y="262" type="line"/>
      <point x="578" y="262" type="line"/>
      <point x="578" y="466" type="line"/>
      <point x="25" y="466" type="line"/>
      <point x="25" y="465" type="line"/>
    </contour>
    <contour>
      <point x="25" y="466" type="line"/>
      <point x="239" y="466" type="line"/>
      <point x="239" y="730" type="line"/>
      <point x="238" y="730" type="line"/>
      <point x="25" y="523" type="line"/>
    </contour>
    <contour>
      <point x="578" y="0" type="line"/>
      <point x="579" y="0" type="line"/>
      <point x="792" y="193" type="line"/>
      <point x="792" y="269" type="line"/>
      <point x="579" y="466" type="line"/>
      <point x="578" y="466" type="line"/>
    </contour>
    <contour>
      <point x="275" y="-126" type="line"/>
      <point x="391" y="-126" type="line"/>
      <point x="457" y="-1" type="line"/>
      <point x="457" y="0" type="line"/>
      <point x="352" y="0" type="line"/>
      <point x="275" y="-125" type="line"/>
    </contour>
    <contour>
      <point x="275" y="-260" type="line"/>
      <point x="433" y="-260" type="line"/>
      <point x="433" y="-168" type="line"/>
      <point x="215" y="-168" type="line"/>
      <point x="215" y="-169" type="line"/>
    </contour>
    <contour>
      <point x="433" y="-260" type="line"/>
      <point x="434" y="-260" type="line"/>
      <point x="541" y="-204" type="line"/>
      <point x="541" y="-126" type="line"/>
      <point x="433" y="-126" type="line"/>
    </contour>
    <contour>
      <point x="391" y="-126" type="line"/>
      <point x="541" y="-126" type="line"/>
      <point x="541" y="-125" type="line"/>
      <point x="471" y="-32" type="line"/>
      <point x="437" y="-32" type="line"/>
    </contour>
  </outline>
</glyph>
<glyph name="Scaron" format="2">
  <advance width="817"/>
  <unicode hex="0160"/>
  <anchor x="412" y="0" name="bottom"/>
  <anchor x="416" y="730" name="top"/>
  <outline>
    <contour>
      <point x="239" y="526" type="line"/>
      <point x="792" y="526" type="line"/>
      <point x="792" y="527" type="line"/>
      <point x="590" y="730" type="line"/>
      <point x="239" y="730" type="line"/>
    </contour>
    <contour>
      <point x="227" y="0" type="line"/>
      <point x="578" y="0" type="line"/>
      <point x="578" y="204" type="line"/>
      <point x="25" y="204" type="line"/>
      <point x="25" y="203" type="line"/>
    </contour>
    <contour>
      <point x="227" y="262" type="line"/>
      <point x="578" y="262" type="line"/>
      <point x="578" y="466" type="line"/>
      <point x="25" y="466" type="line"/>
      <point x="25" y="465" type="line"/>
    </contour>
    <contour>
      <point x="25" y="466" type="line"/>
      <point x="239" y="466" type="line"/>
      <point x="239" y="730" type="line"/>
      <point x="238" y="730" type="line"/>
      <point x="25" y="523" type="line"/>
    </contour>
    <contour>
      <point x="578" y="0" type="line"/>
      <point x="579" y="0" type="line"/>
      <point x="792" y="193" type="line"/>
      <point x="792" y="269" type="line"/>
      <point x="579" y="466" type="line"/>
      <point x="578" y="466" type="line"/>
    </contour>
    <contour>
      <point x="342" y="760" type="line"/>
      <point x="475" y="793" type="line"/>
      <point x="341" y="900" type="line"/>
      <point x="184" y="900" type="line"/>
      <point x="184" y="899" type="line"/>
    </contour>
    <contour>
      <point x="342" y="760" type="line"/>
      <point x="496" y="760" type="line"/>
      <point x="650" y="899" type="line"/>
      <point x="650" y="900" type="line"/>
      <point x="496" y="900" type="line"/>
    </contour>
  </outline>
</glyph>
<glyph name="Tcedilla.color6" format="2">
  <advance width="600"/>
  <unicode hex="0162"/>
  <outline>
    <contour>
      <point x="392" y="-126" type="line"/>
      <point x="542" y="-126" type="line"/>
      <point x="542" y="-125" type="line"/>
      <point x="472" y="-32" type="line"/>
      <point x="438" y="-32" type="line"/>
    </contour>
  </outline>
</glyph>
<glyph name="Tcaron.color4" format="2">
  <advance width="600"/>
  <unicode hex="0164"/>
  <outline>
    <contour>
      <point x="362" y="760" type="line"/>
      <point x="516" y="760" type="line"/>
      <point x="670" y="899" type="line"/>
      <point x="670" y="900" type="line"/>
      <point x="516" y="900" type="line"/>
    </contour>
  </outline>
</glyph>
<glyph name="tbar" format="2">
  <advance width="610"/>
  <unicode hex="0167"/>
  <anchor x="339" y="0" name="bottom"/>
  <anchor x="152" y="794" name="top"/>
  <outline>
    <contour>
      <point x="0" y="273" type="line"/>
      <point x="521" y="273" type="line"/>
      <point x="521" y="297" type="line"/>
      <point x="0" y="297" type="line"/>
    </contour>
    <contour>
      <point x="38" y="326" type="line"/>
      <point x="39" y="326" type="line"/>
      <point x="252" y="530" type="line"/>
      <point x="252" y="703" type="line"/>
      <point x="38" y="703" type="line"/>
    </contour>
    <contour>
      <point x="39" y="326" type="line"/>
      <point x="496" y="326" type="line"/>
      <point x="496" y="530" type="line"/>
      <point x="252" y="530" type="line"/>
    </contour>
    <contour>
      <point x="251" y="0" type="line"/>
      <point x="252" y="0" type="line"/>
      <point x="252" y="326" type="line"/>
      <point x="38" y="326" type="line"/>
      <point x="38" y="107" type="line"/>
    </contour>
    <contour>
      <point x="252" y="0" type="line"/>
      <point x="582" y="0" type="line"/>
      <point x="605" y="203" type="line"/>
      <point x="605" y="204" type="line"/>
      <point x="252" y="204" type="line"/>
    </contour>
  </outline>
</glyph>
<glyph name="Utilde" format="2">
  <advance width="837"/>
  <unicode hex="0168"/>
  <anchor x="442" y="0" name="bottom"/>
  <anchor x="811" y="730" name="horn"/>
  <anchor x="436" y="730" name="top"/>
  <outline>
    <contour>
      <point x="588" y="0" type="line"/>
      <point x="589" y="0" type="line"/>
      <point x="802" y="207" type="line"/>
      <point x="802" y="730" type="line"/>
      <point x="588" y="730" type="line"/>
    </contour>
    <contour>
      <point x="237" y="0" type="line"/>
      <point x="588" y="0" type="line"/>
      <point x="588" y="204" type="line"/>
      <point x="35" y="204" type="line"/>
      <point x="35" y="203" type="line"/>
    </contour>
    <contour>
      <point x="35" y="204" type="line"/>
      <point x="249" y="204" type="line"/>
      <point x="249" y="730" type="line"/>
      <point x="35" y="730" type="line"/>
    </contour>
    <contour>
      <point x="198" y="772" type="line"/>
      <point x="338" y="772" type="line"/>
      <point x="338" y="864" type="line"/>
      <point x="198" y="853" type="line"/>
    </contour>
    <contour>
      <point x="527" y="806" type="line"/>
      <point x="666" y="827" type="line"/>
      <point x="666" y="915" type="line"/>
      <point x="527" y="915" type="line"/>
    </contour>
    <contour>
      <point x="517" y="756" type="line"/>
      <point x="528" y="756" type="line"/>
      <point x="666" y="826" type="line"/>
      <point x="666" y="827" type="line"/>
      <point x="347" y="923" type="line"/>
      <point x="336" y="923" type="line"/>
      <point x="198" y="854" type="line"/>
      <point x="198" y="853" type="line"/>
    </contour>
  </outline>
</glyph>
<glyph name="utilde.color4" format="2">
  <advance width="600"/>
  <unicode hex="0169"/>
  <outline>
    <contour>
      <point x="493" y="650" type="line"/>
      <point x="612" y="640" type="line"/>
      <point x="612" y="759" type="line"/>
      <point x="493" y="759" type="line"/>
    </contour>
  </outline>
</glyph>
<glyph name="umacron.color3" format="2">
  <advance width="600"/>
  <unicode hex="016B"/>
  <outline>
    <contour>
      <point x="194" y="628" type="line"/>
      <point x="620" y="628" type="line"/>
      <point x="620" y="740" type="line"/>
      <point x="194" y="740" type="line"/>
    </contour>
  </outline>
</glyph>
<glyph name="ubreve.color4" format="2">
  <advance width="600"/>
  <unicode hex="016D"/>
  <outline>
    <contour>
      <point x="199" y="720" type="line"/>
      <point x="345" y="720" type="line"/>
      <point x="308" y="780" type="line"/>
      <point x="162" y="780" type="line"/>
      <point x="162" y="778" type="line"/>
    </contour>
  </outline>
</glyph>
<glyph name="ubreve.color5" format="2">
  <advance width="600"/>
  <unicode hex="016D"/>
  <outline>
    <contour>
      <point x="270" y="598" type="line"/>
      <point x="525" y="598" type="line"/>
      <point x="596" y="720" type="line"/>
      <point x="199" y="720" type="line"/>
    </contour>
  </outline>
</glyph>
<glyph name="Uring.color6" format="2">
  <advance width="600"/>
  <unicode hex="016E"/>
  <outline>
    <contour>
      <point x="364" y="864" type="line"/>
      <point x="594" y="864" type="line"/>
      <point x="594" y="865" type="line"/>
      <point x="534" y="948" type="line"/>
      <point x="364" y="948" type="line"/>
    </contour>
  </outline>
</glyph>
<glyph name="uring.color4" format="2">
  <advance width="600"/>
  <unicode hex="016F"/>
  <outline>
    <contour>
      <point x="314" y="602" type="line"/>
      <point x="484" y="602" type="line"/>
      <point x="484" y="684" type="line"/>
      <point x="254" y="684" type="line"/>
      <point x="254" y="683" type="line"/>
    </contour>
  </outline>
</glyph>
<glyph name="Uhungarumlaut.color3" format="2">
  <advance width="600"/>
  <unicode hex="0170"/>
  <outline>
    <contour>
      <point x="453" y="760" type="line"/>
      <point x="579" y="760" type="line"/>
      <point x="694" y="899" type="line"/>
      <point x="694" y="900" type="line"/>
      <point x="488" y="900" type="line"/>
    </contour>
  </outline>
</glyph>
<glyph name="uhungarumlaut.color4" format="2">
  <advance width="600"/>
  <unicode hex="0171"/>
  <outline>
    <contour>
      <point x="259" y="590" type="line"/>
      <point x="355" y="590" type="line"/>
      <point x="470" y="819" type="line"/>
      <point x="470" y="820" type="line"/>
      <point x="294" y="820" type="line"/>
    </contour>
  </outline>
</glyph>
<glyph name="Uogonek" format="2">
  <advance width="837"/>
  <unicode hex="0172"/>
  <anchor x="442" y="0" name="bottom"/>
  <anchor x="811" y="730" name="horn"/>
  <anchor x="436" y="730" name="top"/>
  <outline>
    <contour>
      <point x="588" y="0" type="line"/>
      <point x="589" y="0" type="line"/>
      <point x="802" y="207" type="line"/>
      <point x="802" y="730" type="line"/>
      <point x="588" y="730" type="line"/>
    </contour>
    <contour>
      <point x="237" y="0" type="line"/>
      <point x="588" y="0" type="line"/>
      <point x="588" y="204" type="line"/>
      <point x="35" y="204" type="line"/>
      <point x="35" y="203" type="line"/>
    </contour>
    <contour>
      <point x="35" y="204" type="line"/>
      <point x="249" y="204" type="line"/>
      <point x="249" y="730" type="line"/>
      <point x="35" y="730" type="line"/>
    </contour>
    <contour>
      <point x="305" y="-86" type="line"/>
      <point x="433" y="-86" type="line"/>
      <point x="507" y="-1" type="line"/>
      <point x="507" y="0" type="line"/>
      <point x="382" y="0" type="line"/>
      <point x="305" y="-85" type="line"/>
    </contour>
    <contour>
      <point x="432" y="-230" type="line"/>
      <point x="433" y="-230" type="line"/>
      <point x="433" y="-86" type="line"/>
      <point x="305" y="-86" type="line"/>
      <point x="305" y="-174" type="line"/>
    </contour>
    <contour>
      <point x="433" y="-230" type="line"/>
      <point x="551" y="-230" type="line"/>
      <point x="611" y="-139" type="line"/>
      <point x="611" y="-138" type="line"/>
      <point x="433" y="-138" type="line"/>
    </contour>
  </outline>
</glyph>
<glyph name="uogonek.color5" format="2">
  <advance width="600"/>
  <unicode hex="0173"/>
  <outline>
    <contour>
      <point x="413" y="-230" type="line"/>
      <point x="531" y="-230" type="line"/>
      <point x="591" y="-139" type="line"/>
      <point x="591" y="-138" type="line"/>
      <point x="413" y="-138" type="line"/>
    </contour>
  </outline>
</glyph>
<glyph name="Wcircumflex.color0" format="2">
  <advance width="600"/>
  <unicode hex="0174"/>
  <outline>
    <contour>
      <point x="736" y="0" type="line"/>
      <point x="737" y="0" type="line"/>
      <point x="864" y="192" type="line"/>
      <point x="686" y="730" type="line"/>
      <point x="482" y="730" type="line"/>
    </contour>
  </outline>
</glyph>
<glyph name="wcircumflex.color1" format="2">
  <advance width="600"/>
  <unicode hex="0175"/>
  <outline>
    <contour>
      <point x="142" y="1" type="line"/>
      <point x="498" y="1" type="line"/>
      <point x="498" y="205" type="line"/>
      <point x="35" y="205" type="line"/>
      <point x="35" y="204" type="line"/>
    </contour>
  </outline>
</glyph>
<glyph name="wcircumflex.color6" format="2">
  <advance width="600"/>
  <unicode hex="0175"/>
  <outline>
    <contour>
      <point x="375" y="592" type="line"/>
      <point x="529" y="592" type="line"/>
      <point x="663" y="770" type="line"/>
      <point x="519" y="770" type="line"/>
      <point x="375" y="593" type="line"/>
    </contour>
  </outline>
</glyph>
<glyph name="Zacute.color2" format="2">
  <advance width="600"/>
  <unicode hex="0179"/>
  <outline>
    <contour>
      <point x="41" y="0" type="line"/>
      <point x="750" y="0" type="line"/>
      <point x="750" y="204" type="line"/>
      <point x="41" y="204" type="line"/>
    </contour>
  </outline>
</glyph>
<glyph name="Zacute.color3" format="2">
  <advance width="600"/>
  <unicode hex="0179"/>
  <outline>
    <contour>
      <point x="302" y="760" type="line"/>
      <point x="428" y="760" type="line"/>
      <point x="543" y="899" type="line"/>
      <point x="543" y="900" type="line"/>
      <point x="337" y="900" type="line"/>
    </contour>
  </outline>
</glyph>
<glyph name="zacute.color2" format="2">
  <advance width="600"/>
  <unicode hex="017A"/>
  <outline>
    <contour>
      <point x="137" y="0" type="line"/>
      <point x="757" y="0" type="line"/>
      <point x="757" y="179" type="line"/>
      <point x="30" y="179" type="line"/>
    </contour>
  </outline>
</glyph>
<glyph name="zacute.color3" format="2">
  <advance width="600"/>
  <unicode hex="017A"/>
  <outline>
    <contour>
      <point x="344" y="590" type="line"/>
      <point x="450" y="590" type="line"/>
      <point x="555" y="819" type="line"/>
      <point x="555" y="820" type="line"/>
      <point x="379" y="820" type="line"/>
    </contour>
  </outline>
</glyph>
<glyph name="zdotaccent" format="2">
  <advance width="793"/>
  <unicode hex="017C"/>
  <anchor x="412" y="750" name="top"/>
  <outline>
    <contour>
      <point x="36" y="351" type="line"/>
      <point x="647" y="351" type="line"/>
      <point x="673" y="530" type="line"/>
      <point x="143" y="530" type="line"/>
      <point x="36" y="352" type="line"/>
    </contour>
    <contour>
      <point x="273" y="149" type="line"/>
      <point x="763" y="365" type="line"/>
      <point x="673" y="530" type="line"/>
      <point x="30" y="180" type="line"/>
      <point x="30" y="179" type="line"/>
    </contour>
    <contour>
      <point x="137" y="0" type="line"/>
      <point x="757" y="0" type="line"/>
      <point x="757" y="179" type="line"/>
      <point x="30" y="179" type="line"/>
    </contour>
    <contour>
      <point x="310" y="640" type="line"/>
      <point x="524" y="640" type="line"/>
      <point x="524" y="800" type="line"/>
      <point x="310" y="800" type="line"/>
    </contour>
  </outline>
</glyph>
<glyph name="Schwa.color1" format="2">
  <advance width="600"/>
  <unicode hex="018F"/>
  <outline>
    <contour>
      <point x="227" y="0" type="line"/>
      <point x="497" y="0" type="line"/>
      <point x="497" y="204" type="line"/>
      <point x="25" y="204" type="line"/>
      <point x="25" y="203" type="line"/>
    </contour>
  </outline>
</glyph>
<glyph name="Schwa.color2" format="2">
  <advance width="600"/>
  <unicode hex="018F"/>
  <outline>
    <contour>
      <point x="25" y="204" type="line"/>
      <point x="239" y="204" type="line"/>
      <point x="239" y="467" type="line"/>
      <point x="238" y="467" type="line"/>
      <point x="25" y="265" type="line"/>
    </contour>
  </outline>
</glyph>
<glyph name="Schwa.color3" format="2">
  <advance width="600"/>
  <unicode hex="018F"/>
  <outline>
    <contour>
      <point x="239" y="263" type="line"/>
      <point x="497" y="263" type="line"/>
      <point x="497" y="467" type="line"/>
      <point x="239" y="467" type="line"/>
    </contour>
  </outline>
</glyph>
<glyph name="florin.color2" format="2">
  <advance width="600"/>
  <unicode hex="0192"/>
  <outline>
    <contour>
      <point x="219" y="-206" type="line"/>
      <point x="423" y="-2" type="line"/>
      <point x="423" y="173" type="line"/>
      <point x="219" y="173" type="line"/>
    </contour>
  </outline>
</glyph>
<glyph name="florin.color4" format="2">
  <advance width="600"/>
  <unicode hex="0192"/>
  <outline>
    <contour>
      <point x="220" y="173" type="line"/>
      <point x="683" y="173" type="line"/>
      <point x="683" y="377" type="line"/>
      <point x="423" y="377" type="line"/>
    </contour>
    <contour>
      <point x="423" y="496" type="line"/>
      <point x="763" y="496" type="line"/>
      <point x="763" y="700" type="line"/>
      <point x="423" y="700" type="line"/>
    </contour>
  </outline>
</glyph>
<glyph name="Uhorn.color3" format="2">
  <advance width="600"/>
  <unicode hex="01AF"/>
  <outline>
    <contour>
      <point x="882" y="576" type="line"/>
      <point x="883" y="576" type="line"/>
      <point x="1056" y="683" type="line"/>
      <point x="1056" y="854" type="line"/>
      <point x="882" y="854" type="line"/>
    </contour>
  </outline>
</glyph>
<glyph name="DZcaron.color4" format="2">
  <advance width="600"/>
  <unicode hex="01C4"/>
  <outline>
    <contour>
      <point x="902" y="526" type="line"/>
      <point x="1445" y="526" type="line"/>
      <point x="1471" y="730" type="line"/>
      <point x="902" y="730" type="line"/>
    </contour>
  </outline>
</glyph>
<glyph name="DZcaron.color5" format="2">
  <advance width="600"/>
  <unicode hex="01C4"/>
  <outline>
    <contour>
      <point x="1111" y="109" type="line"/>
      <point x="1611" y="565" type="line"/>
      <point x="1471" y="730" type="line"/>
      <point x="908" y="205" type="line"/>
      <point x="908" y="204" type="line"/>
    </contour>
  </outline>
</glyph>
<glyph name="DZcaron.color7" format="2">
  <advance width="600"/>
  <unicode hex="01C4"/>
  <outline>
    <contour>
      <point x="1179" y="760" type="line"/>
      <point x="1312" y="793" type="line"/>
      <point x="1178" y="900" type="line"/>
      <point x="1021" y="900" type="line"/>
      <point x="1021" y="899" type="line"/>
    </contour>
  </outline>
</glyph>
<glyph name="DZcaron.color8" format="2">
  <advance width="600"/>
  <unicode hex="01C4"/>
  <outline>
    <contour>
      <point x="1179" y="760" type="line"/>
      <point x="1333" y="760" type="line"/>
      <point x="1487" y="899" type="line"/>
      <point x="1487" y="900" type="line"/>
      <point x="1333" y="900" type="line"/>
    </contour>
  </outline>
</glyph>
<glyph name="Dzcaron.color0" format="2">
  <advance width="600"/>
  <unicode hex="01C5"/>
  <outline>
    <contour>
      <point x="249" y="526" type="line"/>
      <point x="842" y="526" type="line"/>
      <point x="842" y="527" type="line"/>
      <point x="680" y="730" type="line"/>
      <point x="249" y="730" type="line"/>
    </contour>
  </outline>
</glyph>
<glyph name="Dzcaron.color2" format="2">
  <advance width="600"/>
  <unicode hex="01C5"/>
  <outline>
    <contour>
      <point x="35" y="200" type="line"/>
      <point x="249" y="200" type="line"/>
      <point x="249" y="730" type="line"/>
      <point x="35" y="730" type="line"/>
    </contour>
  </outline>
</glyph>
<glyph name="Dzcaron.color6" format="2">
  <advance width="600"/>
  <unicode hex="01C5"/>
  <outline>
    <contour>
      <point x="1004" y="0" type="line"/>
      <point x="1624" y="0" type="line"/>
      <point x="1624" y="179" type="line"/>
      <point x="897" y="179" type="line"/>
    </contour>
  </outline>
</glyph>
<glyph name="Dzcaron.color7" format="2">
  <advance width="600"/>
  <unicode hex="01C5"/>
  <outline>
    <contour>
      <point x="1193" y="582" type="line"/>
      <point x="1316" y="613" type="line"/>
      <point x="1212" y="750" type="line"/>
      <point x="1055" y="750" type="line"/>
      <point x="1055" y="749" type="line"/>
    </contour>
  </outline>
</glyph>
<glyph name="dzcaron.color0" format="2">
  <advance width="600"/>
  <unicode hex="01C6"/>
  <outline>
    <contour>
      <point x="782" y="329" type="line"/>
      <point x="783" y="329" type="line"/>
      <point x="783" y="794" type="line"/>
      <point x="569" y="794" type="line"/>
      <point x="569" y="530" type="line"/>
    </contour>
  </outline>
</glyph>
<glyph name="dzcaron.color4" format="2">
  <advance width="600"/>
  <unicode hex="01C6"/>
  <outline>
    <contour>
      <point x="569" y="0" type="line"/>
      <point x="570" y="0" type="line"/>
      <point x="783" y="107" type="line"/>
      <point x="783" y="326" type="line"/>
      <point x="569" y="326" type="line"/>
    </contour>
  </outline>
</glyph>
<glyph name="dzcaron.color5" format="2">
  <advance width="600"/>
  <unicode hex="01C6"/>
  <outline>
    <contour>
      <point x="844" y="351" type="line"/>
      <point x="1455" y="351" type="line"/>
      <point x="1481" y="530" type="line"/>
      <point x="951" y="530" type="line"/>
      <point x="844" y="352" type="line"/>
    </contour>
  </outline>
</glyph>
<glyph name="dzcaron.color6" format="2">
  <advance width="600"/>
  <unicode hex="01C6"/>
  <outline>
    <contour>
      <point x="1081" y="149" type="line"/>
      <point x="1571" y="365" type="line"/>
      <point x="1481" y="530" type="line"/>
      <point x="838" y="180" type="line"/>
      <point x="838" y="179" type="line"/>
    </contour>
  </outline>
</glyph>
<glyph name="dzcaron.color8" format="2">
  <advance width="600"/>
  <unicode hex="01C6"/>
  <outline>
    <contour>
      <point x="1134" y="582" type="line"/>
      <point x="1257" y="613" type="line"/>
      <point x="1153" y="750" type="line"/>
      <point x="996" y="750" type="line"/>
      <point x="996" y="749" type="line"/>
    </contour>
  </outline>
</glyph>
<glyph name="dzcaron" format="2">
  <advance width="1601"/>
  <unicode hex="01C6"/>
  <anchor x="534" y="656" name="stroke"/>
  <anchor x="1225" y="530" name="top"/>
  <outline>
    <contour>
      <point x="782" y="329" type="line"/>
      <point x="783" y="329" type="line"/>
      <point x="783" y="794" type="line"/>
      <point x="569" y="794" type="line"/>
      <point x="569" y="530" type="line"/>
    </contour>
    <contour>
      <point x="259" y="326" type="line"/>
      <point x="783" y="326" type="line"/>
      <point x="783" y="327" type="line"/>
      <point x="621" y="530" type="line"/>
      <point x="259" y="530" type="line"/>
    </contour>
    <contour>
      <point x="147" y="0" type="line"/>
      <point x="569" y="0" type="line"/>
      <point x="569" y="204" type="line"/>
      <point x="45" y="204" type="line"/>
      <point x="45" y="203" type="line"/>
    </contour>
    <contour>
      <point x="45" y="204" type="line"/>
      <point x="259" y="204" type="line"/>
      <point x="259" y="530" type="line"/>
      <point x="258" y="530" type="line"/>
      <point x="45" y="423" type="line"/>
    </contour>
    <contour>
      <point x="569" y="0" type="line"/>
      <point x="570" y="0" type="line"/>
      <point x="783" y="107" type="line"/>
      <point x="783" y="326" type="line"/>
      <point x="569" y="326" type="line"/>
    </contour>
    <contour>
      <point x="844" y="351" type="line"/>
      <point x="1455" y="351" type="line"/>
      <point x="1481" y="530" type="line"/>
      <point x="951" y="530" type="line"/>
      <point x="844" y="352" type="line"/>
    </contour>
    <contour>
      <point x="1081" y="149" type="line"/>
      <point x="1571" y="365" type="line"/>
      <point x="1481" y="530" type="line"/>
      <point x="838" y="180" type="line"/>
      <point x="838" y="179" type="line"/>
    </contour>
    <contour>
      <point x="945" y="0" type="line"/>
      <point x="1565" y="0" type="line"/>
      <point x="1565" y="179" type="line"/>
      <point x="838" y="179" type="line"/>
    </contour>
    <contour>
      <point x="1134" y="582" type="line"/>
      <point x="1257" y="613" type="line"/>
      <point x="1153" y="750" type="line"/>
      <point x="996" y="750" type="line"/>
      <point x="996" y="749" type="line"/>
    </contour>
    <contour>
      <point x="1134" y="582" type="line"/>
      <point x="1278" y="582" type="line"/>
      <point x="1422" y="749" type="line"/>
      <point x="1422" y="750" type="line"/>
      <point x="1268" y="750" type="line"/>
    </contour>
  </outline>
</glyph>
<glyph name="LJ.color1" format="2">
  <advance width="600"/>
  <unicode hex="01C7"/>
  <outline>
    <contour>
      <point x="35" y="204" type="line"/>
      <point x="249" y="204" type="line"/>
      <point x="249" y="730" type="line"/>
      <point x="35" y="730" type="line"/>
    </contour>
  </outline>
</glyph>
<glyph name="Lj.color2" format="2">
  <advance width="600"/>
  <unicode hex="01C8"/>
  <outline>
    <contour>
      <point x="815" y="-206" type="line"/>
      <point x="816" y="-206" type="line"/>
      <point x="1009" y="-99" type="line"/>
      <point x="1009" y="503" type="line"/>
      <point x="1008" y="503" type="line"/>
      <point x="815" y="393" type="line"/>
    </contour>
  </outline>
</glyph>
<glyph name="Lj" format="2">
  <advance width="1054"/>
  <unicode hex="01C8"/>
  <anchor x="405" y="0" name="bottom"/>
  <anchor x="173" y="730" name="top"/>
  <outline>
    <contour>
      <point x="237" y="0" type="line"/>
      <point x="728" y="0" type="line"/>
      <point x="728" y="204" type="line"/>
      <point x="35" y="204" type="line"/>
      <point x="35" y="203" type="line"/>
    </contour>
    <contour>
      <point x="35" y="204" type="line"/>
      <point x="249" y="204" type="line"/>
      <point x="249" y="730" type="line"/>
      <point x="35" y="730" type="line"/>
    </contour>
    <contour>
      <point x="815" y="-206" type="line"/>
      <point x="816" y="-206" type="line"/>
      <point x="1009" y="-99" type="line"/>
      <point x="1009" y="503" type="line"/>
      <point x="1008" y="503" type="line"/>
      <point x="815" y="393" type="line"/>
    </contour>
    <contour>
      <point x="603" y="-206" type="line"/>
      <point x="815" y="-206" type="line"/>
      <point x="815" y="-26" type="line"/>
      <point x="603" y="-26" type="line"/>
    </contour>
    <contour>
      <point x="815" y="469" type="line"/>
      <point x="816" y="469" type="line"/>
      <point x="1009" y="576" type="line"/>
      <point x="1009" y="682" type="line"/>
      <point x="815" y="682" type="line"/>
    </contour>
  </outline>
</glyph>
<glyph name="lj.color2" format="2">
  <advance width="600"/>
  <unicode hex="01C9"/>
  <outline>
    <contour>
      <point x="538" y="-206" type="line"/>
      <point x="539" y="-206" type="line"/>
      <point x="732" y="-99" type="line"/>
      <point x="732" y="503" type="line"/>
      <point x="731" y="503" type="line"/>
      <point x="538" y="393" type="line"/>
    </contour>
  </outline>
</glyph>
<glyph name="lj.color3" format="2">
  <advance width="600"/>
  <unicode hex="01C9"/>
  <outline>
    <contour>
      <point x="326" y="-206" type="line"/>
      <point x="538" y="-206" type="line"/>
      <point x="538" y="-26" type="line"/>
      <point x="326" y="-26" type="line"/>
    </contour>
  </outline>
</glyph>
<glyph name="lj.color4" format="2">
  <advance width="600"/>
  <unicode hex="01C9"/>
  <outline>
    <contour>
      <point x="538" y="469" type="line"/>
      <point x="539" y="469" type="line"/>
      <point x="732" y="576" type="line"/>
      <point x="732" y="682" type="line"/>
      <point x="538" y="682" type="line"/>
    </contour>
  </outline>
</glyph>
<glyph name="NJ.color5" format="2">
  <advance width="600"/>
  <unicode hex="01CA"/>
  <outline>
    <contour>
      <point x="842" y="526" type="line"/>
      <point x="1123" y="526" type="line"/>
      <point x="1285" y="730" type="line"/>
      <point x="842" y="730" type="line"/>
    </contour>
  </outline>
</glyph>
<glyph name="NJ" format="2">
  <advance width="1474"/>
  <unicode hex="01CA"/>
  <anchor x="433" y="0" name="bottom"/>
  <anchor x="1173" y="730" name="top"/>
  <outline>
    <contour>
      <point x="782" y="152" type="line"/>
      <point x="782" y="730" type="line"/>
      <point x="568" y="730" type="line"/>
      <point x="568" y="362" type="line"/>
    </contour>
    <contour>
      <point x="35" y="0" type="line"/>
      <point x="249" y="0" type="line"/>
      <point x="249" y="381" type="line"/>
      <point x="35" y="591" type="line"/>
    </contour>
    <contour>
      <point x="642" y="-6" type="line"/>
      <point x="643" y="-6" type="line"/>
      <point x="782" y="151" type="line"/>
      <point x="782" y="152" type="line"/>
      <point x="188" y="736" type="line"/>
      <point x="187" y="736" type="line"/>
      <point x="35" y="592" type="line"/>
      <point x="35" y="591" type="line"/>
    </contour>
    <contour>
      <point x="1123" y="200" type="line"/>
      <point x="1337" y="200" type="line"/>
      <point x="1337" y="730" type="line"/>
      <point x="1285" y="730" type="line"/>
      <point x="1123" y="526" type="line"/>
    </contour>
    <contour>
      <point x="864" y="-4" type="line"/>
      <point x="1175" y="-4" type="line"/>
      <point x="1337" y="199" type="line"/>
      <point x="1337" y="200" type="line"/>
      <point x="864" y="200" type="line"/>
    </contour>
    <contour>
      <point x="842" y="526" type="line"/>
      <point x="1123" y="526" type="line"/>
      <point x="1285" y="730" type="line"/>
      <point x="842" y="730" type="line"/>
    </contour>
    <contour>
      <point x="1337" y="526" type="line"/>
      <point x="1448" y="526" type="line"/>
      <point x="1448" y="730" type="line"/>
      <point x="1337" y="730" type="line"/>
    </contour>
  </outline>
</glyph>
<glyph name="Nj.color0" format="2">
  <advance width="600"/>
  <unicode hex="01CB"/>
  <outline>
    <contour>
      <point x="782" y="152" type="line"/>
      <point x="782" y="730" type="line"/>
      <point x="568" y="730" type="line"/>
      <point x="568" y="362" type="line"/>
    </contour>
  </outline>
</glyph>
<glyph name="nj.color1" format="2">
  <advance width="600"/>
  <unicode hex="01CC"/>
  <outline>
    <contour>
      <point x="558" y="-6" type="line"/>
      <point x="559" y="-6" type="line"/>
      <point x="772" y="41" type="line"/>
      <point x="772" y="326" type="line"/>
      <point x="558" y="326" type="line"/>
    </contour>
  </outline>
</glyph>
<glyph name="nj.color2" format="2">
  <advance width="600"/>
  <unicode hex="01CC"/>
  <outline>
    <contour>
      <point x="249" y="326" type="line"/>
      <point x="772" y="326" type="line"/>
      <point x="772" y="327" type="line"/>
      <point x="665" y="530" type="line"/>
      <point x="249" y="530" type="line"/>
    </contour>
  </outline>
</glyph>
<glyph name="nj.color5" format="2">
  <advance width="600"/>
  <unicode hex="01CC"/>
  <outline>
    <contour>
      <point x="869" y="469" type="line"/>
      <point x="870" y="469" type="line"/>
      <point x="1063" y="576" type="line"/>
      <point x="1063" y="682" type="line"/>
      <point x="869" y="682" type="line"/>
    </contour>
  </outline>
</glyph>
<glyph name="nj" format="2">
  <advance width="1108"/>
  <unicode hex="01CC"/>
  <anchor x="415" y="0" name="bottom"/>
  <anchor x="446" y="530" name="top"/>
  <outline>
    <contour>
      <point x="35" y="0" type="line"/>
      <point x="249" y="0" type="line"/>
      <point x="249" y="530" type="line"/>
      <point x="248" y="530" type="line"/>
      <point x="35" y="423" type="line"/>
    </contour>
    <contour>
      <point x="558" y="-6" type="line"/>
      <point x="559" y="-6" type="line"/>
      <point x="772" y="41" type="line"/>
      <point x="772" y="326" type="line"/>
      <point x="558" y="326" type="line"/>
    </contour>
    <contour>
      <point x="249" y="326" type="line"/>
      <point x="772" y="326" type="line"/>
      <point x="772" y="327" type="line"/>
      <point x="665" y="530" type="line"/>
      <point x="249" y="530" type="line"/>
    </contour>
    <contour>
      <point x="869" y="-206" type="line"/>
      <point x="870" y="-206" type="line"/>
      <point x="1063" y="-99" type="line"/>
      <point x="1063" y="503" type="line"/>
      <point x="1062" y="503" type="line"/>
      <point x="869" y="393" type="line"/>
    </contour>
    <contour>
      <point x="657" y="-206" type="line"/>
      <point x="869" y="-206" type="line"/>
      <point x="869" y="-26" type="line"/>
      <point x="657" y="-26" type="line"/>
    </contour>
    <contour>
      <point x="869" y="469" type="line"/>
      <point x="870" y="469" type="line"/>
      <point x="1063" y="576" type="line"/>
      <point x="1063" y="682" type="line"/>
      <point x="869" y="682" type="line"/>
    </contour>
  </outline>
</glyph>
<glyph name="gcaron.color5" format="2">
  <advance width="600"/>
  <unicode hex="01E7"/>
  <outline>
    <contour>
      <point x="381" y="582" type="line"/>
      <point x="504" y="613" type="line"/>
      <point x="400" y="750" type="line"/>
      <point x="243" y="750" type="line"/>
      <point x="243" y="749" type="line"/>
    </contour>
  </outline>
</glyph>
<glyph name="Oogonek.color4" format="2">
  <advance width="600"/>
  <unicode hex="01EA"/>
  <outline>
    <contour>
      <point x="275" y="-86" type="line"/>
      <point x="403" y="-86" type="line"/>
      <point x="477" y="-1" type="line"/>
      <point x="477" y="0" type="line"/>
      <point x="352" y="0" type="line"/>
      <point x="275" y="-85" type="line"/>
    </contour>
  </outline>
</glyph>
<glyph name="Oogonek.color5" format="2">
  <advance width="600"/>
  <unicode hex="01EA"/>
  <outline>
    <contour>
      <point x="402" y="-230" type="line"/>
      <point x="403" y="-230" type="line"/>
      <point x="403" y="-86" type="line"/>
      <point x="275" y="-86" type="line"/>
      <point x="275" y="-174" type="line"/>
    </contour>
  </outline>
</glyph>
<glyph name="oogonek" format="2">
  <advance width="837"/>
  <unicode hex="01EB"/>
  <anchor x="422" y="0" name="bottom"/>
  <anchor x="665" y="530" name="horn"/>
  <anchor x="442" y="530" name="top"/>
  <outline>
    <contour>
      <point x="239" y="326" type="line"/>
      <point x="812" y="326" type="line"/>
      <point x="812" y="327" type="line"/>
      <point x="705" y="530" type="line"/>
      <point x="239" y="530" type="line"/>
    </contour>
    <contour>
      <point x="132" y="0" type="line"/>
      <point x="598" y="0" type="line"/>
      <point x="598" y="204" type="line"/>
      <point x="25" y="204" type="line"/>
      <point x="25" y="203" type="line"/>
    </contour>
    <contour>
      <point x="25" y="204" type="line"/>
      <point x="239" y="204" type="line"/>
      <point x="239" y="530" type="line"/>
      <point x="238" y="530" type="line"/>
      <point x="25" y="423" type="line"/>
    </contour>
    <contour>
      <point x="598" y="0" type="line"/>
      <point x="599" y="0" type="line"/>
      <point x="812" y="107" type="line"/>
      <point x="812" y="326" type="line"/>
      <point x="598" y="326" type="line"/>
    </contour>
    <contour>
      <point x="285" y="-86" type="line"/>
      <point x="413" y="-86" type="line"/>
      <point x="487" y="-1" type="line"/>
      <point x="487" y="0" type="line"/>
      <point x="362" y="0" type="line"/>
      <point x="285" y="-85" type="line"/>
    </contour>
    <contour>
      <point x="412" y="-230" type="line"/>
      <point x="413" y="-230" type="line"/>
      <point x="413" y="-86" type="line"/>
      <point x="285" y="-86" type="line"/>
      <point x="285" y="-174" type="line"/>
    </contour>
    <contour>
      <point x="413" y="-230" type="line"/>
      <point x="531" y="-230" type="line"/>
      <point x="591" y="-139" type="line"/>
      <point x="591" y="-138" type="line"/>
      <point x="413" y="-138" type="line"/>
    </contour>
  </outline>
</glyph>
<glyph name="Aringacute.color2" format="2">
  <advance width="600"/>
  <unicode hex="01FA"/>
  <outline>
    <contour>
      <point x="249" y="193" type="line"/>
      <point x="598" y="193" type="line"/>
      <point x="598" y="397" type="line"/>
      <point x="249" y="397" type="line"/>
    </contour>
  </outline>
</glyph>
<glyph name="Aringacute.color4" format="2">
  <advance width="600"/>
  <unicode hex="01FA"/>
  <outline>
    <contour>
      <point x="249" y="526" type="line"/>
      <point x="812" y="526" type="line"/>
      <point x="812" y="527" type="line"/>
      <point x="650" y="730" type="line"/>
      <point x="249" y="730" type="line"/>
    </contour>
  </outline>
</glyph>
<glyph name="aringacute.color2" format="2">
  <advance width="600"/>
  <unicode hex="01FB"/>
  <outline>
    <contour>
      <point x="142" y="0" type="line"/>
      <point x="578" y="0" type="line"/>
      <point x="578" y="204" type="line"/>
      <point x="35" y="204" type="line"/>
      <point x="35" y="203" type="line"/>
    </contour>
  </outline>
</glyph>
<glyph name="aringacute.color5" format="2">
  <advance width="600"/>
  <unicode hex="01FB"/>
  <outline>
    <contour>
      <point x="344" y="572" type="line"/>
      <point x="514" y="572" type="line"/>
      <point x="514" y="654" type="line"/>
      <point x="284" y="654" type="line"/>
      <point x="284" y="653" type="line"/>
    </contour>
  </outline>
</glyph>
<glyph name="aringacute" format="2">
  <advance width="827"/>
  <unicode hex="01FB"/>
  <anchor x="441" y="0" name="bottom"/>
  <anchor x="452" y="530" name="top"/>
  <outline>
    <contour>
      <point x="380" y="676" type="line"/>
      <point x="610" y="676" type="line"/>
      <point x="610" y="677" type="line"/>
      <point x="550" y="760" type="line"/>
      <point x="380" y="760" type="line"/>
    </contour>
    <contour>
      <point x="249" y="326" type="line"/>
      <point x="792" y="326" type="line"/>
      <point x="792" y="327" type="line"/>
      <point x="685" y="530" type="line"/>
      <point x="249" y="530" type="line"/>
    </contour>
    <contour>
      <point x="142" y="0" type="line"/>
      <point x="578" y="0" type="line"/>
      <point x="578" y="204" type="line"/>
      <point x="35" y="204" type="line"/>
      <point x="35" y="203" type="line"/>
    </contour>
    <contour>
      <point x="35" y="204" type="line"/>
      <point x="249" y="204" type="line"/>
      <point x="249" y="530" type="line"/>
      <point x="248" y="530" type="line"/>
      <point x="35" y="423" type="line"/>
    </contour>
    <contour>
      <point x="578" y="0" type="line"/>
      <point x="792" y="0" type="line"/>
      <point x="792" y="326" type="line"/>
      <point x="578" y="326" type="line"/>
    </contour>
    <contour>
      <point x="344" y="572" type="line"/>
      <point x="514" y="572" type="line"/>
      <point x="514" y="654" type="line"/>
      <point x="284" y="654" type="line"/>
      <point x="284" y="653" type="line"/>
    </contour>
    <contour>
      <point x="284" y="654" type="line"/>
      <point x="380" y="654" type="line"/>
      <point x="380" y="760" type="line"/>
      <point x="379" y="760" type="line"/>
      <point x="284" y="698" type="line"/>
    </contour>
    <contour>
      <point x="514" y="572" type="line"/>
      <point x="515" y="572" type="line"/>
      <point x="610" y="628" type="line"/>
      <point x="610" y="676" type="line"/>
      <point x="514" y="676" type="line"/>
    </contour>
    <contour>
      <point x="413" y="790" type="line"/>
      <point x="499" y="790" type="line"/>
      <point x="584" y="899" type="line"/>
      <point x="584" y="900" type="line"/>
      <point x="428" y="900" type="line"/>
    </contour>
  </outline>
</glyph>
<glyph name="AEacute.color1" format="2">
  <advance width="600"/>
  <unicode hex="01FC"/>
  <outline>
    <contour>
      <point x="249" y="173" type="line"/>
      <point x="621" y="173" type="line"/>
      <point x="558" y="377" type="line"/>
      <point x="249" y="377" type="line"/>
    </contour>
  </outline>
</glyph>
<glyph name="AEacute.color6" format="2">
  <advance width="600"/>
  <unicode hex="01FC"/>
  <outline>
    <contour>
      <point x="772" y="526" type="line"/>
      <point x="1094" y="526" type="line"/>
      <point x="1296" y="729" type="line"/>
      <point x="1296" y="730" type="line"/>
      <point x="610" y="730" type="line"/>
    </contour>
  </outline>
</glyph>
<glyph name="AEacute.color7" format="2">
  <advance width="600"/>
  <unicode hex="01FC"/>
  <outline>
    <contour>
      <point x="402" y="760" type="line"/>
      <point x="528" y="760" type="line"/>
      <point x="643" y="899" type="line"/>
      <point x="643" y="900" type="line"/>
      <point x="437" y="900" type="line"/>
    </contour>
  </outline>
</glyph>
<glyph name="aeacute.color2" format="2">
  <advance width="600"/>
  <unicode hex="01FD"/>
  <outline>
    <contour>
      <point x="45" y="204" type="line"/>
      <point x="259" y="204" type="line"/>
      <point x="259" y="530" type="line"/>
      <point x="258" y="530" type="line"/>
      <point x="45" y="423" type="line"/>
    </contour>
  </outline>
</glyph>
<glyph name="aeacute.color3" format="2">
  <advance width="600"/>
  <unicode hex="01FD"/>
  <outline>
    <contour>
      <point x="802" y="0" type="line"/>
      <point x="802" y="326" type="line"/>
      <point x="588" y="326" type="line"/>
      <point x="588" y="199" type="line"/>
    </contour>
  </outline>
</glyph>
<glyph name="aeacute.color5" format="2">
  <advance width="600"/>
  <unicode hex="01FD"/>
  <outline>
    <contour>
      <point x="802" y="0" type="line"/>
      <point x="1248" y="0" type="line"/>
      <point x="1355" y="199" type="line"/>
      <point x="1355" y="200" type="line"/>
      <point x="802" y="200" type="line"/>
    </contour>
  </outline>
</glyph>
<glyph name="Oslashacute.color5" format="2">
  <advance width="600"/>
  <unicode hex="01FE"/>
  <outline>
    <contour>
      <point x="394" y="760" type="line"/>
      <point x="520" y="760" type="line"/>
      <point x="635" y="899" type="line"/>
      <point x="635" y="900" type="line"/>
      <point x="429" y="900" type="line"/>
    </contour>
  </outline>
</glyph>
<glyph name="Adblgrave.color2" format="2">
  <advance width="600"/>
  <unicode hex="0200"/>
  <outline>
    <contour>
      <point x="598" y="0" type="line"/>
      <point x="812" y="0" type="line"/>
      <point x="812" y="526" type="line"/>
      <point x="599" y="526" type="line"/>
      <point x="598" y="526" type="line"/>
    </contour>
  </outline>
</glyph>
<glyph name="adblgrave.color5" format="2">
  <advance width="600"/>
  <unicode hex="0201"/>
  <outline>
    <contour>
      <point x="324" y="590" type="line"/>
      <point x="420" y="590" type="line"/>
      <point x="385" y="820" type="line"/>
      <point x="209" y="820" type="line"/>
      <point x="209" y="819" type="line"/>
    </contour>
  </outline>
</glyph>
<glyph name="Ainvertedbreve.color4" format="2">
  <advance width="600"/>
  <unicode hex="0202"/>
  <outline>
    <contour>
      <point x="250" y="820" type="line"/>
      <point x="643" y="820" type="line"/>
      <point x="569" y="900" type="line"/>
      <point x="324" y="900" type="line"/>
    </contour>
  </outline>
</glyph>
<glyph name="Ainvertedbreve.color6" format="2">
  <advance width="600"/>
  <unicode hex="0202"/>
  <outline>
    <contour>
      <point x="541" y="760" type="line"/>
      <point x="697" y="760" type="line"/>
      <point x="697" y="761" type="line"/>
      <point x="643" y="820" type="line"/>
      <point x="484" y="820" type="line"/>
    </contour>
  </outline>
</glyph>
<glyph name="ainvertedbreve.color5" format="2">
  <advance width="600"/>
  <unicode hex="0203"/>
  <outline>
    <contour>
      <point x="222" y="618" type="line"/>
      <point x="348" y="618" type="line"/>
      <point x="395" y="698" type="line"/>
      <point x="269" y="698" type="line"/>
      <point x="222" y="620" type="line"/>
    </contour>
  </outline>
</glyph>
<glyph name="Edblgrave.color1" format="2">
  <advance width="600"/>
  <unicode hex="0204"/>
  <outline>
    <contour>
      <point x="35" y="204" type="line"/>
      <point x="249" y="204" type="line"/>
      <point x="249" y="730" type="line"/>
      <point x="35" y="730" type="line"/>
    </contour>
  </outline>
</glyph>
<glyph name="Einvertedbreve.color4" format="2">
  <advance width="600"/>
  <unicode hex="0206"/>
  <outline>
    <contour>
      <point x="230" y="820" type="line"/>
      <point x="623" y="820" type="line"/>
      <point x="549" y="900" type="line"/>
      <point x="304" y="900" type="line"/>
    </contour>
  </outline>
</glyph>
<glyph name="Einvertedbreve.color6" format="2">
  <advance width="600"/>
  <unicode hex="0206"/>
  <outline>
    <contour>
      <point x="521" y="760" type="line"/>
      <point x="677" y="760" type="line"/>
      <point x="677" y="761" type="line"/>
      <point x="623" y="820" type="line"/>
      <point x="464" y="820" type="line"/>
    </contour>
  </outline>
</glyph>
<glyph name="Idblgrave.color3" format="2">
  <advance width="600"/>
  <unicode hex="0208"/>
  <outline>
    <contour>
      <point x="25" y="526" type="line"/>
      <point x="246" y="526" type="line"/>
      <point x="408" y="730" type="line"/>
      <point x="25" y="730" type="line"/>
    </contour>
  </outline>
</glyph>
<glyph name="Iinvertedbreve.color5" format="2">
  <advance width="600"/>
  <unicode hex="020A"/>
  <outline>
    <contour>
      <point x="145" y="820" type="line"/>
      <point x="538" y="820" type="line"/>
      <point x="464" y="900" type="line"/>
      <point x="219" y="900" type="line"/>
    </contour>
  </outline>
</glyph>
<glyph name="Iinvertedbreve.color7" format="2">
  <advance width="600"/>
  <unicode hex="020A"/>
  <outline>
    <contour>
      <point x="436" y="760" type="line"/>
      <point x="592" y="760" type="line"/>
      <point x="592" y="761" type="line"/>
      <point x="538" y="820" type="line"/>
      <point x="379" y="820" type="line"/>
    </contour>
  </outline>
</glyph>
<glyph name="iinvertedbreve.color0" format="2">
  <advance width="600"/>
  <unicode hex="020B"/>
  <outline>
    <contour>
      <point x="25" y="678" type="line"/>
      <point x="342" y="678" type="line"/>
      <point x="281" y="780" type="line"/>
      <point x="86" y="780" type="line"/>
    </contour>
  </outline>
</glyph>
<glyph name="iinvertedbreve.color3" format="2">
  <advance width="600"/>
  <unicode hex="020B"/>
  <outline>
    <contour>
      <point x="263" y="598" type="line"/>
      <point x="389" y="598" type="line"/>
      <point x="389" y="599" type="line"/>
      <point x="342" y="678" type="line"/>
      <point x="216" y="678" type="line"/>
    </contour>
  </outline>
</glyph>
<glyph name="odblgrave.color3" format="2">
  <advance width="600"/>
  <unicode hex="020D"/>
  <outline>
    <contour>
      <point x="598" y="0" type="line"/>
      <point x="599" y="0" type="line"/>
      <point x="812" y="107" type="line"/>
      <point x="812" y="326" type="line"/>
      <point x="598" y="326" type="line"/>
    </contour>
  </outline>
</glyph>
<glyph name="Oinvertedbreve.color5" format="2">
  <advance width="600"/>
  <unicode hex="020E"/>
  <outline>
    <contour>
      <point x="186" y="760" type="line"/>
      <point x="342" y="760" type="line"/>
      <point x="399" y="820" type="line"/>
      <point x="240" y="820" type="line"/>
      <point x="186" y="762" type="line"/>
    </contour>
  </outline>
</glyph>
<glyph name="Oinvertedbreve" format="2">
  <advance width="827"/>
  <unicode hex="020E"/>
  <anchor x="412" y="0" name="bottom"/>
  <anchor x="680" y="730" name="horn"/>
  <anchor x="436" y="730" name="top"/>
  <outline>
    <contour>
      <point x="239" y="526" type="line"/>
      <point x="802" y="526" type="line"/>
      <point x="802" y="527" type="line"/>
      <point x="640" y="730" type="line"/>
      <point x="239" y="730" type="line"/>
    </contour>
    <contour>
      <point x="227" y="0" type="line"/>
      <point x="588" y="0" type="line"/>
      <point x="588" y="204" type="line"/>
      <point x="25" y="204" type="line"/>
      <point x="25" y="203" type="line"/>
    </contour>
    <contour>
      <point x="25" y="204" type="line"/>
      <point x="239" y="204" type="line"/>
      <point x="239" y="730" type="line"/>
      <point x="238" y="730" type="line"/>
      <point x="25" y="523" type="line"/>
    </contour>
    <contour>
      <point x="588" y="0" type="line"/>
      <point x="589" y="0" type="line"/>
      <point x="802" y="207" type="line"/>
      <point x="802" y="526" type="line"/>
      <point x="588" y="526" type="line"/>
    </contour>
    <contour>
      <point x="240" y="820" type="line"/>
      <point x="633" y="820" type="line"/>
      <point x="559" y="900" type="line"/>
      <point x="314" y="900" type="line"/>
    </contour>
    <contour>
      <point x="186" y="760" type="line"/>
      <point x="342" y="760" type="line"/>
      <point x="399" y="820" type="line"/>
      <point x="240" y="820" type="line"/>
      <point x="186" y="762" type="line"/>
    </contour>
    <contour>
      <point x="531" y="760" type="line"/>
      <point x="687" y="760" type="line"/>
      <point x="687" y="761" type="line"/>
      <point x="633" y="820" type="line"/>
      <point x="474" y="820" type="line"/>
    </contour>
  </outline>
</glyph>
<glyph name="Rdblgrave.color0" format="2">
  <advance width="600"/>
  <unicode hex="0210"/>
  <outline>
    <contour>
      <point x="35" y="0" type="line"/>
      <point x="249" y="0" type="line"/>
      <point x="249" y="730" type="line"/>
      <point x="35" y="730" type="line"/>
    </contour>
  </outline>
</glyph>
<glyph name="Rdblgrave.color6" format="2">
  <advance width="600"/>
  <unicode hex="0210"/>
  <outline>
    <contour>
      <point x="248" y="760" type="line"/>
      <point x="374" y="760" type="line"/>
      <point x="339" y="900" type="line"/>
      <point x="133" y="900" type="line"/>
      <point x="133" y="899" type="line"/>
    </contour>
  </outline>
</glyph>
<glyph name="Rdblgrave" format="2">
  <advance width="846"/>
  <unicode hex="0210"/>
  <anchor x="414" y="0" name="bottom"/>
  <anchor x="416" y="730" name="top"/>
  <outline>
    <contour>
      <point x="35" y="0" type="line"/>
      <point x="249" y="0" type="line"/>
      <point x="249" y="730" type="line"/>
      <point x="35" y="730" type="line"/>
    </contour>
    <contour>
      <point x="550" y="0" type="line"/>
      <point x="821" y="0" type="line"/>
      <point x="821" y="1" type="line"/>
      <point x="619" y="329" type="line"/>
      <point x="439" y="211" type="line"/>
    </contour>
    <contour>
      <point x="249" y="193" type="line"/>
      <point x="588" y="193" type="line"/>
      <point x="588" y="397" type="line"/>
      <point x="249" y="397" type="line"/>
    </contour>
    <contour>
      <point x="588" y="193" type="line"/>
      <point x="589" y="193" type="line"/>
      <point x="802" y="370" type="line"/>
      <point x="802" y="526" type="line"/>
      <point x="588" y="526" type="line"/>
    </contour>
    <contour>
      <point x="249" y="526" type="line"/>
      <point x="802" y="526" type="line"/>
      <point x="802" y="527" type="line"/>
      <point x="600" y="730" type="line"/>
      <point x="249" y="730" type="line"/>
    </contour>
    <contour>
      <point x="478" y="760" type="line"/>
      <point x="604" y="760" type="line"/>
      <point x="569" y="900" type="line"/>
      <point x="363" y="900" type="line"/>
      <point x="363" y="899" type="line"/>
    </contour>
    <contour>
      <point x="248" y="760" type="line"/>
      <point x="374" y="760" type="line"/>
      <point x="339" y="900" type="line"/>
      <point x="133" y="900" type="line"/>
      <point x="133" y="899" type="line"/>
    </contour>
  </outline>
</glyph>
<glyph name="rdblgrave.color3" format="2">
  <advance width="600"/>
  <unicode hex="0211"/>
  <outline>
    <contour>
      <point x="214" y="590" type="line"/>
      <point x="310" y="590" type="line"/>
      <point x="275" y="820" type="line"/>
      <point x="99" y="820" type="line"/>
      <point x="99" y="819" type="line"/>
    </contour>
  </outline>
</glyph>
<glyph name="Rinvertedbreve.color4" format="2">
  <advance width="600"/>
  <unicode hex="0212"/>
  <outline>
    <contour>
      <point x="249" y="526" type="line"/>
      <point x="802" y="526" type="line"/>
      <point x="802" y="527" type="line"/>
      <point x="600" y="730" type="line"/>
      <point x="249" y="730" type="line"/>
    </contour>
  </outline>
</glyph>
<glyph name="Rinvertedbreve.color6" format="2">
  <advance width="600"/>
  <unicode hex="0212"/>
  <outline>
    <contour>
      <point x="166" y="760" type="line"/>
      <point x="322" y="760" type="line"/>
      <point x="379" y="820" type="line"/>
      <point x="220" y="820" type="line"/>
      <point x="166" y="762" type="line"/>
    </contour>
  </outline>
</glyph>
<glyph name="Udblgrave.color3" format="2">
  <advance width="600"/>
  <unicode hex="0214"/>
  <outline>
    <contour>
      <point x="498" y="760" type="line"/>
      <point x="624" y="760" type="line"/>
      <point x="589" y="900" type="line"/>
      <point x="383" y="900" type="line"/>
      <point x="383" y="899" type="line"/>
    </contour>
  </outline>
</glyph>
<glyph name="Udblgrave.color4" format="2">
  <advance width="600"/>
  <unicode hex="0214"/>
  <outline>
    <contour>
      <point x="268" y="760" type="line"/>
      <point x="394" y="760" type="line"/>
      <point x="359" y="900" type="line"/>
      <point x="153" y="900" type="line"/>
      <point x="153" y="899" type="line"/>
    </contour>
  </outline>
</glyph>
<glyph name="udblgrave.color4" format="2">
  <advance width="600"/>
  <unicode hex="0215"/>
  <outline>
    <contour>
      <point x="294" y="590" type="line"/>
      <point x="390" y="590" type="line"/>
      <point x="355" y="820" type="line"/>
      <point x="179" y="820" type="line"/>
      <point x="179" y="819" type="line"/>
    </contour>
  </outline>
</glyph>
<glyph name="Uinvertedbreve.color5" format="2">
  <advance width="600"/>
  <unicode hex="0216"/>
  <outline>
    <contour>
      <point x="531" y="760" type="line"/>
      <point x="687" y="760" type="line"/>
      <point x="687" y="761" type="line"/>
      <point x="633" y="820" type="line"/>
      <point x="474" y="820" type="line"/>
    </contour>
  </outline>
</glyph>
<glyph name="uinvertedbreve.color2" format="2">
  <advance width="600"/>
  <unicode hex="0217"/>
  <outline>
    <contour>
      <point x="35" y="204" type="line"/>
      <point x="249" y="204" type="line"/>
      <point x="249" y="536" type="line"/>
      <point x="248" y="536" type="line"/>
      <point x="35" y="489" type="line"/>
    </contour>
  </outline>
</glyph>
<glyph name="Scommaaccent.color0" format="2">
  <advance width="600"/>
  <unicode hex="0218"/>
  <outline>
    <contour>
      <point x="239" y="526" type="line"/>
      <point x="792" y="526" type="line"/>
      <point x="792" y="527" type="line"/>
      <point x="590" y="730" type="line"/>
      <point x="239" y="730" type="line"/>
    </contour>
  </outline>
</glyph>
<glyph name="scommaaccent.color2" format="2">
  <advance width="600"/>
  <unicode hex="0219"/>
  <outline>
    <contour>
      <point x="129" y="0" type="line"/>
      <point x="545" y="0" type="line"/>
      <point x="652" y="179" type="line"/>
      <point x="22" y="179" type="line"/>
      <point x="22" y="178" type="line"/>
    </contour>
  </outline>
</glyph>
<glyph name="tcommaaccent.color1" format="2">
  <advance width="600"/>
  <unicode hex="021B"/>
  <outline>
    <contour>
      <point x="36" y="326" type="line"/>
      <point x="493" y="326" type="line"/>
      <point x="493" y="530" type="line"/>
      <point x="249" y="530" type="line"/>
    </contour>
  </outline>
</glyph>
<glyph name="tcommaaccent.color4" format="2">
  <advance width="600"/>
  <unicode hex="021B"/>
  <outline>
    <contour>
      <point x="401" y="-280" type="line"/>
      <point x="402" y="-280" type="line"/>
      <point x="402" y="-30" type="line"/>
      <point x="270" y="-30" type="line"/>
      <point x="270" y="-178" type="line"/>
    </contour>
  </outline>
</glyph>
<glyph name="Odieresismacron.color5" format="2">
  <advance width="600"/>
  <unicode hex="022A"/>
  <outline>
    <contour>
      <point x="240" y="788" type="line"/>
      <point x="386" y="788" type="line"/>
      <point x="386" y="900" type="line"/>
      <point x="240" y="900" type="line"/>
    </contour>
  </outline>
</glyph>
<glyph name="odieresismacron.color4" format="2">
  <advance width="600"/>
  <unicode hex="022B"/>
  <outline>
    <contour>
      <point x="468" y="640" type="line"/>
      <point x="644" y="640" type="line"/>
      <point x="644" y="772" type="line"/>
      <point x="468" y="772" type="line"/>
    </contour>
  </outline>
</glyph>
<glyph name="odieresismacron" format="2">
  <advance width="837"/>
  <unicode hex="022B"/>
  <anchor x="422" y="0" name="bottom"/>
  <anchor x="665" y="530" name="horn"/>
  <anchor x="442" y="750" name="top"/>
  <outline>
    <contour>
      <point x="239" y="326" type="line"/>
      <point x="812" y="326" type="line"/>
      <point x="812" y="327" type="line"/>
      <point x="705" y="530" type="line"/>
      <point x="239" y="530" type="line"/>
    </contour>
    <contour>
      <point x="132" y="0" type="line"/>
      <point x="598" y="0" type="line"/>
      <point x="598" y="204" type="line"/>
      <point x="25" y="204" type="line"/>
      <point x="25" y="203" type="line"/>
    </contour>
    <contour>
      <point x="25" y="204" type="line"/>
      <point x="239" y="204" type="line"/>
      <point x="239" y="530" type="line"/>
      <point x="238" y="530" type="line"/>
      <point x="25" y="423" type="line"/>
    </contour>
    <contour>
      <point x="598" y="0" type="line"/>
      <point x="599" y="0" type="line"/>
      <point x="812" y="107" type="line"/>
      <point x="812" y="326" type="line"/>
      <point x="598" y="326" type="line"/>
    </contour>
    <contour>
      <point x="468" y="640" type="line"/>
      <point x="644" y="640" type="line"/>
      <point x="644" y="772" type="line"/>
      <point x="468" y="772" type="line"/>
    </contour>
    <contour>
      <point x="220" y="640" type="line"/>
      <point x="396" y="640" type="line"/>
      <point x="396" y="772" type="line"/>
      <point x="220" y="772" type="line"/>
    </contour>
    <contour>
      <point x="214" y="848" type="line"/>
      <point x="640" y="848" type="line"/>
      <point x="640" y="960" type="line"/>
      <point x="214" y="960" type="line"/>
    </contour>
  </outline>
</glyph>
<glyph name="Otildemacron.color6" format="2">
  <advance width="600"/>
  <unicode hex="022C"/>
  <outline>
    <contour>
      <point x="535" y="751" type="line"/>
      <point x="536" y="751" type="line"/>
      <point x="628" y="796" type="line"/>
      <point x="628" y="817" type="line"/>
      <point x="310" y="874" type="line"/>
      <point x="309" y="874" type="line"/>
      <point x="199" y="825" type="line"/>
      <point x="199" y="814" type="line"/>
    </contour>
  </outline>
</glyph>
<glyph name="otildemacron.color1" format="2">
  <advance width="600"/>
  <unicode hex="022D"/>
  <outline>
    <contour>
      <point x="132" y="0" type="line"/>
      <point x="598" y="0" type="line"/>
      <point x="598" y="204" type="line"/>
      <point x="25" y="204" type="line"/>
      <point x="25" y="203" type="line"/>
    </contour>
  </outline>
</glyph>
<glyph name="otildemacron" format="2">
  <advance width="877"/>
  <unicode hex="022D"/>
  <anchor x="422" y="0" name="bottom"/>
  <anchor x="665" y="530" name="horn"/>
  <anchor x="442" y="530" name="top"/>
  <outline>
    <contour>
      <point x="239" y="326" type="line"/>
      <point x="812" y="326" type="line"/>
      <point x="812" y="327" type="line"/>
      <point x="705" y="530" type="line"/>
      <point x="239" y="530" type="line"/>
    </contour>
    <contour>
      <point x="132" y="0" type="line"/>
      <point x="598" y="0" type="line"/>
      <point x="598" y="204" type="line"/>
      <point x="25" y="204" type="line"/>
      <point x="25" y="203" type="line"/>
    </contour>
    <contour>
      <point x="25" y="204" type="line"/>
      <point x="239" y="204" type="line"/>
      <point x="239" y="530" type="line"/>
      <point x="238" y="530" type="line"/>
      <point x="25" y="423" type="line"/>
    </contour>
    <contour>
      <point x="598" y="0" type="line"/>
      <point x="599" y="0" type="line"/>
      <point x="812" y="107" type="line"/>
      <point x="812" y="326" type="line"/>
      <point x="598" y="326" type="line"/>
    </contour>
    <contour>
      <point x="270" y="589" type="line"/>
      <point x="370" y="589" type="line"/>
      <point x="370" y="710" type="line"/>
      <point x="270" y="710" type="line"/>
    </contour>
    <contour>
      <point x="529" y="618" type="line"/>
      <point x="628" y="618" type="line"/>
      <point x="628" y="737" type="line"/>
      <point x="529" y="737" type="line"/>
    </contour>
    <contour>
      <point x="537" y="578" type="line"/>
      <point x="538" y="578" type="line"/>
      <point x="628" y="617" type="line"/>
      <point x="628" y="618" type="line"/>
      <point x="361" y="750" type="line"/>
      <point x="360" y="750" type="line"/>
      <point x="270" y="711" type="line"/>
      <point x="270" y="710" type="line"/>
    </contour>
    <contour>
      <point x="267" y="798" type="line"/>
      <point x="633" y="798" type="line"/>
      <point x="633" y="890" type="line"/>
      <point x="267" y="890" type="line"/>
    </contour>
  </outline>
</glyph>
<glyph name="Odotaccentmacron.color4" format="2">
  <advance width="600"/>
  <unicode hex="0230"/>
  <outline>
    <contour>
      <point x="348" y="768" type="line"/>
      <point x="524" y="768" type="line"/>
      <point x="524" y="900" type="line"/>
      <point x="348" y="900" type="line"/>
    </contour>
  </outline>
</glyph>
<glyph name="Odotaccentmacron.color5" format="2">
  <advance width="600"/>
  <unicode hex="0230"/>
  <outline>
    <contour>
      <point x="238" y="968" type="line"/>
      <point x="634" y="968" type="line"/>
      <point x="634" y="1070" type="line"/>
      <point x="238" y="1070" type="line"/>
    </contour>
  </outline>
</glyph>
<glyph name="Ymacron.color3" format="2">
  <advance width="600"/>
  <unicode hex="0232"/>
  <outline>
    <contour>
      <point x="202" y="798" type="line"/>
      <point x="598" y="798" type="line"/>
      <point x="598" y="900" type="line"/>
      <point x="202" y="900" type="line"/>
    </contour>
  </outline>
</glyph>
<glyph name="schwa.color3" format="2">
  <advance width="600"/>
  <unicode hex="0259"/>
  <outline>
    <contour>
      <point x="249" y="220" type="line"/>
      <point x="588" y="220" type="line"/>
      <point x="588" y="331" type="line"/>
      <point x="249" y="330" type="line"/>
    </contour>
  </outline>
</glyph>
<glyph name="schwa.color4" format="2">
  <advance width="600"/>
  <unicode hex="0259"/>
  <outline>
    <contour>
      <point x="588" y="0" type="line"/>
      <point x="589" y="0" type="line"/>
      <point x="802" y="107" type="line"/>
      <point x="802" y="351" type="line"/>
      <point x="588" y="351" type="line"/>
    </contour>
  </outline>
</glyph>
<glyph name="schwa" format="2">
  <advance width="837"/>
  <unicode hex="0259"/>
  <outline>
    <contour>
      <point x="35" y="351" type="line"/>
      <point x="802" y="351" type="line"/>
      <point x="802" y="352" type="line"/>
      <point x="695" y="530" type="line"/>
      <point x="142" y="530" type="line"/>
      <point x="35" y="352" type="line"/>
    </contour>
    <contour>
      <point x="35" y="200" type="line"/>
      <point x="249" y="200" type="line"/>
      <point x="249" y="330" type="line"/>
      <point x="248" y="330" type="line"/>
      <point x="35" y="223" type="line"/>
    </contour>
    <contour>
      <point x="142" y="0" type="line"/>
      <point x="588" y="0" type="line"/>
      <point x="588" y="200" type="line"/>
      <point x="35" y="200" type="line"/>
      <point x="35" y="199" type="line"/>
    </contour>
    <contour>
      <point x="249" y="220" type="line"/>
      <point x="588" y="220" type="line"/>
      <point x="588" y="331" type="line"/>
      <point x="249" y="330" type="line"/>
    </contour>
    <contour>
      <point x="588" y="0" type="line"/>
      <point x="589" y="0" type="line"/>
      <point x="802" y="107" type="line"/>
      <point x="802" y="351" type="line"/>
      <point x="588" y="351" type="line"/>
    </contour>
  </outline>
</glyph>
<glyph name="circumflex" format="2">
  <advance width="600"/>
  <unicode hex="02C6"/>
  <anchor x="299" y="530" name="_top"/>
  <anchor x="301" y="750" name="top"/>
  <outline>
    <contour>
      <point x="342" y="592" type="line"/>
      <point x="499" y="592" type="line"/>
      <point x="499" y="593" type="line"/>
      <point x="361" y="770" type="line"/>
      <point x="238" y="739" type="line"/>
    </contour>
    <contour>
      <point x="73" y="592" type="line"/>
      <point x="227" y="592" type="line"/>
      <point x="361" y="770" type="line"/>
      <point x="217" y="770" type="line"/>
      <point x="73" y="593" type="line"/>
    </contour>
  </outline>
</glyph>
<glyph name="ring.color1" format="2">
  <advance width="600"/>
  <unicode hex="02DA"/>
  <outline>
    <contour>
      <point x="192" y="602" type="line"/>
      <point x="362" y="602" type="line"/>
      <point x="362" y="684" type="line"/>
      <point x="132" y="684" type="line"/>
      <point x="132" y="683" type="line"/>
    </contour>
  </outline>
</glyph>
<glyph name="ring.color2" format="2">
  <advance width="600"/>
  <unicode hex="02DA"/>
  <outline>
    <contour>
      <point x="132" y="684" type="line"/>
      <point x="228" y="684" type="line"/>
      <point x="228" y="820" type="line"/>
      <point x="227" y="820" type="line"/>
      <point x="132" y="758" type="line"/>
    </contour>
  </outline>
</glyph>
<glyph name="tildecomb.color0" format="2">
  <unicode hex="0303"/>
  <outline>
    <contour>
      <point x="94" y="611" type="line"/>
      <point x="214" y="611" type="line"/>
      <point x="214" y="713" type="line"/>
      <point x="94" y="732" type="line"/>
    </contour>
  </outline>
</glyph>
<glyph name="tildecomb.color1" format="2">
  <unicode hex="0303"/>
  <outline>
    <contour>
      <point x="373" y="650" type="line"/>
      <point x="492" y="640" type="line"/>
      <point x="492" y="759" type="line"/>
      <point x="373" y="759" type="line"/>
    </contour>
  </outline>
</glyph>
<glyph name="dotaccentcomb" format="2">
  <unicode hex="0307"/>
  <anchor x="309" y="530" name="_top"/>
  <anchor x="304" y="750" name="top"/>
  <outline>
    <contour>
      <point x="202" y="640" type="line"/>
      <point x="416" y="640" type="line"/>
      <point x="416" y="800" type="line"/>
      <point x="202" y="800" type="line"/>
    </contour>
  </outline>
</glyph>
<glyph name="dieresiscomb" format="2">
  <unicode hex="0308"/>
  <anchor x="304" y="530" name="_top"/>
  <anchor x="304" y="750" name="top"/>
  <outline>
    <contour>
      <point x="330" y="640" type="line"/>
      <point x="506" y="640" type="line"/>
      <point x="506" y="772" type="line"/>
      <point x="330" y="772" type="line"/>
    </contour>
    <contour>
      <point x="82" y="640" type="line"/>
      <point x="258" y="640" type="line"/>
      <point x="258" y="772" type="line"/>
      <point x="82" y="772" type="line"/>
    </contour>
  </outline>
</glyph>
<glyph name="commaturnedabovecomb" format="2">
  <unicode hex="0312"/>
  <anchor x="309" y="530" name="_top"/>
  <outline>
    <contour>
      <point x="243" y="570" type="line"/>
      <point x="375" y="570" type="line"/>
      <point x="375" y="820" type="line"/>
      <point x="374" y="820" type="line"/>
      <point x="243" y="718" type="line"/>
    </contour>
  </outline>
</glyph>
<glyph name="ogonekcomb.color0" format="2">
  <unicode hex="0328"/>
  <outline>
    <contour>
      <point x="132" y="-86" type="line"/>
      <point x="260" y="-86" type="line"/>
      <point x="334" y="-1" type="line"/>
      <point x="334" y="0" type="line"/>
      <point x="209" y="0" type="line"/>
      <point x="132" y="-85" type="line"/>
    </contour>
  </outline>
</glyph>
<glyph name="brevebelowcomb.color2" format="2">
  <unicode hex="032E"/>
  <outline>
    <contour>
      <point x="187" y="-202" type="line"/>
      <point x="442" y="-202" type="line"/>
      <point x="513" y="-80" type="line"/>
      <point x="116" y="-80" type="line"/>
    </contour>
  </outline>
</glyph>
<glyph name="Wgrave.color1" format="2">
  <advance width="600"/>
  <unicode hex="1E80"/>
  <outline>
    <contour>
      <point x="223" y="0" type="line"/>
      <point x="234" y="0" type="line"/>
      <point x="367" y="192" type="line"/>
      <point x="244" y="730" type="line"/>
      <point x="0" y="730" type="line"/>
      <point x="0" y="729" type="line"/>
    </contour>
  </outline>
</glyph>
<glyph name="Wgrave.color2" format="2">
  <advance width="600"/>
  <unicode hex="1E80"/>
  <outline>
    <contour>
      <point x="234" y="0" type="line"/>
      <point x="417" y="0" type="line"/>
      <point x="686" y="730" type="line"/>
      <point x="482" y="730" type="line"/>
    </contour>
  </outline>
</glyph>
<glyph name="Wgrave.color4" format="2">
  <advance width="600"/>
  <unicode hex="1E80"/>
  <outline>
    <contour>
      <point x="536" y="760" type="line"/>
      <point x="662" y="760" type="line"/>
      <point x="627" y="900" type="line"/>
      <point x="421" y="900" type="line"/>
      <point x="421" y="899" type="line"/>
    </contour>
  </outline>
</glyph>
<glyph name="Wgrave" format="2">
  <advance width="1168"/>
  <unicode hex="1E80"/>
  <anchor x="583" y="730" name="top"/>
  <outline>
    <contour>
      <point x="736" y="0" type="line"/>
      <point x="737" y="0" type="line"/>
      <point x="864" y="192" type="line"/>
      <point x="686" y="730" type="line"/>
      <point x="482" y="730" type="line"/>
    </contour>
    <contour>
      <point x="223" y="0" type="line"/>
      <point x="234" y="0" type="line"/>
      <point x="367" y="192" type="line"/>
      <point x="244" y="730" type="line"/>
      <point x="0" y="730" type="line"/>
      <point x="0" y="729" type="line"/>
    </contour>
    <contour>
      <point x="234" y="0" type="line"/>
      <point x="417" y="0" type="line"/>
      <point x="686" y="730" type="line"/>
      <point x="482" y="730" type="line"/>
    </contour>
    <contour>
      <point x="737" y="0" type="line"/>
      <point x="915" y="0" type="line"/>
      <point x="1168" y="729" type="line"/>
      <point x="1168" y="730" type="line"/>
      <point x="924" y="730" type="line"/>
    </contour>
    <contour>
      <point x="536" y="760" type="line"/>
      <point x="662" y="760" type="line"/>
      <point x="627" y="900" type="line"/>
      <point x="421" y="900" type="line"/>
      <point x="421" y="899" type="line"/>
    </contour>
  </outline>
</glyph>
<glyph name="wacute.color4" format="2">
  <advance width="600"/>
  <unicode hex="1E83"/>
  <outline>
    <contour>
      <point x="498" y="205" type="line"/>
      <point x="692" y="205" type="line"/>
      <point x="692" y="531" type="line"/>
      <point x="691" y="531" type="line"/>
      <point x="498" y="531" type="line"/>
    </contour>
  </outline>
</glyph>
<glyph name="wacute" format="2">
  <advance width="1190"/>
  <unicode hex="1E83"/>
  <anchor x="601" y="530" name="top"/>
  <outline>
    <contour>
      <point x="941" y="1" type="line"/>
      <point x="942" y="1" type="line"/>
      <point x="1155" y="205" type="line"/>
      <point x="1155" y="531" type="line"/>
      <point x="941" y="531" type="line"/>
    </contour>
    <contour>
      <point x="142" y="1" type="line"/>
      <point x="498" y="1" type="line"/>
      <point x="498" y="205" type="line"/>
      <point x="35" y="205" type="line"/>
      <point x="35" y="204" type="line"/>
    </contour>
    <contour>
      <point x="35" y="205" type="line"/>
      <point x="249" y="205" type="line"/>
      <point x="249" y="537" type="line"/>
      <point x="248" y="537" type="line"/>
      <point x="35" y="490" type="line"/>
    </contour>
    <contour>
      <point x="565" y="1" type="line"/>
      <point x="941" y="1" type="line"/>
      <point x="941" y="205" type="line"/>
      <point x="498" y="205" type="line"/>
      <point x="498" y="204" type="line"/>
    </contour>
    <contour>
      <point x="498" y="205" type="line"/>
      <point x="692" y="205" type="line"/>
      <point x="692" y="531" type="line"/>
      <point x="691" y="531" type="line"/>
      <point x="498" y="531" type="line"/>
    </contour>
    <contour>
      <point x="528" y="590" type="line"/>
      <point x="634" y="590" type="line"/>
      <point x="739" y="819" type="line"/>
      <point x="739" y="820" type="line"/>
      <point x="563" y="820" type="line"/>
    </contour>
  </outline>
</glyph>
<glyph name="wdieresis.color2" format="2">
  <advance width="600"/>
  <unicode hex="1E85"/>
  <outline>
    <contour>
      <point x="35" y="205" type="line"/>
      <point x="249" y="205" type="line"/>
      <point x="249" y="537" type="line"/>
      <point x="248" y="537" type="line"/>
      <point x="35" y="490" type="line"/>
    </contour>
  </outline>
</glyph>
<glyph name="Adotbelow.color0" format="2">
  <advance width="600"/>
  <unicode hex="1EA0"/>
  <outline>
    <contour>
      <point x="35" y="0" type="line"/>
      <point x="249" y="0" type="line"/>
      <point x="249" y="730" type="line"/>
      <point x="248" y="730" type="line"/>
      <point x="35" y="523" type="line"/>
    </contour>
  </outline>
</glyph>
<glyph name="Ahookabove.color1" format="2">
  <advance width="600"/>
  <unicode hex="1EA2"/>
  <outline>
    <contour>
      <point x="249" y="193" type="line"/>
      <point x="598" y="193" type="line"/>
      <point x="598" y="397" type="line"/>
      <point x="249" y="397" type="line"/>
    </contour>
  </outline>
</glyph>
<glyph name="Ahookabove.color4" format="2">
  <advance width="600"/>
  <unicode hex="1EA2"/>
  <outline>
    <contour>
      <point x="365" y="760" type="line"/>
      <point x="483" y="760" type="line"/>
      <point x="624" y="838" type="line"/>
      <point x="624" y="839" type="line"/>
      <point x="517" y="940" type="line"/>
      <point x="365" y="761" type="line"/>
    </contour>
  </outline>
</glyph>
<glyph name="Ahookabove" format="2">
  <advance width="847"/>
  <unicode hex="1EA2"/>
  <anchor x="462" y="0" name="bottom"/>
  <anchor x="446" y="730" name="top"/>
  <outline>
    <contour>
      <point x="35" y="0" type="line"/>
      <point x="249" y="0" type="line"/>
      <point x="249" y="730" type="line"/>
      <point x="248" y="730" type="line"/>
      <point x="35" y="523" type="line"/>
    </contour>
    <contour>
      <point x="249" y="193" type="line"/>
      <point x="598" y="193" type="line"/>
      <point x="598" y="397" type="line"/>
      <point x="249" y="397" type="line"/>
    </contour>
    <contour>
      <point x="598" y="0" type="line"/>
      <point x="812" y="0" type="line"/>
      <point x="812" y="526" type="line"/>
      <point x="599" y="526" type="line"/>
      <point x="598" y="526" type="line"/>
    </contour>
    <contour>
      <point x="249" y="526" type="line"/>
      <point x="812" y="526" type="line"/>
      <point x="812" y="527" type="line"/>
      <point x="650" y="730" type="line"/>
      <point x="249" y="730" type="line"/>
    </contour>
    <contour>
      <point x="365" y="760" type="line"/>
      <point x="483" y="760" type="line"/>
      <point x="624" y="838" type="line"/>
      <point x="624" y="839" type="line"/>
      <point x="517" y="940" type="line"/>
      <point x="365" y="761" type="line"/>
    </contour>
    <contour>
      <point x="256" y="838" type="line"/>
      <point x="624" y="838" type="line"/>
      <point x="624" y="839" type="line"/>
      <point x="517" y="940" type="line"/>
      <point x="256" y="940" type="line"/>
    </contour>
  </outline>
</glyph>
<glyph name="ahookabove.color5" format="2">
  <advance width="600"/>
  <unicode hex="1EA3"/>
  <outline>
    <contour>
      <point x="292" y="736" type="line"/>
      <point x="620" y="736" type="line"/>
      <point x="620" y="737" type="line"/>
      <point x="533" y="850" type="line"/>
      <point x="292" y="850" type="line"/>
    </contour>
  </outline>
</glyph>
<glyph name="acircumflexacute.color0" format="2">
  <advance width="600"/>
  <unicode hex="1EA5"/>
  <outline>
    <contour>
      <point x="249" y="326" type="line"/>
      <point x="792" y="326" type="line"/>
      <point x="792" y="327" type="line"/>
      <point x="685" y="530" type="line"/>
      <point x="249" y="530" type="line"/>
    </contour>
  </outline>
</glyph>
<glyph name="acircumflexacute.color2" format="2">
  <advance width="600"/>
  <unicode hex="1EA5"/>
  <outline>
    <contour>
      <point x="35" y="204" type="line"/>
      <point x="249" y="204" type="line"/>
      <point x="249" y="530" type="line"/>
      <point x="248" y="530" type="line"/>
      <point x="35" y="423" type="line"/>
    </contour>
  </outline>
</glyph>
<glyph name="acircumflexacute.color6" format="2">
  <advance width="600"/>
  <unicode hex="1EA5"/>
  <outline>
    <contour>
      <point x="371" y="740" type="line"/>
      <point x="467" y="740" type="line"/>
      <point x="592" y="899" type="line"/>
      <point x="592" y="900" type="line"/>
      <point x="426" y="900" type="line"/>
    </contour>
  </outline>
</glyph>
<glyph name="Acircumflexhookabove.color6" format="2">
  <advance width="600"/>
  <unicode hex="1EA8"/>
  <outline>
    <contour>
      <point x="466" y="892" type="line"/>
      <point x="754" y="892" type="line"/>
      <point x="754" y="893" type="line"/>
      <point x="677" y="980" type="line"/>
      <point x="466" y="980" type="line"/>
    </contour>
  </outline>
</glyph>
<glyph name="Acircumflexhookabove.color7" format="2">
  <advance width="600"/>
  <unicode hex="1EA8"/>
  <outline>
    <contour>
      <point x="579" y="824" type="line"/>
      <point x="667" y="824" type="line"/>
      <point x="754" y="892" type="line"/>
      <point x="754" y="893" type="line"/>
      <point x="677" y="980" type="line"/>
      <point x="579" y="825" type="line"/>
    </contour>
  </outline>
</glyph>
<glyph name="Acircumflextilde.color4" format="2">
  <advance width="600"/>
  <unicode hex="1EAA"/>
  <outline>
    <contour>
      <point x="508" y="755" type="line"/>
      <point x="682" y="755" type="line"/>
      <point x="682" y="756" type="line"/>
      <point x="548" y="853" type="line"/>
      <point x="434" y="798" type="line"/>
    </contour>
  </outline>
</glyph>
<glyph name="Acircumflextilde.color5" format="2">
  <advance width="600"/>
  <unicode hex="1EAA"/>
  <outline>
    <contour>
      <point x="190" y="755" type="line"/>
      <point x="354" y="755" type="line"/>
      <point x="548" y="853" type="line"/>
      <point x="374" y="853" type="line"/>
      <point x="190" y="756" type="line"/>
    </contour>
  </outline>
</glyph>
<glyph name="Acircumflextilde.color7" format="2">
  <advance width="600"/>
  <unicode hex="1EAA"/>
  <outline>
    <contour>
      <point x="535" y="887" type="line"/>
      <point x="665" y="896" type="line"/>
      <point x="665" y="980" type="line"/>
      <point x="535" y="980" type="line"/>
    </contour>
  </outline>
</glyph>
<glyph name="acircumflexdotbelow.color6" format="2">
  <advance width="600"/>
  <unicode hex="1EAD"/>
  <outline>
    <contour>
      <point x="226" y="592" type="line"/>
      <point x="380" y="592" type="line"/>
      <point x="514" y="770" type="line"/>
      <point x="370" y="770" type="line"/>
      <point x="226" y="593" type="line"/>
    </contour>
  </outline>
</glyph>
<glyph name="Abreveacute.color7" format="2">
  <advance width="600"/>
  <unicode hex="1EAE"/>
  <outline>
    <contour>
      <point x="514" y="852" type="line"/>
      <point x="660" y="852" type="line"/>
      <point x="697" y="891" type="line"/>
      <point x="697" y="892" type="line"/>
      <point x="561" y="892" type="line"/>
    </contour>
  </outline>
</glyph>
<glyph name="abrevegrave.color5" format="2">
  <advance width="600"/>
  <unicode hex="1EB1"/>
  <outline>
    <contour>
      <point x="238" y="685" type="line"/>
      <point x="364" y="685" type="line"/>
      <point x="317" y="756" type="line"/>
      <point x="191" y="756" type="line"/>
      <point x="191" y="754" type="line"/>
    </contour>
  </outline>
</glyph>
